<?xml version="1.0" encoding="UTF-8"?>
<svg width="48px" height="48px" viewBox="0 0 48 48" version="1.1" xmlns="http://www.w3.org/2000/svg" xmlns:xlink="http://www.w3.org/1999/xlink">
    <!-- Generator: Sketch 63.1 (92452) - https://sketch.com -->
    <title>Icon / Object / Docrio / White on Color</title>
    <desc>Created with Sketch.</desc>
    <defs>
        <linearGradient x1="49.9994174%" y1="100%" x2="49.9994174%" y2="0.00116492831%" id="linearGradient-1">
            <stop stop-color="#2DBAD4" offset="0%"></stop>
            <stop stop-color="#D314D5" offset="100%"></stop>
        </linearGradient>
        <polygon id="path-2" points="0.230526316 0.559252116 29.4409831 0.559252116 29.4409831 29.7694737 0.230526316 29.7694737"></polygon>
    </defs>
    <g id="Icon-/-Object-/-Docrio-/-White-on-Color" stroke="none" stroke-width="1" fill="none" fill-rule="evenodd">
        <path d="M4,48 L44,48 C46.209139,48 48,46.209139 48,44 L48,4 C48,1.790861 46.209139,-4.05812251e-16 44,0 L4,0 C1.790861,4.05812251e-16 -2.705415e-16,1.790861 0,4 L0,44 C2.705415e-16,46.209139 1.790861,48 4,48 Z" id="Fill-1" fill="url(#linearGradient-1)"></path>
        <g id="Logo-/-Docrio-/-White" transform="translate(9.000000, 9.000000)">
            <g id="Group-7">
                <mask id="mask-3" fill="white">
                    <use xlink:href="#path-2"></use>
                </mask>
                <g id="Clip-6"></g>
                <path d="M15.0526579,0.560842105 C10.8858158,0.500052632 7.1145,2.18636842 4.41765789,4.93215789 C4.35607895,4.99452632 4.29607895,5.05689474 4.23528947,5.12005263 C3.94792105,5.42321053 4.16265789,5.92373684 4.58028947,5.92373684 L4.85186842,5.92294737 L15.4181842,5.92057895 C20.3137105,5.92057895 24.2958158,9.90268421 24.2958158,14.799 C24.2950263,19.6937368 20.3129211,23.6750526 15.4181842,23.6750526 L10.3079211,23.6750526 C9.34002632,23.6750526 8.55528947,22.8903158 8.55528947,21.9216316 L8.55528947,14.6726842 C8.96660526,14.469 9.23502632,14.0197895 9.16713158,13.5161053 C9.10002632,13.0187368 8.6895,12.6168947 8.19134211,12.5600526 C7.51397368,12.4818947 6.94002632,13.0100526 6.94002632,13.6708421 C6.94002632,14.1105789 7.19423684,14.4903158 7.56292105,14.6726842 L7.56292105,21.9224211 C7.56292105,23.4382105 8.79213158,24.6666316 10.3079211,24.6666316 L15.4181842,24.6666316 C20.8592368,24.6666316 25.2866053,20.2400526 25.2881842,14.7974211 C25.2881842,9.35557895 20.8600263,4.929 15.4181842,4.929 L5.87265789,4.93136842 C8.47160526,2.65136842 11.9413421,1.34084211 15.7134474,1.57926316 C22.4981842,2.00794737 27.9810789,7.48057895 28.4200263,14.2645263 C28.9592368,22.6092632 21.9321316,29.4950526 13.5431842,28.7174211 C6.99844737,28.1111053 1.78002632,22.8066316 1.26528947,16.254 C1.10344737,14.1958421 1.40502632,12.2245263 2.07292105,10.4300526 L15.4245,10.4308421 C17.8331842,10.4308421 19.7942368,12.3903158 19.7966053,14.8021579 C19.7966053,17.2132105 17.8355526,19.1742632 15.4245,19.1742632 L13.0529211,19.1758421 L13.0529211,14.6726842 C13.4650263,14.4682105 13.7334474,14.0197895 13.6655526,13.5153158 C13.5984474,13.0187368 13.1871316,12.6168947 12.6889737,12.5600526 C12.0123947,12.4826842 11.4384474,13.0100526 11.4384474,13.6708421 C11.4384474,14.1105789 11.6926579,14.4903158 12.0613421,14.6726842 L12.0613421,19.6716316 C12.0613421,19.8034737 12.1134474,19.9297895 12.2066053,20.0229474 C12.2997632,20.1161053 12.4260789,20.1674211 12.5571316,20.1674211 L12.5571316,20.1674211 L15.4245,20.1666316 C18.3826579,20.1666316 20.7881842,17.7603158 20.7881842,14.7974211 C20.7858158,11.8424211 18.3795,9.43847368 15.4245,9.43847368 L2.48976316,9.43768421 L1.71528947,9.43768421 C1.52265789,9.43768421 1.34660526,9.55373684 1.27555263,9.73294737 C1.18476316,9.96268421 1.0995,10.1947895 1.01897368,10.4300526 C0.408710526,12.2134737 0.126868421,14.1500526 0.265026316,16.1703158 C0.7695,23.5874211 6.86739474,29.4926842 14.2971316,29.7603158 C22.7145,30.0626842 29.6145,23.2392632 29.4376579,14.8495263 C29.2726579,7.03215789 22.8708158,0.674526316 15.0526579,0.560842105" id="Fill-5" fill="#FFFFFF" mask="url(#mask-3)"></path>
            </g>
        </g>
    </g>
</svg>