<?xml version="1.0" encoding="UTF-8"?>
<svg width="48px" height="48px" viewBox="0 0 48 48" version="1.1" xmlns="http://www.w3.org/2000/svg" xmlns:xlink="http://www.w3.org/1999/xlink">
    <title>Standard Icons / merge Copy 2</title>
    <defs>
        <rect id="path-1" x="0" y="0" width="48" height="48" rx="3"></rect>
    </defs>
    <g id="Standard-Icons-/-merge-Copy-2" stroke="none" stroke-width="1" fill="none" fill-rule="evenodd">
        <mask id="mask-2" fill="white">
            <use xlink:href="#path-1"></use>
        </mask>
        <use id="Icon-Background" fill="#F2CF5B" xlink:href="#path-1"></use>
        <g id="merge" mask="url(#mask-2)" fill="#FFFFFF" fill-rule="nonzero">
            <g transform="translate(11.935484, 7.000000)" id="Path">
                <path d="M23.3064516,29.3387097 C19.4677419,27.4741935 16.7258065,24.183871 15.3548387,20.4 C14.8064516,18.9741935 14.4774194,17.4935484 14.3129032,16.0677419 L14.3129032,13.6548387 L21.7709677,13.6548387 C22.3741935,13.6548387 22.7032258,12.9967742 22.3193548,12.4483871 L12.6129032,0.822580645 C12.283871,0.383870968 11.516129,0.383870968 11.2419355,0.822580645 L1.75483871,12.4483871 C1.42580645,12.8870968 1.75483871,13.6548387 2.30322581,13.6548387 L9.81612903,13.6548387 C9.81612903,14.6967742 9.81612903,16.0129032 9.81612903,16.0129032 L9.81612903,16.0677419 C9.6516129,17.5483871 9.26774194,19.083871 8.77419355,20.4 C7.3483871,24.1290323 4.66129032,27.4741935 0.822580645,29.3387097 C0.274193548,29.5580645 0.0548387097,30.216129 0.274193548,30.7645161 L1.1516129,32.8483871 C1.42580645,33.4516129 2.02903226,33.616129 2.63225806,33.2870968 C6.8,31.3129032 10.0354839,28.1322581 12.0645161,24.4032258 C14.0935484,28.1870968 17.3290323,31.3129032 21.5516129,33.2870968 C22.1548387,33.5612903 22.7580645,33.5064516 23.0322581,32.8483871 L23.9096774,30.7645161 C24.1290323,30.216129 23.8548387,29.5580645 23.3064516,29.3387097 Z"></path>
            </g>
        </g>
    </g>
</svg>