<svg id="powerpoint" width="26" height="28" viewBox="0 0 26 28" fill="none" xmlns="http://www.w3.org/2000/svg">
<path d="M25.3838 6.5C25.6279 6.74414 25.75 7.03711 25.75 7.37891V26.5098C25.75 26.8516 25.6279 27.1445 25.3838 27.3887C25.1396 27.623 24.8418 27.7402 24.4902 27.7402H5.74023C5.39844 27.7402 5.11035 27.623 4.87598 27.3887C4.63184 27.1445 4.50977 26.8516 4.50977 26.5098V21.5H2.25391C2.04883 21.5 1.8584 21.4609 1.68262 21.3828C1.49707 21.3047 1.33594 21.1973 1.19922 21.0605C1.0625 20.9238 0.955078 20.7676 0.876953 20.5918C0.798828 20.4062 0.759766 20.2109 0.759766 20.0059V7.99414C0.759766 7.78906 0.798828 7.59863 0.876953 7.42285C0.955078 7.2373 1.0625 7.07617 1.19922 6.93945C1.33594 6.80273 1.49707 6.69531 1.68262 6.61719C1.8584 6.53906 2.04883 6.5 2.25391 6.5H4.50977V1.49023C4.50977 1.14844 4.63184 0.860352 4.87598 0.625977C5.11035 0.381836 5.39844 0.259766 5.74023 0.259766H18.6162C18.958 0.259766 19.2559 0.376953 19.5098 0.611328M24.4902 7.75977H19.5098C19.334 7.75977 19.1729 7.72559 19.0264 7.65723C18.8701 7.58887 18.7334 7.50098 18.6162 7.39355C18.499 7.27637 18.4111 7.14453 18.3525 6.99805C18.2842 6.8418 18.25 6.67578 18.25 6.5V1.49023H5.74023V6.5H14.251C14.4561 6.5 14.6514 6.53906 14.8369 6.61719C15.0127 6.69531 15.1738 6.80273 15.3203 6.93945C15.457 7.07617 15.5645 7.2373 15.6426 7.42285C15.7207 7.59863 15.7598 7.78906 15.7598 7.99414V20.0059C15.7598 20.2109 15.7207 20.4062 15.6426 20.5918C15.5645 20.7676 15.457 20.9238 15.3203 21.0605C15.1738 21.1973 15.0127 21.3047 14.8369 21.3828C14.6514 21.4609 14.4561 21.5 14.251 21.5H5.74023V26.5098H24.4902M5.74023 18.585H7.4541V15.3477H9.09473C9.74902 15.3477 10.335 15.2158 10.8525 14.9521C11.3604 14.6982 11.7461 14.3369 12.0098 13.8682C12.2832 13.4189 12.4199 12.8916 12.4199 12.2861C12.4199 11.3584 12.1465 10.6455 11.5996 10.1475C11.0332 9.65918 10.2373 9.41504 9.21191 9.41504H5.74023M19.5098 15.2598H23.1865C23.1084 15.7871 22.9424 16.2803 22.6885 16.7393C22.4346 17.1982 22.1172 17.5986 21.7363 17.9404C21.3555 18.2725 20.9209 18.5361 20.4326 18.7314C19.9443 18.917 19.4219 19.0098 18.8652 19.0098C18.5332 19.0098 18.2109 18.9707 17.8984 18.8926C17.5762 18.8145 17.2734 18.707 16.9902 18.5703V10.6748C17.5762 10.3916 18.2012 10.25 18.8652 10.25C18.9727 10.25 19.0801 10.2549 19.1875 10.2646C19.2949 10.2744 19.4023 10.2891 19.5098 10.3086M20.7402 8.99023C21.2676 9.06836 21.7607 9.23437 22.2197 9.48828C22.6787 9.74219 23.0742 10.0596 23.4062 10.4404C23.7383 10.8213 24.002 11.2607 24.1973 11.7588C24.3828 12.2471 24.4756 12.7646 24.4756 13.3115C24.4756 13.5264 24.4609 13.7363 24.4316 13.9414H20.7402M10.1934 13.5312C9.91992 13.8047 9.49023 13.9414 8.9043 13.9414H7.4541V10.8359H8.96289C10.0762 10.8359 10.6328 11.3389 10.6328 12.3447C10.6328 12.8721 10.4863 13.2676 10.1934 13.5312ZM19.5098 6.5H23.6113L19.5098 2.38379V6.5Z" fill="black"/>
<path d="M5.125 26.5098V1.49023C5.125 1.32422 5.18848 1.18262 5.31543 1.06543C5.43262 0.938477 5.57422 0.875 5.74023 0.875H18.6162C18.7725 0.875 18.9189 0.933594 19.0557 1.05078L24.9443 6.93945C25.0713 7.06641 25.1348 7.21289 25.1348 7.37891V26.5098C25.1348 26.6758 25.0713 26.8223 24.9443 26.9492C24.8174 27.0664 24.666 27.125 24.4902 27.125H5.74023C5.57422 27.125 5.43262 27.0664 5.31543 26.9492C5.18848 26.8223 5.125 26.6758 5.125 26.5098Z" fill="#FAFAFA"/>
<path d="M25.3838 6.5C25.6279 6.74414 25.75 7.03711 25.75 7.37891V26.5098C25.75 26.8516 25.6279 27.1445 25.3838 27.3887C25.1396 27.623 24.8418 27.7402 24.4902 27.7402H5.74023C5.39844 27.7402 5.11035 27.623 4.87598 27.3887C4.63184 27.1445 4.50977 26.8516 4.50977 26.5098V1.49023C4.50977 1.14844 4.63184 0.860352 4.87598 0.625977C5.11035 0.381836 5.39844 0.259766 5.74023 0.259766H18.6162C18.958 0.259766 19.2559 0.376953 19.5098 0.611328M24.4902 26.5098V7.75977H19.5098C19.334 7.75977 19.1729 7.72559 19.0264 7.65723C18.8701 7.58887 18.7334 7.50098 18.6162 7.39355C18.499 7.27637 18.4111 7.14453 18.3525 6.99805C18.2842 6.8418 18.25 6.67578 18.25 6.5V1.49023H5.74023V26.5098M19.5098 6.5H23.6113L19.5098 2.38379V6.5Z" fill="#797774"/>
<path d="M20.7402 8.99023C21.2676 9.06836 21.7607 9.23437 22.2197 9.48828C22.6787 9.74219 23.0791 10.0596 23.4209 10.4404C23.7529 10.8213 24.0166 11.2607 24.2119 11.7588C24.3975 12.2471 24.4902 12.7646 24.4902 13.3115C24.4902 13.4189 24.4854 13.5264 24.4756 13.6338C24.4658 13.7314 24.4512 13.834 24.4316 13.9414H20.7402M23.1865 15.2598C23.1084 15.7871 22.9424 16.2803 22.6885 16.7393C22.4346 17.1982 22.1172 17.5986 21.7363 17.9404C21.3555 18.2725 20.9209 18.5361 20.4326 18.7314C19.9443 18.917 19.4219 19.0098 18.8652 19.0098C18.5332 19.0098 18.2109 18.9707 17.8984 18.8926C17.5762 18.8145 17.2734 18.707 16.9902 18.5703V15.2598H23.1865Z" fill="#ED6C47"/>
<path d="M18.8652 10.25C18.9727 10.25 19.0801 10.2549 19.1875 10.2646C19.2949 10.2744 19.4023 10.2891 19.5098 10.3086V15.2598H16.9902V10.6748C17.5762 10.3916 18.2012 10.25 18.8652 10.25Z" fill="#FF8F6B"/>
<path d="M20.7402 8.99023C21.2676 9.06836 21.7607 9.23437 22.2197 9.48828C22.6787 9.74219 23.0791 10.0596 23.4209 10.4404C23.7529 10.8213 24.0166 11.2607 24.2119 11.7588C24.3975 12.2471 24.4902 12.7646 24.4902 13.3115C24.4902 13.4189 24.4854 13.5264 24.4756 13.6338C24.4658 13.7314 24.4512 13.834 24.4316 13.9414H20.7402V8.99023Z" fill="white" fill-opacity="0.498"/>
<path d="M14.251 6.5C14.4561 6.5 14.6514 6.53906 14.8369 6.61719C15.0127 6.69531 15.1738 6.80273 15.3203 6.93945C15.457 7.07617 15.5645 7.2373 15.6426 7.42285C15.7207 7.59863 15.7598 7.78906 15.7598 7.99414V20.0059C15.7598 20.2109 15.7207 20.4062 15.6426 20.5918C15.5645 20.7676 15.457 20.9238 15.3203 21.0605C15.1738 21.1973 15.0127 21.3047 14.8369 21.3828C14.6514 21.4609 14.4561 21.5 14.251 21.5H2.25391C2.04883 21.5 1.8584 21.4609 1.68262 21.3828C1.49707 21.3047 1.33594 21.1973 1.19922 21.0605C1.0625 20.9238 0.955078 20.7676 0.876953 20.5918C0.798828 20.4062 0.759766 20.2109 0.759766 20.0059V7.99414C0.759766 7.78906 0.798828 7.59863 0.876953 7.42285C0.955078 7.2373 1.0625 7.07617 1.19922 6.93945C1.33594 6.80273 1.49707 6.69531 1.68262 6.61719C1.8584 6.53906 2.04883 6.5 2.25391 6.5H14.251Z" fill="#C43E1C"/>
<path d="M9.21191 9.41504C10.2373 9.41504 11.0332 9.65918 11.5996 10.1475C12.1465 10.6455 12.4199 11.3584 12.4199 12.2861C12.4199 12.8916 12.2832 13.4189 12.0098 13.8682C11.7461 14.3369 11.3604 14.6982 10.8525 14.9521C10.335 15.2158 9.74902 15.3477 9.09473 15.3477H7.4541V18.585H5.74023V9.41504M7.4541 13.9414H8.9043C9.49023 13.9414 9.91992 13.8047 10.1934 13.5312C10.4863 13.2676 10.6328 12.8721 10.6328 12.3447C10.6328 11.3389 10.0762 10.8359 8.96289 10.8359H7.4541V13.9414Z" fill="white"/>
</svg>
