<?xml version="1.0" encoding="UTF-8"?>
<svg id="pdf" width="22px" height="28px" viewBox="0 0 22 28" version="1.1" xmlns="http://www.w3.org/2000/svg" xmlns:xlink="http://www.w3.org/1999/xlink">
    <title>Docrio / Icons / File Type / PDF  </title>
    <g id="Docrio-/-Icons-/-File-Type-/-PDF--" stroke="none" stroke-width="1" fill="none" fill-rule="evenodd">
        <g id="Base">
            <g id="Group">
                <path d="M2.00357143,0 C0.903571429,0 -2.13162821e-14,1.04137681 -2.13162821e-14,2.09262022 L-2.13162821e-14,20 C-2.13162821e-14,20 22,20 22,20 L22,7.00168762 L15.125,0 L2.00357143,0 Z" id="Shape" fill="#E9E9E9"></path>
                <path d="M15.125,0 L15.125,4.70078554 C15.125,5.82992302 15.8469612,7.0028559 17.1790981,6.99999478 L22,6.99999478 L15.125,0 Z" id="Shape" fill="#FFFFFF" opacity="0.248581659"></path>
            </g>
            <path d="M22,26.1762615 C22,27.1834845 21.1834845,28 20.1762615,28 L1.82373846,28 C0.816515522,28 1.01152765e-15,27.1834845 0,26.1762615 L0,20 L22,20 L22,26.1762615 Z" id="BG" fill="#D24444"></path>
            <path d="M22,7.00168762 L22,7.34983264 L17.3075403,7.34983264 C17.4338355,7.34983264 15.1233047,7.42232176 15.1250009,4.55 C15.1250009,4.55 15.1977522,7.00168762 17.3075403,7.00168762 L22,7.00168762 Z" id="Shape" fill="#CDCACA"></path>
        </g>
        <text id="PDF" font-family="SalesforceSans-Bold, Salesforce Sans" font-size="5" font-weight="bold" line-spacing="7" fill="#FFFFFF">
            <tspan x="6.2225" y="25.75">PDF</tspan>
        </text>
        <path d="M13.9777653,12.7487144 C13.3830679,12.7487144 12.6388197,12.8506549 12.3953499,12.8865291 C11.3876118,11.8523145 11.1009036,11.2644563 11.036415,11.1077224 C11.1238144,10.8870375 11.427898,10.0486951 11.4711056,8.97198771 C11.4924173,8.43290867 11.3765408,8.03010296 11.1266129,7.77475291 C10.8771156,7.51982597 10.5751232,7.5 10.4885233,7.5 C10.1848703,7.5 9.67548114,7.65090103 9.67548114,8.66142112 C9.67548114,9.53820658 10.0914433,10.4685766 10.206428,10.7089665 C9.60062886,12.4424696 8.95023816,13.6291568 8.81212739,13.8732036 C6.37785975,14.7739253 6.1875,15.6448173 6.1875,15.8916446 C6.1875,16.3351903 6.50892813,16.6 7.04731718,16.6 C8.35538699,16.6 9.54908719,14.4417496 9.74645858,14.0669904 C10.6755003,13.7032019 11.8302426,13.7778818 12.1463505,13.7241159 C13.0530657,14.5729455 14.1904209,14.4994141 14.6258803,14.4994141 C14.9535205,14.4994141 15.7208333,14.4994141 15.7208333,13.7241159 C15.7208333,13.0041551 14.7818892,12.7487144 13.9777653,12.7487144 Z M13.6936097,13.5666667 C14.3545014,13.5666667 14.5291667,13.7728047 14.5291667,13.8817882 C14.5291667,13.9501844 14.5016379,14.1733333 14.1473884,14.1733333 C13.8297289,14.1733333 13.2812823,14.000186 12.7416667,13.6244819 C12.9667007,13.5965917 13.2996923,13.5666667 13.6936097,13.5666667 Z M10.6657652,8.10666667 C10.7448324,8.10666667 10.7968771,8.12556183 10.8397885,8.16983771 C11.0891804,8.42726675 10.8880969,9.26842435 10.6433471,9.92666667 C10.407089,9.36225441 10.2297822,8.49622146 10.4792496,8.19154048 C10.5280109,8.13207547 10.5837542,8.10666667 10.6657652,8.10666667 Z M9.7625,13.5666667 C10.0355456,13.0120692 10.3415812,12.2038037 10.508271,11.7466667 C10.8418475,12.30803 11.2905115,12.8292276 11.55,13.1118069 C10.7420568,13.2830642 10.1307735,13.4541564 9.7625,13.5666667 Z M6.7986642,15.899477 C6.78105019,15.8835234 6.77844666,15.8498981 6.79172145,15.8095232 C6.81955674,15.72492 7.03227489,15.3055364 8.57083333,14.78 C8.35052958,15.0449772 8.00612418,15.4235931 7.62777643,15.7064384 C7.36144482,15.8968017 7.1540623,15.9933333 7.01138236,15.9933333 C6.96034029,15.9933333 6.8900128,15.9827058 6.7986642,15.899477 Z" id="XMLID_39_" fill="#D24444" fill-rule="nonzero"></path>
    </g>
</svg>