<?xml version="1.0" encoding="UTF-8"?>
<svg viewBox="0 0 128 128" version="1.1" xmlns="http://www.w3.org/2000/svg" xmlns:xlink="http://www.w3.org/1999/xlink" id="TransferBlack">
    <title>TransferBlack</title>
    <g id="TransferBlack" stroke="none" stroke-width="1" fill="none" fill-rule="evenodd">
        <g id="Group-4" transform="translate(6.000000, 5.000000)" fill="#080707" fill-rule="nonzero">
            <path d="M62.1915847,-28.1586313 C64.0372845,-28.0494822 65.5326148,-25.3071081 65.636227,-21.8412995 L65.636227,-21.8412995 L65.636227,33.1194871 C65.6208659,34.8101129 66.1583701,36.3455946 66.9904182,36.9879889 C67.8224664,37.6303832 68.7789261,37.2483371 69.4001288,36.0254597 L69.4001288,36.0254597 L77.4656327,21.2113167 C78.0979026,19.9957816 78.9641069,19.310586 79.8684808,19.310586 C80.7728547,19.310586 81.6390589,19.9957816 82.2713288,21.2113167 L82.2713288,21.2113167 L87.0770249,29.8976479 C87.7327438,31.0115452 88.1069283,32.5952421 88.1069283,34.2566068 C88.1069283,35.9179715 87.7327438,37.5016684 87.0770249,38.6155658 L87.0770249,38.6155658 L61.1665936,85.9955542 C60.5343237,87.2110892 59.6681194,87.8962849 58.7637455,87.8962849 C57.8593716,87.8962849 56.9931674,87.2110892 56.3608975,85.9955542 L56.3608975,85.9955542 L30.6184975,38.6155658 C29.9627786,37.5016684 29.5885941,35.9179715 29.5885941,34.2566068 C29.5885941,32.5952421 29.9627786,31.0115452 30.6184975,29.8976479 L30.6184975,29.8976479 L35.3065716,21.2113167 C35.9388415,19.9957816 36.8050458,19.310586 37.7094197,19.310586 C38.6137936,19.310586 39.4799978,19.9957816 40.1122677,21.2113167 L40.1122677,21.2113167 L48.1777716,36.0254597 C48.7989743,37.2483371 49.7554341,37.6303832 50.5874822,36.9879889 C51.4195304,36.3455946 51.9570345,34.8101129 51.9416735,33.1194871 L51.9416735,33.1194871 L51.9416735,-21.8412995 C52.101482,-25.3190895 53.6146628,-28.0281266 55.4703314,-28.1586313 L62.1915847,-28.1586313 Z" id="Path" transform="translate(58.847761, 29.868827) rotate(-90.000000) translate(-58.847761, -29.868827) "></path>
            <path d="M62.1915847,29.457737 C64.0372845,29.5668861 65.5326148,32.3092602 65.636227,35.7750688 L65.636227,35.7750688 L65.636227,90.7358554 C65.6208659,92.4264812 66.1583701,93.9619629 66.9904182,94.6043572 C67.8224664,95.2467515 68.7789261,94.8647054 69.4001288,93.641828 L69.4001288,93.641828 L77.4656327,78.827685 C78.0979026,77.6121499 78.9641069,76.9269543 79.8684808,76.9269543 C80.7728547,76.9269543 81.6390589,77.6121499 82.2713288,78.827685 L82.2713288,78.827685 L87.0770249,87.5140162 C87.7327438,88.6279135 88.1069283,90.2116104 88.1069283,91.8729751 C88.1069283,93.5343398 87.7327438,95.1180367 87.0770249,96.2319341 L87.0770249,96.2319341 L61.1665936,143.611922 C60.5343237,144.827458 59.6681194,145.512653 58.7637455,145.512653 C57.8593716,145.512653 56.9931674,144.827458 56.3608975,143.611922 L56.3608975,143.611922 L30.6184975,96.2319341 C29.9627786,95.1180367 29.5885941,93.5343398 29.5885941,91.8729751 C29.5885941,90.2116104 29.9627786,88.6279135 30.6184975,87.5140162 L30.6184975,87.5140162 L35.3065716,78.827685 C35.9388415,77.6121499 36.8050458,76.9269543 37.7094197,76.9269543 C38.6137936,76.9269543 39.4799978,77.6121499 40.1122677,78.827685 L40.1122677,78.827685 L48.1777716,93.641828 C48.7989743,94.8647054 49.7554341,95.2467515 50.5874822,94.6043572 C51.4195304,93.9619629 51.9570345,92.4264812 51.9416735,90.7358554 L51.9416735,90.7358554 L51.9416735,35.7750688 C52.101482,32.2972788 53.6146628,29.5882416 55.4703314,29.457737 L62.1915847,29.457737 Z" id="Path" transform="translate(58.847761, 87.485195) scale(1, -1) rotate(90.000000) translate(-58.847761, -87.485195) "></path>
        </g>
    </g>
</svg>