<svg width="16" height="14" viewBox="0 0 16 14" fill="none" xmlns="http://www.w3.org/2000/svg" id="remove_from_portal">
<path fill-rule="evenodd" clip-rule="evenodd" d="M9.48036 8.78776C9.4398 9.18045 9.57161 9.57313 9.8251 9.88315V9.87281L10.1901 10.3172L8.42586 11.8466C8.41935 11.8494 8.41293 11.8523 8.40656 11.8551C8.34347 11.883 8.28568 11.9086 8.20279 11.9086C7.9493 11.9086 7.76679 11.7226 7.76679 11.4642V7.97138C3.90368 6.92766 0.750317 10.3895 0.750317 10.3895C0.659062 10.4825 0.557668 10.5135 0.435995 10.5135C0.18251 10.5135 0 10.3275 0 10.0692V10.0072C1.56147 3.26948 7.76679 4.22019 7.76679 4.22019V0.944356C7.76679 0.68601 7.9493 0.5 8.20279 0.5C8.30418 0.5 8.39544 0.531002 8.45627 0.562003L14.7326 5.7496C14.7934 5.81161 14.8542 5.94595 14.8542 6.06995C14.8542 6.19396 14.7934 6.3283 14.7022 6.4213L13.384 7.55803L13.019 7.12401C12.7351 6.78299 12.3295 6.58665 11.8935 6.58665C11.5488 6.58665 11.2142 6.72099 10.9404 6.94833L9.99747 7.76471C9.69328 8.02305 9.51077 8.38474 9.48036 8.78776ZM15.8885 9.25285L14.3371 10.5859H14.3473L15.6553 12.167C15.7668 12.3013 15.7465 12.4977 15.6147 12.6114L14.6717 13.4277C14.5399 13.5414 14.3473 13.5207 14.2357 13.3864L12.948 11.8466L11.5387 13.066C11.4068 13.1797 11.2142 13.159 11.1027 13.0247L10.3016 12.0637C10.1901 11.9293 10.2104 11.733 10.3422 11.6193L11.7516 10.3999L10.5247 8.92216C10.4132 8.78782 10.4335 8.59148 10.5653 8.47781L11.5082 7.66143C11.64 7.54776 11.8327 7.56843 11.9442 7.70277L13.1711 9.18051L14.692 7.80611C14.8238 7.69243 15.0165 7.7131 15.128 7.84744L15.929 8.80849C16.0406 8.94283 16.0203 9.13917 15.8885 9.25285Z" fill="currentColor"/>
</svg>
