<svg width="16" height="16" viewBox="0 0 16 16" fill="none" xmlns="http://www.w3.org/2000/svg" id="share_with_portal">
<path fill-rule="evenodd" clip-rule="evenodd" d="M0.615356 11.6615V11.7231C0.615356 11.9692 0.799972 12.1538 1.04613 12.1538C1.1692 12.1538 1.26151 12.1231 1.35382 12.0308C1.35382 12.0308 4.46151 8.67692 8.27689 9.69231V13.0769C8.27689 13.3231 8.46151 13.5077 8.70766 13.5077C8.79997 13.5077 8.86151 13.4769 8.92305 13.4462L15.1077 8.18462C15.2 8.09231 15.2615 7.96923 15.2615 7.84616C15.2615 7.72308 15.2 7.6 15.1384 7.53846L8.95382 2.52308C8.89228 2.49231 8.79997 2.46154 8.70766 2.46154C8.46151 2.46154 8.27689 2.64616 8.27689 2.89231V6.06154C8.24613 6.06154 2.15382 5.13846 0.615356 11.6615H0.615356Z" fill="currentColor"/>
</svg>
