<svg width="18" height="18" viewBox="0 0 18 18" fill="none" xmlns="http://www.w3.org/2000/svg">
<rect width="18" height="18" rx="9" fill="#3995A9"/>
<path fill-rule="evenodd" clip-rule="evenodd" d="M8.59446 5.77603V10.5067L5.49883 8.00809L6.47031 7.0366C6.54486 6.96205 6.5169 6.82228 6.37713 6.79432L3.46982 6.53341C3.36732 6.52409 3.26482 6.62659 3.28346 6.71978L3.58164 9.58981C3.59096 9.69231 3.74937 9.75754 3.82392 9.68299L4.78286 8.72405L8.59446 11.8005V14.2604C8.59446 14.5366 8.82172 14.7604 9.09787 14.7604C9.37401 14.7604 9.60127 14.5366 9.60127 14.2604V11.9821L13.1594 8.42392L13.1963 8.46083L13.2083 8.44885L14.2147 9.45522C14.2892 9.52977 14.429 9.50181 14.457 9.36204L14.7179 6.45473C14.7272 6.35223 14.6247 6.24973 14.5315 6.26837L11.6615 6.56655C11.559 6.57587 11.4938 6.73428 11.5683 6.80883L12.4595 7.7L9.60127 10.5582V5.77603H10.9891C11.0945 5.77603 11.1736 5.65743 11.0945 5.53883L9.22321 3.29856C9.15732 3.21949 9.01236 3.21949 8.95965 3.29856L7.14108 5.53883C7.07519 5.6179 7.14108 5.77603 7.2465 5.77603H8.59446Z" fill="white"/>
</svg>
