<?xml version="1.0" encoding="UTF-8"?>
<svg viewBox="0 0 128 129" version="1.1" xmlns="http://www.w3.org/2000/svg" xmlns:xlink="http://www.w3.org/1999/xlink" id="RecordDisabled">
    <title>RecordDisabled</title>
    <g id="RecordDisabled" stroke="none" stroke-width="1" fill="none" fill-rule="evenodd" transform="translate(0.000000, 0.000000)">
        <g id="Group-2" transform="translate(2.000000, 16.000000)" fill="#DDDBDA" fill-rule="nonzero">
            <path d="M155.003308,37 C157.838093,37 160.13614,39.2980472 160.13614,42.1328321 L160.13614,52.834787 C160.13614,55.6695718 157.838093,57.967619 155.003308,57.967619 L71.1328321,57.967619 C68.2980472,57.967619 66,55.6695718 66,52.834787 L66,42.2354887 C66,39.4007038 68.2980472,37.1026566 71.1328321,37.1026566 L155.003308,37 Z" id="Path" transform="translate(113.068070, 47.483810) rotate(-90.000000) translate(-113.068070, -47.483810) "></path>
            <path d="M52.6183874,3.55271368e-13 C55.4374055,0.0886836471 57.7212889,2.31686256 57.8795403,5.13283208 L57.8795403,5.13283208 L57.8795403,49.7884712 C57.8560786,51.1621047 58.6770323,52.4096835 59.9478558,52.9316289 C61.2186793,53.4535742 62.6795222,53.1431618 63.6283122,52.1495739 L63.6283122,52.1495739 L75.9471092,40.1130827 C76.9128027,39.1254605 78.2357943,38.568739 79.6170841,38.568739 C80.9983739,38.568739 82.3213656,39.1254605 83.287059,40.1130827 L83.287059,40.1130827 L90.6270089,47.1707268 C91.6285171,48.0757684 92.2000254,49.3625221 92.2000254,50.712381 C92.2000254,52.0622398 91.6285171,53.3489935 90.6270089,54.2540351 L90.6270089,54.2540351 L51.0528736,92.7502757 C50.0871801,93.7378979 48.7641885,94.2946194 47.3828986,94.2946194 C46.0016088,94.2946194 44.6786172,93.7378979 43.7129237,92.7502757 L43.7129237,92.7502757 L4.39542998,54.2540351 C3.39392181,53.3489935 2.82241348,52.0622398 2.82241348,50.712381 C2.82241348,49.3625221 3.39392181,48.0757684 4.39542998,47.1707268 L4.39542998,47.1707268 L11.5557307,40.1130827 C12.5214242,39.1254605 13.8444158,38.568739 15.2257057,38.568739 C16.6069955,38.568739 17.9299871,39.1254605 18.8956806,40.1130827 L18.8956806,40.1130827 L31.2144776,52.1495739 C32.1632676,53.1431618 33.6241105,53.4535742 34.894934,52.9316289 C36.1657575,52.4096835 36.9867111,51.1621047 36.9632495,49.7884712 L36.9632495,49.7884712 L36.9632495,5.13283208 C37.207332,2.30712771 39.5184794,0.106035004 42.3527232,3.55271368e-13 L52.6183874,3.55271368e-13 Z" id="Path" transform="translate(47.511219, 47.147310) rotate(-90.000000) translate(-47.511219, -47.147310) "></path>
        </g>
    </g>
</svg>