<svg id="advanced_pdf_edit" width="16" height="14" viewBox="0 0 16 14" fill="none" xmlns="http://www.w3.org/2000/svg">
<path fill-rule="evenodd" clip-rule="evenodd" d="M12.6154 3.92263H15.0154C15.1384 3.92263 15.2307 3.76878 15.1384 3.6457L12.5846 1.09186C12.4615 0.999549 12.3077 1.09186 12.3077 1.21493V3.61493C12.3077 3.79955 12.4307 3.92263 12.6154 3.92263ZM15.0769 5.1534H11.6923C11.3538 5.1534 11.0769 4.87647 11.0769 4.53801V1.1534C11.0769 0.96878 10.9538 0.845703 10.7692 0.845703H6.61536C6.3692 0.845703 6.15382 1.06109 6.15382 1.30724V2.53801C6.15382 2.66109 6.21536 2.78416 6.2769 2.87647L7.99997 4.59955C8.24613 4.8457 8.43074 5.18416 8.49228 5.5534C8.55382 6.0457 8.39997 6.50724 8.06151 6.87647L7.5692 7.33801C7.41536 7.49186 7.26151 7.58416 7.07689 7.67647C7.29228 7.76878 7.53843 7.83032 7.78459 7.86109C8.58459 7.92263 9.23074 8.59955 9.23074 9.43032V10.1072C9.23074 10.538 9.01536 10.9688 8.70766 11.2457C8.39997 11.5534 7.93843 11.6765 7.50766 11.6457C7.1692 11.6149 6.86151 11.5534 6.52305 11.4919C6.33843 11.4303 6.15382 11.5842 6.15382 11.7995V12.7534C6.15382 12.9995 6.3692 13.2149 6.61536 13.2149H14.923C15.1692 13.2149 15.3846 12.9995 15.3846 12.7534V5.49186C15.3846 5.30724 15.2615 5.18416 15.0769 5.1534ZM7.99997 10.0457V9.36878C7.99997 9.18417 7.84613 9.06109 7.66151 9.03032C5.99997 8.87647 4.61536 7.46109 4.61536 5.70724V5.33801C4.61536 5.1534 4.86151 5.03032 4.98459 5.18416L6.21536 6.41493C6.33843 6.53801 6.55382 6.53801 6.6769 6.41493L7.13843 5.9534C7.26151 5.83032 7.26151 5.61493 7.13843 5.49186L4.15382 2.50724C4.03074 2.38416 3.81536 2.38416 3.69228 2.50724L0.707664 5.49186C0.584587 5.61493 0.584587 5.83032 0.707664 5.9534L1.1692 6.41493C1.29228 6.53801 1.50766 6.56878 1.63074 6.4457L2.92305 5.21493C3.07689 5.06109 3.35382 5.18417 3.35382 5.36878V5.9534C3.35382 8.16878 5.29228 10.1995 7.63074 10.3842C7.84613 10.3842 7.99997 10.2303 7.99997 10.0457Z" fill="currentColor"/>
</svg>
