<svg id="permanent_delete" width="17" height="17" viewBox="0 0 17 17" fill="none" xmlns="http://www.w3.org/2000/svg">
<path fill-rule="evenodd" clip-rule="evenodd" d="M14.7623 3.11681H10.9161V1.88604C10.9161 1.20912 10.3623 0.655273 9.68536 0.655273H7.8392C7.16228 0.655273 6.60844 1.20912 6.60844 1.88604V3.11681H2.76228C2.51613 3.11681 2.30074 3.3322 2.30074 3.57835V4.50143C2.30074 4.74758 2.51613 4.96297 2.76228 4.96297H14.7623C15.0084 4.96297 15.2238 4.74758 15.2238 4.50143V3.57835C15.2238 3.3322 15.0084 3.11681 14.7623 3.11681ZM7.8392 2.19373C7.8392 2.00912 7.96228 1.88604 8.1469 1.88604H9.37767C9.56228 1.88604 9.68536 2.00912 9.68536 2.19373V3.11681H7.8392V2.19373ZM13.5315 6.19374H3.99305C3.7469 6.19374 3.53151 6.40912 3.53151 6.65527V13.886C3.53151 14.7476 4.20844 15.4245 5.06997 15.4245H12.4546C13.3161 15.4245 13.9931 14.7476 13.9931 13.886V6.65527C13.9931 6.40912 13.7777 6.19374 13.5315 6.19374Z" fill="#B3443B"/>
<path d="M6.38397 7.8919C6.65636 7.63959 7.0817 7.65587 7.33401 7.92825L11.7391 12.6839C11.9914 12.9563 11.9751 13.3816 11.7028 13.6339L11.3672 13.9447C11.0949 14.197 10.6695 14.1807 10.4172 13.9083L6.01211 9.15272C5.7598 8.88034 5.77608 8.45499 6.04846 8.20268L6.38397 7.8919Z" fill="white"/>
<path d="M11.8073 8.31125C12.0699 8.57379 12.0699 8.99945 11.8073 9.26199L7.22364 13.8457C6.9611 14.1082 6.53544 14.1082 6.27291 13.8457L5.94952 13.5223C5.68699 13.2598 5.68699 12.8341 5.94952 12.5716L10.5332 7.98787C10.7958 7.72533 11.2214 7.72533 11.484 7.98787L11.8073 8.31125Z" fill="white"/>
</svg>
