<?xml version="1.0" encoding="UTF-8"?>
<svg width="250px" height="70px" viewBox="0 0 250 70" version="1.1" xmlns="http://www.w3.org/2000/svg" xmlns:xlink="http://www.w3.org/1999/xlink">
    <title>Group 5</title>
    <defs>
        <rect id="path-1" x="0" y="0" width="242" height="62"></rect>
        <filter x="-2.9%" y="-8.1%" width="105.8%" height="122.6%" filterUnits="objectBoundingBox" id="filter-3">
            <feOffset dx="0" dy="2" in="SourceAlpha" result="shadowOffsetOuter1"></feOffset>
            <feGaussianBlur stdDeviation="2" in="shadowOffsetOuter1" result="shadowBlurOuter1"></feGaussianBlur>
            <feColorMatrix values="0 0 0 0 0   0 0 0 0 0   0 0 0 0 0  0 0 0 0.5 0" type="matrix" in="shadowBlurOuter1"></feColorMatrix>
        </filter>
    </defs>
    <g id="211007-EM-361:-Litify-Activity-Timeline-Settings" stroke="none" stroke-width="1" fill="none" fill-rule="evenodd">
        <g id="Group-5" transform="translate(4.000000, 2.000000)">
            <mask id="mask-2" fill="white">
                <use xlink:href="#path-1"></use>
            </mask>
            <g id="Mask">
                <use fill="black" fill-opacity="1" filter="url(#filter-3)" xlink:href="#path-1"></use>
                <use fill="#FFFFFF" fill-rule="evenodd" xlink:href="#path-1"></use>
            </g>
            <g id="Group" mask="url(#mask-2)">
                <g id="Previews---Display-Field">
                    <rect id="Rectangle" stroke="#F3F2F1" fill="#FFFFFF" x="0.5" y="0.5" width="241" height="61"></rect>
                    <g id="Email-/-Navigation-/-Header-Both-Borders" transform="translate(1.000000, 1.000000)">
                        <rect id="Rectangle-34" fill="#FAFAF9" x="0" y="0" width="240" height="23"></rect>
                        <text id="Activity-Timeline" font-family="Helvetica" font-size="9" font-weight="normal" line-spacing="9" fill="#080707">
                            <tspan x="12" y="16">Activity Timeline</tspan>
                        </text>
                        <polygon id="Rectangle-34" fill="#F3F2F1" points="0 23 240 23 240 24 0 24"></polygon>
                    </g>
                    <g id="Panel-/-Object-/-Saved-Locations-/-Selected-Sent" transform="translate(1.000000, 25.000000)">
                        <g id="Group-5" fill="#FFFFFF">
                            <polygon id="Rectangle-34" points="0 0 240 0 240 36 0 36"></polygon>
                        </g>
                        <g id="Fluent-Icon-/-Outlined-w/Padding-/-Folder-Copy-2-3-Copy-2Email-Copy-2" transform="translate(3.000000, 0.000000)">
                            <g id="Icon-/-Litify-/-Saved-Location-Blue" transform="translate(9.000000, 9.000000)" fill="#95AEC5">
                                <path d="M1.5,18 L16.5,18 C17.3284271,18 18,17.3284271 18,16.5 L18,1.5 C18,0.671572875 17.3284271,-1.52179594e-16 16.5,0 L1.5,0 C0.671572875,1.52179594e-16 -1.01453063e-16,0.671572875 0,1.5 L0,16.5 C1.01453063e-16,17.3284271 0.671572875,18 1.5,18 Z" id="Fill-1"></path>
                            </g>
                            <g id="email" transform="translate(13.500000, 14.625000)" fill="#FFFFFF" fill-rule="nonzero">
                                <path d="M4.29214695,4.24454148 C4.41209225,4.34770742 4.57701704,4.34770742 4.69696234,4.24454148 L8.94002735,0.383187773 C9.01499316,0.23580786 9,0 8.70013675,0 L0.303965704,0.0147379913 C0.0790682654,0.0147379913 -0.100849686,0.221069869 0.0640751028,0.397925764 L4.29214695,4.24454148 Z" id="Path"></path>
                                <path d="M8.98500684,2.03384279 C8.98500684,1.84224891 8.74511624,1.73908297 8.61017777,1.87172489 L5.31168201,4.87827511 C5.08678457,5.08460699 4.80191448,5.18777293 4.50205123,5.18777293 C4.20218797,5.18777293 3.91731789,5.08460699 3.69242045,4.87827511 L0.378931517,1.87172489 C0.228999891,1.73908297 0.00410245252,1.84224891 0.00410245252,2.03384279 C0.00410245252,3.1981441 0.00410245252,5.86572052 0.00410245252,5.86572052 C0.00410245252,6.35207424 0.408917842,6.75 0.903692207,6.75 L8.10041025,6.75 C8.59518461,6.75 9,6.35207424 9,5.86572052 C8.98500684,5.86572052 8.98500684,3.2128821 8.98500684,2.03384279 Z" id="Path"></path>
                            </g>
                        </g>
                        <g id="Group-2" transform="translate(39.000000, 13.000000)" fill="#000000" font-family="Helvetica" font-size="9.75" font-weight="normal" line-spacing="9.75">
                            <text id="Updated-expenses-for">
                                <tspan x="0" y="10">Updated expenses for 2021</tspan>
                            </text>
                        </g>
                        <g id="Icon-/-Checked" transform="translate(216.000000, 12.000000)">
                            <rect id="Focus-State" fill="#045F86" x="0" y="3.99680289e-15" width="12" height="12" rx="6"></rect>
                            <path d="M4.30698052,3.93198052 C4.5140873,3.93198052 4.68198052,4.09987373 4.68198052,4.30698052 L4.68198052,5.43198052 L8.80698052,5.43198052 C9.0140873,5.43198052 9.18198052,5.59987373 9.18198052,5.80698052 L9.18198052,6.55698052 C9.18198052,6.7640873 9.0140873,6.93198052 8.80698052,6.93198052 L3.55698052,6.93198052 C3.34987373,6.93198052 3.18198052,6.7640873 3.18198052,6.55698052 L3.18198052,4.30698052 C3.18198052,4.09987373 3.34987373,3.93198052 3.55698052,3.93198052 L4.30698052,3.93198052 Z" id="Check" stroke="#FFFFFF" stroke-width="0.5" fill="#FFFFFF" transform="translate(6.181981, 5.431981) rotate(-45.000000) translate(-6.181981, -5.431981) "></path>
                        </g>
                    </g>
                </g>
            </g>
        </g>
    </g>
</svg>