<svg id="powerpoint" xmlns="http://www.w3.org/2000/svg" viewBox="0 0 16 16"><title>PowerPoint_16x</title><path d="M5.138,7.713H4.432V6.179h.742c.744,0,.844.375.844.742a.766.766,0,0,1-.206.593A.968.968,0,0,1,5.138,7.713ZM16,8A8,8,0,0,1,1.76,13H1a1,1,0,0,1-1-1V4A1,1,0,0,1,1,3h.76A8,8,0,0,1,16,8ZM9,3a1,1,0,0,1,1,1V8h5A7,7,0,0,0,9,1.08ZM3.11,3H8V1A6.976,6.976,0,0,0,3.11,3Zm1.322,8.25V9.129h.832a2.737,2.737,0,0,0,1.259-.281,2.086,2.086,0,0,0,.863-.805,2.279,2.279,0,0,0,.3-1.168A2.01,2.01,0,0,0,7.063,5.3,2.519,2.519,0,0,0,5.336,4.75H2.822v6.5ZM15,9H10v3a1,1,0,0,1-1.009.991h-6A7.267,7.267,0,0,0,8,15,7.086,7.086,0,0,0,15,9Z" fill="currentColor"/></svg>