<?xml version="1.0" encoding="UTF-8"?>
<svg id="full_folder" viewBox="0 0 30 28" version="1.1" xmlns="http://www.w3.org/2000/svg" xmlns:xlink="http://www.w3.org/1999/xlink">
    <title>Docrio / Icon / Docrio Folder / v5 Final / Full 4</title>
    <g id="Docrio-/-Icon-/-Docrio-Folder-/-v5-Final-/-Full-4" stroke="none" stroke-width="1" fill="none" fill-rule="evenodd">
        <g id="Group" transform="translate(0.000000, 3.000000)">
            <g id="Group-2" fill="#F2CA65">
                <path d="M0,0.5 C-3.38176876e-17,0.223857625 0.223857625,5.07265313e-17 0.5,0 L6,0 C6.27614237,-5.07265313e-17 6.5,0.223857625 6.5,0.5 L6.5,2 L27.37,2 C27.7179394,2 28,2.28206061 28,2.63 L28,22 L0,22 L0,0.5 Z" id="Combined-Shape"></path>
            </g>
            <g id="Group-2" transform="translate(1.000000, 4.000000)">
                <g id="Rectangle-Copy-3">
                    <path d="M0.777777778,0 L26.2222222,0 C26.651777,-2.09753678e-15 27,0.348222972 27,0.777777778 L27,18 L27,18 L0,18 L0,0.777777778 C-5.26052918e-17,0.348222972 0.348222972,9.67086357e-16 0.777777778,0 Z" fill="#ECEBEA"></path>
                    <path d="M1.27777778,0.5 L20.5,0.5 L20.5,0.5 L20.5,18 L0.5,18 L0.5,1.27777778 C0.5,0.848222972 0.848222972,0.5 1.27777778,0.5 Z" fill="#FFFFFF"></path>
                    <path d="M19.5,0.5 L25.7222222,0.5 C26.151777,0.5 26.5,0.848222972 26.5,1.27777778 L26.5,18 L26.5,18 L19.5,18 L19.5,0.5 Z" fill="#005FB2"></path>
                </g>
                <path d="M0.892391119,5.75 L19,5.75 L19,5.75 L17.5537832,17.5607706 C17.523077,17.811538 17.3101304,18 17.05749,18 L7.5,18 L7.5,18 L0.465965467,6.51107693 C0.32177666,6.27556855 0.395805805,5.96776315 0.631314189,5.82357435 C0.709898052,5.77546178 0.800248606,5.75 0.892391119,5.75 Z" id="Rectangle" fill="#DCA721" transform="translate(9.500000, 11.875000) scale(-1, -1) translate(-9.500000, -11.875000) "></path>
                <path d="M8.41862367,4 L28.4234952,4 C28.6996375,4 28.9234952,4.22385763 28.9234952,4.5 C28.9234952,4.52365943 28.9218159,4.54728903 28.9184699,4.57071068 L27,18 L27,18 L5.5,18 L7.92640988,4.41210468 C7.96899274,4.17364068 8.17638746,4 8.41862367,4 Z" id="Rectangle" fill="#DCA721"></path>
            </g>
        </g>
    </g>
</svg>