<svg id="zip" width="23" height="29" viewBox="0 0 23 29" fill="none" xmlns="http://www.w3.org/2000/svg">
<path fill-rule="evenodd" clip-rule="evenodd" d="M2.0867 0.0595703C0.986701 0.0595703 0.0831299 1.10095 0.0831299 2.15219V20.0596C0.0831299 20.0596 22.0831 20.0596 22.0831 20.0596V7.06126L15.2081 0.0595703H2.0867Z" fill="#ECEBEA"/>
<path opacity="0.248582" fill-rule="evenodd" clip-rule="evenodd" d="M15.2081 0.0595703V4.76036C15.2081 5.88949 15.9301 7.06243 17.2622 7.05957H22.0831L15.2081 0.0595703Z" fill="#ECEBEA"/>
<path fill-rule="evenodd" clip-rule="evenodd" d="M20.2594 20.0596H22.0831V21.8833V22.3453V26.2358C22.0831 27.2431 21.2666 28.0596 20.2594 28.0596H1.90687C0.899645 28.0596 0.0831299 27.2431 0.0831299 26.2358V22.3453V21.8833V20.0596H1.90687H20.2594Z" fill="#747474"/>
<path fill-rule="evenodd" clip-rule="evenodd" d="M22.0831 7.06106V7.40921H17.3907C17.517 7.40921 15.2064 7.4817 15.2081 4.60938C15.2081 4.60938 15.2809 7.06106 17.3907 7.06106H22.0831Z" fill="#C9C7C5"/>
<path d="M9.78237 23.0346L7.99737 25.5146H9.82737V26.0596H7.21237V25.5046L8.98237 23.0446H7.27237V22.5196H9.78237V23.0346ZM11.321 25.5646H11.736V26.0596H10.266V25.5646H10.681V22.9996H10.266V22.5196H11.736V22.9996H11.321V25.5646ZM14.9842 23.7046C14.9842 23.9679 14.9226 24.1912 14.7992 24.3746C14.6759 24.5579 14.5126 24.6946 14.3092 24.7846C14.1092 24.8712 13.8892 24.9146 13.6492 24.9146H13.0292V26.0596H12.3742V22.5196H13.6492C14.0492 22.5196 14.3709 22.6179 14.6142 22.8146C14.8609 23.0079 14.9842 23.3046 14.9842 23.7046ZM13.0242 23.0446V24.3846H13.5892C13.7959 24.3846 13.9692 24.3296 14.1092 24.2196C14.2492 24.1062 14.3192 23.9362 14.3192 23.7096C14.3192 23.4729 14.2509 23.3029 14.1142 23.1996C13.9776 23.0962 13.8042 23.0446 13.5942 23.0446H13.0242Z" fill="#FAFAF9"/>
<path fill-rule="evenodd" clip-rule="evenodd" d="M10.5954 0.517578H11.578V2.81684H12.2887C12.5605 2.81684 12.7905 3.0259 12.7905 3.29767C12.7905 3.56944 12.5605 3.7785 12.2887 3.7785H11.578V5.59819H12.2887C12.5605 5.59819 12.7905 5.82815 12.7905 6.09992C12.7905 6.35079 12.5605 6.58075 12.2887 6.58075H11.578V8.39887H12.2887C12.5605 8.39887 12.7905 8.60793 12.7905 8.8797C12.7905 9.15147 12.5605 9.38143 12.2887 9.38143H11.578V10.6776H12.5814C12.8532 10.6776 13.0831 10.9076 13.0831 11.1793V12.4128C13.0831 12.8727 12.8741 13.3117 12.5814 13.6253C12.2678 13.918 11.8288 14.127 11.348 14.127H10.8253C10.3654 14.127 9.9264 13.918 9.61282 13.6253C9.29923 13.3117 9.11108 12.8727 9.11108 12.4128V11.1793C9.11108 10.9076 9.32014 10.6776 9.59191 10.6776H10.5954V9.38143H9.88461C9.61283 9.38143 9.40378 9.15147 9.40378 8.8797C9.40378 8.60793 9.61283 8.39887 9.88461 8.39887H10.5954V6.58075H9.88461C9.61283 6.58075 9.40378 6.35079 9.40378 6.09992C9.40378 5.82815 9.61283 5.59819 9.88461 5.59819H10.5954V3.7785H9.88461C9.61283 3.7785 9.40378 3.56944 9.40378 3.29767C9.40378 3.0259 9.61283 2.81684 9.88461 2.81684H10.5954V0.517578ZM11.088 11.6602H10.0936V12.4128C10.0936 12.6009 10.1773 12.7891 10.3027 12.9354C10.4281 13.0608 10.6163 13.1445 10.8253 13.1445H11.348C11.557 13.1445 11.7452 13.0608 11.8915 12.9354C12.017 12.7891 12.1006 12.6009 12.1006 12.4128V11.6602H11.1062C11.1032 11.6602 11.1002 11.6602 11.0971 11.6602C11.0941 11.6602 11.0911 11.6602 11.088 11.6602Z" fill="#747474"/>
</svg>
