<?xml version="1.0" encoding="UTF-8"?>
<svg id="audio" width="22px" height="28px" viewBox="0 0 22 28" version="1.1" xmlns="http://www.w3.org/2000/svg" xmlns:xlink="http://www.w3.org/1999/xlink">
    <title>Docrio / Icons / File Type / Audio </title>
    <g id="Docrio-/-Icons-/-File-Type-/-Audio-" stroke="none" stroke-width="1" fill="none" fill-rule="evenodd">
        <g id="Base">
            <g id="Group">
                <path d="M2.00357143,0 C0.903571429,0 -2.13162821e-14,1.04137681 -2.13162821e-14,2.09262022 L-2.13162821e-14,20 C-2.13162821e-14,20 22,20 22,20 L22,7.00168762 L15.125,0 L2.00357143,0 Z" id="Shape" fill="#E9E9E9"></path>
                <path d="M15.125,0 L15.125,4.70078554 C15.125,5.82992302 15.8469612,7.0028559 17.1790981,6.99999478 L22,6.99999478 L15.125,0 Z" id="Shape" fill="#FFFFFF" opacity="0.248581659"></path>
            </g>
            <path d="M22,26.1762615 C22,27.1834845 21.1834845,28 20.1762615,28 L1.82373846,28 C0.816515522,28 1.01152765e-15,27.1834845 0,26.1762615 L0,20 L22,20 L22,26.1762615 Z" id="BG" fill="#942E63"></path>
            <path d="M22,7.00168762 L22,7.34983264 L17.3075403,7.34983264 C17.4338355,7.34983264 15.1233047,7.42232176 15.1250009,4.55 C15.1250009,4.55 15.1977522,7.00168762 17.3075403,7.00168762 L22,7.00168762 Z" id="Shape" fill="#CDCACA"></path>
        </g>
        <text id="AUDIO" font-family="SalesforceSans-Bold, Salesforce Sans" font-size="5" font-weight="bold" line-spacing="7" fill="#FFFFFF">
            <tspan x="2.6175" y="25.75">AUDIO</tspan>
        </text>
        <g id="Group-" transform="translate(6.000000, 6.000000)" fill="#942E63">
            <path d="M5.64766271,-0.870522076 L5.91427744,-0.868319928 C6.33367898,-0.864855814 6.67300264,-0.526058498 6.67711782,-0.106662841 L6.73284753,5.57300033 C6.73701586,5.9978143 6.3960152,6.34557318 5.97120123,6.34974152 C5.96656775,6.34978698 5.96193396,6.34979058 5.95730041,6.34975231 L5.69068568,6.34755016 C5.27128414,6.34408604 4.93196048,6.00528873 4.92784531,5.58589307 L4.8721156,-0.0937700998 C4.86794726,-0.518584073 5.20894792,-0.866342948 5.6337619,-0.870511286 C5.63839537,-0.87055675 5.64302917,-0.870560347 5.64766271,-0.870522076 Z" id="Rectangle" transform="translate(5.802482, 2.739615) rotate(72.000000) translate(-5.802482, -2.739615) "></path>
            <rect id="Rectangle" x="2.22727273" y="2.91911533" width="1.17272727" height="7.38461538" rx="0.586363636"></rect>
            <ellipse id="Oval" cx="1.70454545" cy="9.72680763" rx="1.70454545" ry="1.73076923"></ellipse>
            <rect id="Rectangle" x="8.13636364" y="0.842192249" width="1.17272727" height="7.38461538" rx="0.586363636"></rect>
            <ellipse id="Oval" cx="7.61363636" cy="7.64988456" rx="1.70454545" ry="1.73076923"></ellipse>
        </g>
    </g>
</svg>