<svg width="102" height="20" viewBox="0 0 102 20" fill="none" xmlns="http://www.w3.org/2000/svg" id="shared_to_docrio">
<g clip-path="url(#clip0_597_30660)">
<path d="M91.9672 0H10.0328C4.49183 0 0 4.47715 0 10C0 15.5228 4.49183 20 10.0328 20H91.9672C97.5082 20 102 15.5228 102 10C102 4.47715 97.5082 0 91.9672 0Z" fill="#ECEBEA"/>
<path fill-rule="evenodd" clip-rule="evenodd" d="M29.4552 13.8143V13.8784C29.4552 14.1348 29.2623 14.3271 29.0049 14.3271C28.8764 14.3271 28.7799 14.2951 28.6834 14.1989C28.6834 14.1989 25.4356 10.7053 21.4482 11.763V15.2887C21.4482 15.5451 21.2553 15.7374 20.9981 15.7374C20.9016 15.7374 20.8373 15.7053 20.7729 15.6733L14.3095 10.1925C14.2131 10.0964 14.1487 9.96814 14.1487 9.83994C14.1487 9.71174 14.2131 9.58352 14.2774 9.51942L20.7408 4.29507C20.8051 4.26301 20.9016 4.23096 20.9981 4.23096C21.2553 4.23096 21.4482 4.42327 21.4482 4.67969V7.98096C21.4804 7.98096 27.8473 7.01942 29.4552 13.8143Z" fill="#706E6B"/>
<path d="M37.5268 15V6.51515H40.8853C41.5309 6.51515 42.081 6.63807 42.5355 6.88389C42.9898 7.12694 43.3363 7.46529 43.5746 7.89892C43.8157 8.32979 43.9362 8.82694 43.9362 9.39039C43.9362 9.95384 43.8143 10.451 43.5704 10.8819C43.3266 11.3127 42.9733 11.6483 42.5104 11.8886C42.0504 12.1289 41.4934 12.2491 40.8396 12.2491H38.699V10.8114H40.5485C40.895 10.8114 41.1804 10.7521 41.4048 10.6333C41.632 10.5118 41.8011 10.3447 41.912 10.132C42.0255 9.91655 42.0824 9.66935 42.0824 9.39039C42.0824 9.10867 42.0255 8.86285 41.912 8.65294C41.8011 8.44027 41.632 8.27592 41.4048 8.15992C41.1776 8.04115 40.8895 7.98177 40.5403 7.98177H39.3265V15H37.5268ZM53.764 10.7576C53.764 11.6829 53.5879 12.47 53.2361 13.1191C52.887 13.7682 52.4103 14.2639 51.8063 14.6064C51.2048 14.9461 50.5288 15.116 49.7778 15.116C49.0214 15.116 48.3425 14.9448 47.741 14.6023C47.1397 14.2598 46.6645 13.764 46.3154 13.1149C45.9662 12.4659 45.7916 11.6801 45.7916 10.7576C45.7916 9.8323 45.9662 9.04514 46.3154 8.39607C46.6645 7.747 47.1397 7.2526 47.741 6.91289C48.3425 6.57039 49.0214 6.39915 49.7778 6.39915C50.5288 6.39915 51.2048 6.57039 51.8063 6.91289C52.4103 7.2526 52.887 7.747 53.2361 8.39607C53.5879 9.04514 53.764 9.8323 53.764 10.7576ZM51.9392 10.7576C51.9392 10.1582 51.8491 9.65279 51.669 9.24124C51.4918 8.8297 51.2409 8.51761 50.9167 8.30492C50.5925 8.09226 50.2129 7.98592 49.7778 7.98592C49.3427 7.98592 48.9632 8.09226 48.6389 8.30492C48.3147 8.51761 48.0626 8.8297 47.8825 9.24124C47.7051 9.65279 47.6164 10.1582 47.6164 10.7576C47.6164 11.3569 47.7051 11.8624 47.8825 12.2739C48.0626 12.6855 48.3147 12.9976 48.6389 13.2102C48.9632 13.4229 49.3427 13.5292 49.7778 13.5292C50.2129 13.5292 50.5925 13.4229 50.9167 13.2102C51.2409 12.9976 51.4918 12.6855 51.669 12.2739C51.8491 11.8624 51.9392 11.3569 51.9392 10.7576ZM55.9333 15V6.51515H59.2918C59.9347 6.51515 60.4833 6.62977 60.9378 6.85902C61.395 7.0855 61.7428 7.40729 61.981 7.82434C62.2222 8.23864 62.3427 8.72614 62.3427 9.28682C62.3427 9.85027 62.2208 10.335 61.9769 10.741C61.7331 11.1443 61.3797 11.4536 60.9171 11.669C60.4571 11.8845 59.9001 11.9922 59.2461 11.9922H56.9973V10.5504H58.9552C59.2986 10.5504 59.584 10.5035 59.8113 10.4096C60.0385 10.3157 60.2076 10.1748 60.3184 9.98699C60.432 9.79917 60.4888 9.56577 60.4888 9.28682C60.4888 9.00509 60.432 8.76755 60.3184 8.57422C60.2076 8.38089 60.0372 8.2345 59.8071 8.13507C59.58 8.03287 59.2931 7.98177 58.9468 7.98177H57.733V15H55.9333ZM60.5305 11.1387L62.6461 15H60.6592L58.5893 11.1387H60.5305ZM64.1264 7.99421V6.51515H71.1177V7.99421H68.5117V15H66.7326V7.99421H64.1264ZM73.5323 15H71.6037L74.5424 6.51515H76.8618L79.7963 15H77.8676L75.7353 8.45407H75.6688L73.5323 15ZM73.4117 11.6649H77.9675V13.0652H73.4117V11.6649ZM81.657 15V6.51515H83.4567V13.521H87.1063V15H81.657Z" fill="#080707"/>
</g>
<defs>
<clipPath id="clip0_597_30660">
<rect width="102" height="20" fill="white"/>
</clipPath>
</defs>
</svg>
