<svg id="excel" width="26" height="28" viewBox="0 0 26 28" fill="none" xmlns="http://www.w3.org/2000/svg">
<path d="M22.7451 11.4951H18.9951V9.00488H22.7451M22.7451 15.2451H18.9951V12.7549H22.7451M22.7451 18.9951H18.9951V16.5049H22.7451M17.75 11.4951H16.5049V9.00488H17.75M17.75 15.2451H16.5049V12.7549H17.75M17.75 18.9951H16.5049V16.5049H17.75M24.8838 6.5C25.1279 6.74414 25.25 7.03711 25.25 7.37891V26.4951C25.25 26.6709 25.2207 26.8369 25.1621 26.9932C25.0938 27.1396 25.0059 27.2715 24.8984 27.3887C24.7812 27.4961 24.6494 27.584 24.5029 27.6523C24.3467 27.7207 24.1807 27.7549 24.0049 27.7549H5.25488C5.0791 27.7549 4.91797 27.7207 4.77148 27.6523C4.61523 27.584 4.4834 27.4961 4.37598 27.3887C4.25879 27.2715 4.16602 27.1396 4.09766 26.9932C4.0293 26.8369 3.99512 26.6709 3.99512 26.4951V21.5H1.63672C1.44141 21.5 1.26074 21.4658 1.09473 21.3975C0.928711 21.3193 0.782227 21.2168 0.655273 21.0898C0.52832 20.9629 0.430664 20.8164 0.362305 20.6504C0.28418 20.4844 0.245117 20.3037 0.245117 20.1084V7.8916C0.245117 7.70605 0.28418 7.53027 0.362305 7.36426C0.430664 7.18848 0.52832 7.03711 0.655273 6.91016C0.782227 6.7832 0.928711 6.68555 1.09473 6.61719C1.26074 6.53906 1.44141 6.5 1.63672 6.5H3.99512V1.50488C3.99512 1.3291 4.0293 1.16797 4.09766 1.02148C4.16602 0.865234 4.25879 0.733398 4.37598 0.625977C4.4834 0.508789 4.61523 0.416016 4.77148 0.347656C4.91797 0.279297 5.0791 0.245117 5.25488 0.245117H18.1162C18.458 0.245117 18.751 0.367188 18.9951 0.611328M18.9951 6.5H23.1113L18.9951 2.38379M5.79688 18.585L7.56934 15.3623C7.61816 15.2744 7.66211 15.1963 7.70117 15.1279C7.73047 15.0596 7.75977 15.001 7.78906 14.9521C7.82813 15.0303 7.8623 15.1084 7.8916 15.1865C7.9209 15.2549 7.95508 15.3184 7.99414 15.377L9.70801 18.585H11.8467L8.99023 13.9561L11.7734 9.41504H9.7666L8.18457 12.3154C8.12598 12.4229 8.07227 12.5303 8.02344 12.6377C7.97461 12.7451 7.92578 12.8525 7.87695 12.96L6.08984 9.41504H3.90723L6.61719 13.9854L3.6582 18.585M24.0049 7.74512H18.9951C18.6533 7.74512 18.3604 7.62305 18.1162 7.37891C17.8721 7.13477 17.75 6.8418 17.75 6.5V1.50488H5.25488V6.5H13.8682C14.0537 6.5 14.2344 6.53906 14.4102 6.61719C14.5762 6.68555 14.7227 6.7832 14.8496 6.91016C14.9668 7.03711 15.0645 7.18848 15.1426 7.36426C15.2109 7.53027 15.2451 7.70605 15.2451 7.8916V20.1084C15.2451 20.3037 15.2109 20.4844 15.1426 20.6504C15.0645 20.8164 14.9668 20.9629 14.8496 21.0898C14.7227 21.2168 14.5762 21.3193 14.4102 21.3975C14.2344 21.4658 14.0537 21.5 13.8682 21.5H5.25488V26.4951H24.0049V7.74512Z" fill="black"/>
<path d="M4.625 26.4951V1.50488C4.625 1.3291 4.68848 1.18262 4.81543 1.06543C4.93262 0.938477 5.0791 0.875 5.25488 0.875H18.1162C18.2725 0.875 18.4189 0.933594 18.5557 1.05078L24.4443 6.93945C24.5615 7.05664 24.6201 7.20312 24.6201 7.37891V26.4951C24.6201 26.6709 24.5615 26.8223 24.4443 26.9492C24.3174 27.0664 24.1709 27.125 24.0049 27.125H5.25488C5.0791 27.125 4.93262 27.0664 4.81543 26.9492C4.68848 26.8223 4.625 26.6709 4.625 26.4951Z" fill="#FAFAFA"/>
<path d="M24.8838 6.5C25.1279 6.74414 25.25 7.03711 25.25 7.37891V26.4951C25.25 26.6709 25.2207 26.8369 25.1621 26.9932C25.0938 27.1396 25.0059 27.2715 24.8984 27.3887C24.7812 27.4961 24.6494 27.584 24.5029 27.6523C24.3467 27.7207 24.1807 27.7549 24.0049 27.7549H5.25488C5.0791 27.7549 4.91797 27.7207 4.77148 27.6523C4.61523 27.584 4.4834 27.4961 4.37598 27.3887C4.25879 27.2715 4.16602 27.1396 4.09766 26.9932C4.0293 26.8369 3.99512 26.6709 3.99512 26.4951V1.50488C3.99512 1.3291 4.0293 1.16797 4.09766 1.02148C4.16602 0.865234 4.25879 0.733398 4.37598 0.625977C4.4834 0.508789 4.61523 0.416016 4.77148 0.347656C4.91797 0.279297 5.0791 0.245117 5.25488 0.245117H18.1162C18.458 0.245117 18.751 0.367188 18.9951 0.611328M18.9951 6.5H23.1113L18.9951 2.38379M24.0049 26.4951V7.74512H18.9951C18.6533 7.74512 18.3604 7.62305 18.1162 7.37891C17.8721 7.13477 17.75 6.8418 17.75 6.5V1.50488H5.25488V26.4951H24.0049Z" fill="#797774"/>
<path d="M17.75 11.4951H16.5049V9.00488H17.75V11.4951Z" fill="#21A366"/>
<path d="M17.75 15.2451H16.5049V12.7549H17.75V15.2451Z" fill="#107C41"/>
<path d="M17.75 18.9951H16.5049V16.5049H17.75V18.9951Z" fill="#185C37"/>
<path d="M22.7451 11.4951H18.9951V9.00488H22.7451V11.4951Z" fill="#33C481"/>
<path d="M22.7451 15.2451H18.9951V12.7549H22.7451V15.2451Z" fill="#21A366"/>
<path d="M22.7451 18.9951H18.9951V16.5049H22.7451V18.9951Z" fill="#134A2C"/>
<path d="M13.8682 21.5H1.63672C1.44141 21.5 1.26074 21.4658 1.09473 21.3975C0.928711 21.3193 0.782227 21.2168 0.655273 21.0898C0.52832 20.9629 0.430664 20.8164 0.362305 20.6504C0.28418 20.4844 0.245117 20.3037 0.245117 20.1084V7.8916C0.245117 7.70605 0.28418 7.53027 0.362305 7.36426C0.430664 7.18848 0.52832 7.03711 0.655273 6.91016C0.782227 6.7832 0.928711 6.68555 1.09473 6.61719C1.26074 6.53906 1.44141 6.5 1.63672 6.5H13.8682C14.0537 6.5 14.2344 6.53906 14.4102 6.61719C14.5762 6.68555 14.7227 6.7832 14.8496 6.91016C14.9668 7.03711 15.0645 7.18848 15.1426 7.36426C15.2109 7.53027 15.2451 7.70605 15.2451 7.8916V20.1084C15.2451 20.3037 15.2109 20.4844 15.1426 20.6504C15.0645 20.8164 14.9668 20.9629 14.8496 21.0898C14.7227 21.2168 14.5762 21.3193 14.4102 21.3975C14.2344 21.4658 14.0537 21.5 13.8682 21.5Z" fill="#107C41"/>
<path d="M3.6582 18.585L6.61719 13.9854L3.90723 9.41504H6.08984L7.87695 12.96C7.92578 12.8525 7.97461 12.7451 8.02344 12.6377C8.07227 12.5303 8.12598 12.4229 8.18457 12.3154L9.7666 9.41504H11.7734L8.99023 13.9561L11.8467 18.585H9.70801L7.99414 15.377C7.95508 15.3184 7.9209 15.2549 7.8916 15.1865C7.8623 15.1084 7.82813 15.0303 7.78906 14.9521C7.75977 15.001 7.73047 15.0596 7.70117 15.1279C7.66211 15.1963 7.61816 15.2744 7.56934 15.3623L5.79688 18.585H3.6582Z" fill="white"/>
</svg>
