<?xml version="1.0" encoding="UTF-8"?>
<svg width="250px" height="47px" viewBox="0 0 250 47" version="1.1" xmlns="http://www.w3.org/2000/svg" xmlns:xlink="http://www.w3.org/1999/xlink">
    <title>Group 7 Copy</title>
    <defs>
        <rect id="path-1" x="0" y="0" width="242" height="39"></rect>
        <filter x="-2.9%" y="-12.8%" width="105.8%" height="135.9%" filterUnits="objectBoundingBox" id="filter-3">
            <feOffset dx="0" dy="2" in="SourceAlpha" result="shadowOffsetOuter1"></feOffset>
            <feGaussianBlur stdDeviation="2" in="shadowOffsetOuter1" result="shadowBlurOuter1"></feGaussianBlur>
            <feColorMatrix values="0 0 0 0 0   0 0 0 0 0   0 0 0 0 0  0 0 0 0.5 0" type="matrix" in="shadowBlurOuter1"></feColorMatrix>
        </filter>
        <path d="M2.95384615,0.923076923 C3.3,0.923076923 3.6,1.10769231 3.76153846,1.38461538 L3.76153846,1.38461538 L4.56923077,2.76923077 C4.75384615,3.04615385 5.05384615,3.23076923 5.37692308,3.23076923 L5.37692308,3.23076923 L10.6153846,3.23076923 C11.1230769,3.23076923 11.5384615,3.64615385 11.5384615,4.15384615 L11.5384615,4.15384615 L11.5384615,10.1538462 C11.5384615,10.6615385 11.1230769,11.0769231 10.6153846,11.0769231 L10.6153846,11.0769231 L1.38461538,11.0769231 C0.876923077,11.0769231 0.461538462,10.6615385 0.461538462,10.1538462 L0.461538462,10.1538462 L0.461538462,1.84615385 C0.461538462,1.33846154 0.876923077,0.923076923 1.38461538,0.923076923 L1.38461538,0.923076923 Z M10.6153846,1.38461538 C11.1230769,1.38461538 11.5384615,1.8 11.5384615,2.30769231 L11.5384615,2.30769231 L11.5318009,2.35411527 C11.5059655,2.44050235 11.4098901,2.48571429 11.3307692,2.44615385 C11.1230769,2.35384615 10.8692308,2.30769231 10.6153846,2.30769231 L10.6153846,2.30769231 L5.53846154,2.30769231 C5.44615385,2.30769231 5.37692308,2.26153846 5.33076923,2.16923077 L5.33076923,2.16923077 L4.96153846,1.54615385 C4.91538462,1.47692308 4.96153846,1.38461538 5.05384615,1.38461538 L5.05384615,1.38461538 Z" id="path-4"></path>
    </defs>
    <g id="211007-EM-224:-Docrio-Settings" stroke="none" stroke-width="1" fill="none" fill-rule="evenodd">
        <g id="Group-7-Copy" transform="translate(4.000000, 2.000000)">
            <mask id="mask-2" fill="white">
                <use xlink:href="#path-1"></use>
            </mask>
            <g id="Mask">
                <use fill="black" fill-opacity="1" filter="url(#filter-3)" xlink:href="#path-1"></use>
                <use fill="#FFFFFF" fill-rule="evenodd" xlink:href="#path-1"></use>
            </g>
            <g id="Group" mask="url(#mask-2)">
                <g id="Previews---Display-Field">
                    <rect id="Rectangle" stroke="#F3F2F1" fill="#FFFFFF" x="0.5" y="0.5" width="241" height="38"></rect>
                    <g id="Panel-/-Contents-/-Email-File-Ready" transform="translate(0.000000, 1.000000)">
                        <polygon id="Rectangle-4-Copy" fill="#FFFFFF" fill-rule="nonzero" points="1 0 241 0 241 36 1 36"></polygon>
                        <g id="Group-4" transform="translate(40.000000, 6.000000)" font-family="Helvetica" font-weight="normal">
                            <g id="Group" transform="translate(0.000000, 14.000000)" fill="#080707" font-size="7.5" line-spacing="12">
                                <text id="Folder:">
                                    <tspan x="0" y="8">Folder:</tspan>
                                </text>
                                <text id="Stored-Emails-Files">
                                    <tspan x="26" y="8">Stored Emails Files</tspan>
                                </text>
                            </g>
                            <text id="Updated-expenses-for" font-size="9.75" line-spacing="15" fill="#000000">
                                <tspan x="0" y="10">Updated expenses for 2021.eml</tspan>
                            </text>
                        </g>
                        <g id="Utility-Icons-/-open_folder" transform="translate(197.000000, 12.000000)">
                            <mask id="mask-5" fill="white">
                                <use xlink:href="#path-4"></use>
                            </mask>
                            <use id="🎨-Icon-Color" fill="#1B1B1B" xlink:href="#path-4"></use>
                        </g>
                        <polygon id="Rectangle-5-Copy-4" fill="#F4F6F9" points="0 36 241 36 241 37 0 37"></polygon>
                        <g id="Group" transform="translate(4.000000, 0.000000)">
                            <g id="Doc-Icon-/-Pane-Row-/-Image" transform="translate(9.000000, 6.750000)">
                                <g id="Group" transform="translate(0.000000, 0.000000)">
                                    <path d="M1.63928571,0 C0.739285714,0 0,0.83682065 0,1.68156982 L0,16.0714286 C0,16.0714286 18,16.0714286 18,16.0714286 L18,5.62635612 L12.375,0 L1.63928571,0 Z" id="Shape" fill="#E9E9E9"></path>
                                    <path d="M12.375,0 L12.375,3.77741695 C12.375,4.68475957 12.9656955,5.62729492 14.0556257,5.6249958 L18,5.6249958 L12.375,0 Z" id="Shape" fill="#FFFFFF" opacity="0.248581659"></path>
                                </g>
                                <path d="M18,21.5052336 C18,22.0546279 17.5546279,22.5 17.0052336,22.5 L0.994766435,22.5 C0.445372103,22.5 -2.65785506e-16,22.0546279 0,21.5052336 L0,16.0714286 L18,16.0714286 L18,21.5052336 Z" id="BG" fill="#2E5794"></path>
                                <path d="M18,5.62635612 L18,5.90611552 L14.1607148,5.90611552 C14.2640472,5.90611552 12.3736129,5.9643657 12.3750008,3.65625 C12.3750008,3.65625 12.4345246,5.62635612 14.1607148,5.62635612 L18,5.62635612 Z" id="Shape" fill="#CDCACA"></path>
                                <path d="M4.82318182,20.8963636 L4.82318182,20.4586364 L3.46090909,20.4586364 L3.46090909,19.6159091 L4.56545455,19.6159091 L4.56545455,19.2027273 L3.46090909,19.2027273 L3.46090909,18.4295455 L4.75363636,18.4295455 L4.75363636,18 L2.925,18 L2.925,20.8963636 L4.82318182,20.8963636 Z M5.74772727,20.8963636 L5.73136364,18.6177273 L5.73954545,18.6177273 L6.61909091,20.8963636 L7.02,20.8963636 L7.91181818,18.6177273 L7.92,18.6177273 L7.90772727,20.8963636 L8.43136364,20.8963636 L8.43136364,18 L7.64181818,18 L6.83181818,20.16 L6.82363636,20.16 L6.03409091,18 L5.24863636,18 L5.24863636,20.8963636 L5.74772727,20.8963636 Z M9.30681818,20.8963636 L9.54,20.2704545 L10.7181818,20.2704545 L10.9390909,20.8963636 L11.52,20.8963636 L10.4113636,18 L9.85909091,18 L8.74636364,20.8963636 L9.30681818,20.8963636 Z M10.5790909,19.8613636 L9.68318182,19.8613636 L10.1331818,18.5481818 L10.5790909,19.8613636 Z M12.9109091,20.8963636 L12.9109091,20.4913636 L12.5713636,20.4913636 L12.5713636,18.3927273 L12.9109091,18.3927273 L12.9109091,18 L11.7081818,18 L11.7081818,18.3927273 L12.0477273,18.3927273 L12.0477273,20.4913636 L11.7081818,20.4913636 L11.7081818,20.8963636 L12.9109091,20.8963636 Z M15.2222727,20.8963636 L15.2222727,20.4504545 L13.9704545,20.4504545 L13.9704545,18 L13.4345455,18 L13.4345455,20.8963636 L15.2222727,20.8963636 Z" id="EMAIL" fill="#FFFFFF" fill-rule="nonzero"></path>
                                <g id="Group-5" transform="translate(4.500000, 6.750000)">
                                    <rect id="Rectangle" fill="#2E5794" x="0" y="0.803571429" width="8.18181818" height="4.82142857" rx="0.545454545"></rect>
                                    <path d="M4.16566377,0.876991202 L7.99569623,4.63863022 C8.03773275,4.67991609 8.03834127,4.74746224 7.9970554,4.78949876 C7.97699576,4.80992312 7.94956923,4.82142857 7.92094155,4.82142857 L0.260876631,4.82142857 C0.201956413,4.82142857 0.154192139,4.7736643 0.154192139,4.71474408 C0.154192139,4.6861164 0.165697589,4.65868987 0.186121953,4.63863022 L4.01615441,0.876991202 C4.05765637,0.836230352 4.12416181,0.836230352 4.16566377,0.876991202 Z" id="Triangle" fill="#E9E9E9" transform="translate(4.090909, 2.812500) scale(1, -1) translate(-4.090909, -2.812500) "></path>
                                    <path d="M4.16566377,0.0734197736 L7.99569623,3.8350588 C8.03773275,3.87634467 8.03834127,3.94389081 7.9970554,3.98592733 C7.97699576,4.00635169 7.94956923,4.01785714 7.92094155,4.01785714 L0.260876631,4.01785714 C0.201956413,4.01785714 0.154192139,3.97009287 0.154192139,3.91117265 C0.154192139,3.88254497 0.165697589,3.85511844 0.186121953,3.8350588 L4.01615441,0.0734197736 C4.05765637,0.0326589237 4.12416181,0.0326589237 4.16566377,0.0734197736 Z" id="Triangle" fill="#2E5794" transform="translate(4.090909, 2.008929) scale(1, -1) translate(-4.090909, -2.008929) "></path>
                                </g>
                            </g>
                        </g>
                        <g id="Icon-/-Unchecked-Active-New" transform="translate(217.000000, 12.000000)" stroke="#1B1B1B">
                            <rect id="Focus-State" stroke-width="1.05" fill="#FFFFFF" x="0.525" y="0.525" width="10.95" height="10.95" rx="5.475"></rect>
                            <path d="M6.18232201,2.82965676 C6.30823146,2.82471421 6.42863575,2.87561776 6.51530926,2.96229127 C6.59811633,3.04509834 6.6482736,3.15869391 6.6482736,3.27846372 L6.6482736,3.27846372 L6.6482736,5.3517264 L8.72153628,5.3517264 C8.84130609,5.3517264 8.95490166,5.40188367 9.03770873,5.48469074 C9.1205158,5.56749782 9.17067308,5.68109339 9.17067308,5.8008632 L9.17067308,5.8008632 L9.17067308,6.1991368 C9.17067308,6.31890661 9.1205158,6.43250218 9.03770873,6.51530926 C8.95490166,6.59811633 8.84130609,6.6482736 8.72724907,6.64820832 C7.95662926,6.66582249 7.37866199,6.68558975 6.99335172,6.70760748 C6.80727739,6.71824029 6.66770068,6.72921472 6.57466065,6.74091118 L6.648,6.733 L6.6482736,8.72153628 C6.6482736,8.81136364 6.62006014,8.89771798 6.57101917,8.97021518 L6.51530926,9.03770873 C6.43250218,9.1205158 6.31890661,9.17067308 6.1991368,9.17067308 L6.1991368,9.17067308 L5.8008632,9.17067308 C5.68109339,9.17067308 5.56749782,9.1205158 5.48469074,9.03770873 C5.40188367,8.95490166 5.3517264,8.84130609 5.3517264,8.72153628 L5.3517264,8.72153628 L5.3517264,6.6482736 L3.27846372,6.6482736 C3.15869391,6.6482736 3.04509834,6.59811633 2.96229127,6.51530926 C2.8794842,6.43250218 2.82932692,6.31890661 2.82932692,6.1991368 L2.82932692,6.1991368 L2.82932692,5.8008632 C2.82932692,5.68109339 2.8794842,5.56749782 2.96229127,5.48469074 C3.04509834,5.40188367 3.15869391,5.3517264 3.27846372,5.3517264 L3.27846372,5.3517264 L5.3517264,5.3517264 L5.3517264,3.27846372 Z" id="Path" stroke-width="0.5" fill="#1B1B1B"></path>
                        </g>
                    </g>
                </g>
            </g>
        </g>
    </g>
</svg>