<?xml version="1.0" encoding="UTF-8"?>
<svg viewBox="0 0 128 128" version="1.1" xmlns="http://www.w3.org/2000/svg" xmlns:xlink="http://www.w3.org/1999/xlink" id="RequestBlue">
    <title>RequestBlue</title>
    <g id="RequestBlue" stroke="none" stroke-width="1" fill="none" fill-rule="evenodd">
        <g id="Group-2" transform="translate(0.000000, 16.000000)" fill="#0070D2" fill-rule="nonzero">
            <path d="M57.0033083,36.6891643 C59.8380932,36.6891643 62.1361404,38.9872115 62.1361404,41.8219964 L62.1361404,52.5239513 C62.1361404,55.3587362 59.8380932,57.6567834 57.0033083,57.6567834 L-26.8671679,57.6567834 C-29.7019528,57.6567834 -32,55.3587362 -32,52.5239513 L-32,41.924653 C-32,39.0898682 -29.7019528,36.791821 -26.8671679,36.791821 L57.0033083,36.6891643 Z" id="Path" transform="translate(15.068070, 47.172974) rotate(-90.000000) translate(-15.068070, -47.172974) "></path>
            <path d="M82.6183874,3.48165941e-13 C85.4374055,0.0886836471 87.7212889,2.31686256 87.8795403,5.13283208 L87.8795403,5.13283208 L87.8795403,49.7884712 C87.8560786,51.1621047 88.6770323,52.4096835 89.9478558,52.9316289 C91.2186793,53.4535742 92.6795222,53.1431618 93.6283122,52.1495739 L93.6283122,52.1495739 L105.947109,40.1130827 C106.912803,39.1254605 108.235794,38.568739 109.617084,38.568739 C110.998374,38.568739 112.321366,39.1254605 113.287059,40.1130827 L113.287059,40.1130827 L120.627009,47.1707268 C121.628517,48.0757684 122.200025,49.3625221 122.200025,50.712381 C122.200025,52.0622398 121.628517,53.3489935 120.627009,54.2540351 L120.627009,54.2540351 L81.0528736,92.7502757 C80.0871801,93.7378979 78.7641885,94.2946194 77.3828986,94.2946194 C76.0016088,94.2946194 74.6786172,93.7378979 73.7129237,92.7502757 L73.7129237,92.7502757 L34.39543,54.2540351 C33.3939218,53.3489935 32.8224135,52.0622398 32.8224135,50.712381 C32.8224135,49.3625221 33.3939218,48.0757684 34.39543,47.1707268 L34.39543,47.1707268 L41.5557307,40.1130827 C42.5214242,39.1254605 43.8444158,38.568739 45.2257057,38.568739 C46.6069955,38.568739 47.9299871,39.1254605 48.8956806,40.1130827 L48.8956806,40.1130827 L61.2144776,52.1495739 C62.1632676,53.1431618 63.6241105,53.4535742 64.894934,52.9316289 C66.1657575,52.4096835 66.9867111,51.1621047 66.9632495,49.7884712 L66.9632495,49.7884712 L66.9632495,5.13283208 C67.207332,2.30712771 69.5184794,0.106035004 72.3527232,3.48165941e-13 L82.6183874,3.48165941e-13 Z" id="Path" transform="translate(77.511219, 47.147310) rotate(-90.000000) translate(-77.511219, -47.147310) "></path>
        </g>
    </g>
</svg>