<?xml version="1.0" encoding="UTF-8"?>
<svg width="20px" height="33px" viewBox="0 0 20 33" version="1.1" xmlns="http://www.w3.org/2000/svg" xmlns:xlink="http://www.w3.org/1999/xlink">
    <title>Attach</title>
    <defs>
        <path d="M12.2597402,21.4037402 C12.5477402,21.6917402 12.9797402,21.6437402 13.2677402,21.4037402 L18.0677402,16.6037402 C18.4037402,16.2677402 18.9797402,16.2197402 19.4117402,16.6037402 C19.8437402,16.9877402 19.7957402,17.6597402 19.4117402,18.0437402 L13.5077402,23.8517402 C12.2117402,25.1477402 10.0517402,25.1477402 8.75574024,23.8517402 L8.70774024,23.8037402 C7.41174024,22.5077402 7.41174024,20.3477402 8.70774024,19.0517402 L19.1237402,8.63574024 C20.4197402,7.33974024 22.5797402,7.33974024 23.8757402,8.63574024 L23.9237402,8.68374024 C25.2197402,9.97974024 25.2197402,12.1397402 23.9237402,13.4357402 L23.8757402,13.4837402 C23.6357402,13.7237402 23.5877402,14.0597402 23.7797402,14.3477402 C24.0677402,14.8757402 24.3077402,15.4517402 24.4517402,16.0277402 C24.5477402,16.4117402 24.9797402,16.5077402 25.2677402,16.2677402 C25.6517402,15.8837402 25.9877402,15.4997402 25.9877402,15.4997402 C28.4357402,13.0517402 28.4357402,9.06774024 25.9877402,6.61974024 L25.8917402,6.61974024 C23.4437402,4.17174024 19.4597402,4.17174024 17.0117402,6.61974024 L6.59574024,16.9877402 C4.14774024,19.4357402 4.14774024,23.4197402 6.59574024,25.8677402 L6.69174024,25.9637402 C9.13974024,28.4117402 13.0757402,28.4117402 15.5237402,25.9637402 L21.4757402,20.0597402 C23.0117402,18.5237402 22.9637402,16.0277402 21.3797402,14.4917402 C19.8437402,13.0037402 17.3477402,13.0997402 15.8597402,14.6357402 L11.1557402,19.3397402 C10.8677402,19.6277402 10.8677402,20.1077402 11.1557402,20.3957402 L12.2597402,21.4037402 Z" id="path-1"></path>
    </defs>
    <g id="attach" stroke="none" stroke-width="1" fill="none" fill-rule="evenodd">
        <g id="Icons-/-Utility-Icon" transform="translate(-6.791740, 0.492260)">
            <mask id="mask-2" fill="white">
                <use xlink:href="#path-1"></use>
            </mask>
            <use id="🎨-Icon-Color" fill="#706E6B" transform="translate(16.291740, 16.291740) rotate(-45.000000) translate(-16.291740, -16.291740) " xlink:href="#path-1"></use>
        </g>
    </g>
</svg>