<?xml version="1.0" encoding="UTF-8"?>
<svg width="250px" height="47px" viewBox="0 0 250 47" version="1.1" xmlns="http://www.w3.org/2000/svg" xmlns:xlink="http://www.w3.org/1999/xlink">
    <title>Group 7 Copy</title>
    <defs>
        <rect id="path-1" x="0" y="0" width="242" height="39"></rect>
        <filter x="-2.9%" y="-12.8%" width="105.8%" height="135.9%" filterUnits="objectBoundingBox" id="filter-3">
            <feOffset dx="0" dy="2" in="SourceAlpha" result="shadowOffsetOuter1"></feOffset>
            <feGaussianBlur stdDeviation="2" in="shadowOffsetOuter1" result="shadowBlurOuter1"></feGaussianBlur>
            <feColorMatrix values="0 0 0 0 0   0 0 0 0 0   0 0 0 0 0  0 0 0 0.5 0" type="matrix" in="shadowBlurOuter1"></feColorMatrix>
        </filter>
        <path d="M2.95384615,0.923076923 C3.3,0.923076923 3.6,1.10769231 3.76153846,1.38461538 L3.76153846,1.38461538 L4.56923077,2.76923077 C4.75384615,3.04615385 5.05384615,3.23076923 5.37692308,3.23076923 L5.37692308,3.23076923 L10.6153846,3.23076923 C11.1230769,3.23076923 11.5384615,3.64615385 11.5384615,4.15384615 L11.5384615,4.15384615 L11.5384615,10.1538462 C11.5384615,10.6615385 11.1230769,11.0769231 10.6153846,11.0769231 L10.6153846,11.0769231 L1.38461538,11.0769231 C0.876923077,11.0769231 0.461538462,10.6615385 0.461538462,10.1538462 L0.461538462,10.1538462 L0.461538462,1.84615385 C0.461538462,1.33846154 0.876923077,0.923076923 1.38461538,0.923076923 L1.38461538,0.923076923 Z M10.6153846,1.38461538 C11.1230769,1.38461538 11.5384615,1.8 11.5384615,2.30769231 L11.5384615,2.30769231 L11.5318009,2.35411527 C11.5059655,2.44050235 11.4098901,2.48571429 11.3307692,2.44615385 C11.1230769,2.35384615 10.8692308,2.30769231 10.6153846,2.30769231 L10.6153846,2.30769231 L5.53846154,2.30769231 C5.44615385,2.30769231 5.37692308,2.26153846 5.33076923,2.16923077 L5.33076923,2.16923077 L4.96153846,1.54615385 C4.91538462,1.47692308 4.96153846,1.38461538 5.05384615,1.38461538 L5.05384615,1.38461538 Z" id="path-4"></path>
    </defs>
    <g id="211007-EM-224:-Docrio-Settings" stroke="none" stroke-width="1" fill="none" fill-rule="evenodd">
        <g id="Group-7-Copy" transform="translate(4.000000, 2.000000)">
            <mask id="mask-2" fill="white">
                <use xlink:href="#path-1"></use>
            </mask>
            <g id="Mask">
                <use fill="black" fill-opacity="1" filter="url(#filter-3)" xlink:href="#path-1"></use>
                <use fill="#FFFFFF" fill-rule="evenodd" xlink:href="#path-1"></use>
            </g>
            <g id="Group" mask="url(#mask-2)">
                <g id="Previews---Display-Field">
                    <rect id="Rectangle" stroke="#F3F2F1" fill="#FFFFFF" x="0.5" y="0.5" width="241" height="38"></rect>
                    <g id="Panel-/-Contents-/-Email-File-Ready" transform="translate(0.000000, 1.000000)">
                        <polygon id="Rectangle-4-Copy" fill="#FFFFFF" fill-rule="nonzero" points="1 0 241 0 241 36 1 36"></polygon>
                        <g id="Group-4" transform="translate(40.000000, 6.000000)" font-family="Helvetica" font-weight="normal">
                            <g id="Group" transform="translate(0.000000, 14.000000)" fill="#080707" font-size="7.5" line-spacing="12">
                                <text id="Folder:">
                                    <tspan x="0" y="8">Folder:</tspan>
                                </text>
                                <text id="Case-Costs">
                                    <tspan x="26" y="8">Case Costs</tspan>
                                </text>
                            </g>
                            <text id="Bill-Expenses-2021.x" font-size="9.75" line-spacing="15" fill="#000000">
                                <tspan x="0" y="10">Bill Expenses 2021.xlsx</tspan>
                            </text>
                        </g>
                        <g id="Utility-Icons-/-open_folder" transform="translate(197.000000, 12.000000)">
                            <mask id="mask-5" fill="white">
                                <use xlink:href="#path-4"></use>
                            </mask>
                            <use id="🎨-Icon-Color" fill="#1B1B1B" xlink:href="#path-4"></use>
                        </g>
                        <polygon id="Rectangle-5-Copy-4" fill="#F4F6F9" points="0 36 241 36 241 37 0 37"></polygon>
                        <g id="Group" transform="translate(4.000000, 0.000000)">
                            <g id="Doc-Icon-/-Pane-Row-/-Image" transform="translate(9.000000, 6.750000)">
                                <g id="Group">
                                    <path d="M1.63928571,0 C0.739285714,0 0,0.83682065 0,1.68156982 L0,16.0714286 C0,16.0714286 18,16.0714286 18,16.0714286 L18,5.62635612 L12.375,0 L1.63928571,0 Z" id="Shape" fill="#E9E9E9"></path>
                                    <path d="M12.375,0 L12.375,3.77741695 C12.375,4.68475957 12.9656955,5.62729492 14.0556257,5.6249958 L18,5.6249958 L12.375,0 Z" id="Shape" fill="#FFFFFF" opacity="0.248581659"></path>
                                </g>
                                <path d="M18,21.5052336 C18,22.0546279 17.5546279,22.5 17.0052336,22.5 L0.994766435,22.5 C0.445372103,22.5 -2.65785506e-16,22.0546279 0,21.5052336 L0,16.0714286 L18,16.0714286 L18,21.5052336 Z" id="BG" fill="#28C079"></path>
                                <path d="M18,5.62635612 L18,5.90611552 L14.1607148,5.90611552 C14.2640472,5.90611552 12.3736129,5.9643657 12.3750008,3.65625 C12.3750008,3.65625 12.4345246,5.62635612 14.1607148,5.62635612 L18,5.62635612 Z" id="Shape" fill="#CDCACA"></path>
                                <g id="Group-" transform="translate(4.560577, 5.625000)" fill="#28C079">
                                    <rect id="Rectangle-Copy-" transform="translate(4.197115, 2.410714) scale(1, -1) translate(-4.197115, -2.410714) " x="0.0778846154" y="1.92857143" width="8.23846154" height="1"></rect>
                                    <rect id="Rectangle-Copy-4" transform="translate(4.197115, 4.339286) scale(1, -1) translate(-4.197115, -4.339286) " x="0.0778846154" y="3.85714286" width="8.23846154" height="1"></rect>
                                    <rect id="Rectangle-Copy-5" transform="translate(4.197115, 6.267857) scale(1, -1) translate(-4.197115, -6.267857) " x="0.0778846154" y="5.78571429" width="8.23846154" height="1"></rect>
                                    <rect id="Rectangle-Copy-8" transform="translate(1.774038, 0.482143) scale(1, -1) translate(-1.774038, -0.482143) " x="0.0778846154" y="0" width="3.39230769" height="1"></rect>
                                    <polygon id="Rectangle-Copy-6" transform="translate(8.316346, 4.339286) scale(1, -1) rotate(90.000000) translate(-8.316346, -4.339286) " points="5.90563187 3.85467033 10.7270604 3.85467033 10.7270604 4.8239011 5.90563187 4.8239011"></polygon>
                                    <polygon id="Rectangle-1" transform="translate(2.985577, 3.375000) scale(1, -1) rotate(90.000000) translate(-2.985577, -3.375000) " points="-0.389423077 2.89038462 6.36057692 2.89038462 6.36057692 3.85961538 -0.389423077 3.85961538"></polygon>
                                    <polygon id="Rectangle-3" transform="translate(5.893269, 4.339286) scale(1, -1) rotate(90.000000) translate(-5.893269, -4.339286) " points="3.48255495 3.85467033 8.30398352 3.85467033 8.30398352 4.8239011 3.48255495 4.8239011"></polygon>
                                    <polygon id="Rectangle-" transform="translate(0.562500, 3.375000) scale(1, -1) rotate(90.000000) translate(-0.562500, -3.375000) " points="-2.8125 2.89038462 3.9375 2.89038462 3.9375 3.85961538 -2.8125 3.85961538"></polygon>
                                </g>
                                <path d="M4.41447823,20.8873709 L4.41447823,20.4039372 L2.86109191,20.4039372 L2.86109191,19.4732143 L4.12059433,19.4732143 L4.12059433,19.016889 L2.86109191,19.016889 L2.86109191,18.1629733 L4.33517623,18.1629733 L4.33517623,17.6885757 L2.25,17.6885757 L2.25,20.8873709 L4.41447823,20.8873709 Z M5.22149274,20.8873709 L6.01917761,19.6132745 L6.82619212,20.8873709 L7.53991016,20.8873709 L6.39236351,19.2021299 L7.41862474,17.6885757 L6.72823082,17.6885757 L6.03317208,18.8226119 L5.33811334,17.6885757 L4.63372495,17.6885757 L5.65998618,19.2021299 L4.50777471,20.8873709 L5.22149274,20.8873709 Z M9.38718037,20.9732143 C9.63597097,20.9732143 9.86532481,20.9310456 10.0752419,20.8467083 C10.2851589,20.7623709 10.4600898,20.6524312 10.6000346,20.516889 L10.6000346,20.516889 L10.2315135,20.1283348 C10.1257775,20.2247203 10.0029371,20.3022806 9.8629924,20.3610155 C9.72304768,20.4197504 9.57066344,20.4491179 9.40583967,20.4491179 C9.05442294,20.4491179 8.79319281,20.3429432 8.62214927,20.1305938 C8.45110574,19.9182444 8.36558397,19.6358649 8.36558397,19.2834552 C8.36558397,18.9250215 8.45110574,18.6396299 8.62214927,18.4272806 C8.79319281,18.2149312 9.05908777,18.1087565 9.41983414,18.1087565 C9.5691085,18.1087565 9.7121631,18.1328528 9.84899793,18.1810456 C9.98583276,18.2292384 10.1071182,18.2970095 10.2128542,18.3843589 L10.2128542,18.3843589 L10.5580511,18.0048408 C10.4243262,17.8783348 10.2548376,17.7789372 10.0495853,17.706648 C9.8443331,17.6343589 9.62664133,17.5982143 9.39651002,17.5982143 C9.0450933,17.5982143 8.74421216,17.6682444 8.49386662,17.8083046 C8.24352108,17.9483649 8.05381824,18.144901 7.92475812,18.3979131 C7.795698,18.6509251 7.73116793,18.9461059 7.73116793,19.2834552 C7.73116793,19.6147806 7.79492053,19.9077022 7.92242571,20.1622203 C8.04993089,20.4167384 8.23807878,20.6155336 8.48686938,20.7586059 C8.73565999,20.9016781 9.03576365,20.9732143 9.38718037,20.9732143 Z M13.2263303,20.8873709 L13.2263303,20.4039372 L11.672944,20.4039372 L11.672944,19.4732143 L12.9324464,19.4732143 L12.9324464,19.016889 L11.672944,19.016889 L11.672944,18.1629733 L13.1470283,18.1629733 L13.1470283,17.6885757 L11.0618521,17.6885757 L11.0618521,20.8873709 L13.2263303,20.8873709 Z M15.75,20.8873709 L15.75,20.394901 L14.3225639,20.394901 L14.3225639,17.6885757 L13.711472,17.6885757 L13.711472,20.8873709 L15.75,20.8873709 Z" id="EXCEL" fill="#FFFFFF" fill-rule="nonzero"></path>
                            </g>
                        </g>
                        <g id="Icon-/-Checked-Inactive" transform="translate(217.000000, 12.000000)">
                            <rect id="Focus-State" fill="#DADAD3" x="0" y="3.99680289e-15" width="12" height="12" rx="6"></rect>
                            <path d="M4.30698052,3.93198052 C4.5140873,3.93198052 4.68198052,4.09987373 4.68198052,4.30698052 L4.68198052,5.43198052 L8.80698052,5.43198052 C9.0140873,5.43198052 9.18198052,5.59987373 9.18198052,5.80698052 L9.18198052,6.55698052 C9.18198052,6.7640873 9.0140873,6.93198052 8.80698052,6.93198052 L3.55698052,6.93198052 C3.34987373,6.93198052 3.18198052,6.7640873 3.18198052,6.55698052 L3.18198052,4.30698052 C3.18198052,4.09987373 3.34987373,3.93198052 3.55698052,3.93198052 L4.30698052,3.93198052 Z" id="Check" stroke="#1B1B1B" stroke-width="0.5" fill="#1B1B1B" transform="translate(6.181981, 5.431981) rotate(-45.000000) translate(-6.181981, -5.431981) "></path>
                        </g>
                    </g>
                </g>
            </g>
        </g>
    </g>
</svg>