<?xml version="1.0" encoding="UTF-8"?>
<svg viewBox="0 0 128 128" version="1.1" xmlns="http://www.w3.org/2000/svg" xmlns:xlink="http://www.w3.org/1999/xlink" id="RequestDisabled">
    <title>RequestDisabled</title>
    <g id="RequestDisabled" stroke="none" stroke-width="1" fill="none" fill-rule="evenodd">
        <g id="Group-2" transform="translate(4.000000, 16.000000)" fill="#DDDBDA" fill-rule="nonzero">
            <path d="M53.0033083,36.6891643 C55.8380932,36.6891643 58.1361404,38.9872115 58.1361404,41.8219964 L58.1361404,52.5239513 C58.1361404,55.3587362 55.8380932,57.6567834 53.0033083,57.6567834 L-30.8671679,57.6567834 C-33.7019528,57.6567834 -36,55.3587362 -36,52.5239513 L-36,41.924653 C-36,39.0898682 -33.7019528,36.791821 -30.8671679,36.791821 L53.0033083,36.6891643 Z" id="Path" transform="translate(11.068070, 47.172974) rotate(-90.000000) translate(-11.068070, -47.172974) "></path>
            <path d="M78.6183874,3.41060513e-13 C81.4374055,0.0886836471 83.7212889,2.31686256 83.8795403,5.13283208 L83.8795403,5.13283208 L83.8795403,49.7884712 C83.8560786,51.1621047 84.6770323,52.4096835 85.9478558,52.9316289 C87.2186793,53.4535742 88.6795222,53.1431618 89.6283122,52.1495739 L89.6283122,52.1495739 L101.947109,40.1130827 C102.912803,39.1254605 104.235794,38.568739 105.617084,38.568739 C106.998374,38.568739 108.321366,39.1254605 109.287059,40.1130827 L109.287059,40.1130827 L116.627009,47.1707268 C117.628517,48.0757684 118.200025,49.3625221 118.200025,50.712381 C118.200025,52.0622398 117.628517,53.3489935 116.627009,54.2540351 L116.627009,54.2540351 L77.0528736,92.7502757 C76.0871801,93.7378979 74.7641885,94.2946194 73.3828986,94.2946194 C72.0016088,94.2946194 70.6786172,93.7378979 69.7129237,92.7502757 L69.7129237,92.7502757 L30.39543,54.2540351 C29.3939218,53.3489935 28.8224135,52.0622398 28.8224135,50.712381 C28.8224135,49.3625221 29.3939218,48.0757684 30.39543,47.1707268 L30.39543,47.1707268 L37.5557307,40.1130827 C38.5214242,39.1254605 39.8444158,38.568739 41.2257057,38.568739 C42.6069955,38.568739 43.9299871,39.1254605 44.8956806,40.1130827 L44.8956806,40.1130827 L57.2144776,52.1495739 C58.1632676,53.1431618 59.6241105,53.4535742 60.894934,52.9316289 C62.1657575,52.4096835 62.9867111,51.1621047 62.9632495,49.7884712 L62.9632495,49.7884712 L62.9632495,5.13283208 C63.207332,2.30712771 65.5184794,0.106035004 68.3527232,3.41060513e-13 L78.6183874,3.41060513e-13 Z" id="Path" transform="translate(73.511219, 47.147310) rotate(-90.000000) translate(-73.511219, -47.147310) "></path>
        </g>
    </g>
</svg>