<svg width="58" height="16" viewBox="0 0 58 16" fill="none" xmlns="http://www.w3.org/2000/svg">
<rect x="0.5" width="57" height="16" rx="8" fill="white"/>
<circle cx="8" cy="8" r="3.5" fill="#2E844A"/>
<path d="M15.9425 10.5V5.40909H17.0188V9.61257H19.2013V10.5H15.9425ZM21.4905 5.40909V10.5H20.4142V5.40909H21.4905ZM23.7958 5.40909L25.0263 9.27699H25.0735L26.3065 5.40909H27.4996L25.7447 10.5H24.3576L22.6001 5.40909H23.7958ZM28.6124 10.5V5.40909H32.0428V6.29652H29.6887V7.50959H31.8663V8.39702H29.6887V9.61257H32.0527V10.5H28.6124ZM35.5186 10.5V5.40909H38.949V6.29652H36.595V7.50959H38.7725V8.39702H36.595V9.61257H38.959V10.5H35.5186ZM42.1095 10.5H40.3048V5.40909H42.1244C42.6365 5.40909 43.0773 5.51101 43.4468 5.71484C43.8164 5.91702 44.1006 6.20786 44.2994 6.58736C44.5 6.96686 44.6002 7.42093 44.6002 7.94957C44.6002 8.47988 44.5 8.93561 44.2994 9.31676C44.1006 9.69792 43.8147 9.99041 43.4419 10.1942C43.0706 10.3981 42.6265 10.5 42.1095 10.5ZM41.3811 9.57777H42.0647C42.3829 9.57777 42.6505 9.52143 42.8676 9.40874C43.0864 9.29439 43.2504 9.1179 43.3598 8.87926C43.4709 8.63897 43.5264 8.32907 43.5264 7.94957C43.5264 7.57339 43.4709 7.26598 43.3598 7.02734C43.2504 6.78871 43.0872 6.61304 42.8701 6.50035C42.653 6.38767 42.3854 6.33132 42.0672 6.33132H41.3811V9.57777ZM46.9739 5.40909V10.5H45.8975V5.40909H46.9739ZM48.1656 6.29652V5.40909H52.3467V6.29652H50.7881V10.5H49.7242V6.29652H48.1656Z" fill="#080707"/>
</svg>
