<svg width="324" height="71" viewBox="0 0 324 71" fill="none" xmlns="http://www.w3.org/2000/svg">
<g filter="url(#filter0_d_502_1737)">
<rect width="320" height="66" transform="translate(2 0.5)" fill="white"/>
<path d="M66.0107 23.5H64.043L60.8755 19.3359C60.757 19.1794 60.6851 19.0736 60.6597 19.0186H60.6343V23.5H59.1235V14.3975H60.6343V18.6758H60.6597C60.7104 18.5827 60.7824 18.479 60.8755 18.3647L63.9287 14.3975H65.7378L62.1641 18.7646L66.0107 23.5ZM67.6484 15.6353C67.4072 15.6353 67.1999 15.557 67.0264 15.4004C66.8571 15.2438 66.7725 15.0449 66.7725 14.8037C66.7725 14.5625 66.8571 14.3615 67.0264 14.2007C67.1999 14.0399 67.4072 13.9595 67.6484 13.9595C67.8981 13.9595 68.1097 14.0399 68.2832 14.2007C68.4567 14.3615 68.5435 14.5625 68.5435 14.8037C68.5435 15.0322 68.4567 15.229 68.2832 15.394C68.1097 15.5549 67.8981 15.6353 67.6484 15.6353ZM68.3784 23.5H66.9058V17H68.3784V23.5ZM80.0264 23.5H78.5537V19.958C78.5537 19.2767 78.4564 18.7837 78.2617 18.479C78.0713 18.1743 77.7476 18.022 77.2905 18.022C76.9054 18.022 76.5775 18.2145 76.3066 18.5996C76.04 18.9847 75.9067 19.446 75.9067 19.9834V23.5H74.4277V19.8374C74.4277 18.6271 74.0003 18.022 73.1455 18.022C72.7477 18.022 72.4198 18.2039 72.1616 18.5679C71.9077 18.9318 71.7808 19.4036 71.7808 19.9834V23.5H70.3081V17H71.7808V18.0283H71.8062C72.2759 17.2412 72.9593 16.8477 73.8564 16.8477C74.305 16.8477 74.6965 16.9725 75.0308 17.2222C75.3693 17.4676 75.5999 17.7913 75.7227 18.1934C76.2051 17.2962 76.9245 16.8477 77.8809 16.8477C79.3112 16.8477 80.0264 17.73 80.0264 19.4946V23.5ZM92.4551 23.5H90.4873L87.3198 19.3359C87.2013 19.1794 87.1294 19.0736 87.104 19.0186H87.0786V23.5H85.5679V14.3975H87.0786V18.6758H87.104C87.1548 18.5827 87.2267 18.479 87.3198 18.3647L90.373 14.3975H92.1821L88.6084 18.7646L92.4551 23.5ZM98.3394 23.5H96.9111V22.4844H96.8857C96.4372 23.263 95.7791 23.6523 94.9116 23.6523C94.2726 23.6523 93.7712 23.4788 93.4072 23.1318C93.0475 22.7848 92.8677 22.3257 92.8677 21.7544C92.8677 20.5272 93.5744 19.812 94.9878 19.6089L96.9175 19.3359C96.9175 18.4092 96.4774 17.9458 95.5972 17.9458C94.8228 17.9458 94.1245 18.2124 93.5024 18.7456V17.457C94.188 17.0508 94.9793 16.8477 95.8765 16.8477C97.5184 16.8477 98.3394 17.6559 98.3394 19.2725V23.5ZM96.9175 20.3071L95.5527 20.4976C95.1296 20.5526 94.8101 20.6562 94.5942 20.8086C94.3826 20.9567 94.2769 21.2191 94.2769 21.5957C94.2769 21.8708 94.3742 22.0972 94.5688 22.2749C94.7677 22.4484 95.0322 22.5352 95.3623 22.5352C95.8109 22.5352 96.1812 22.3786 96.4731 22.0654C96.7694 21.748 96.9175 21.3503 96.9175 20.8721V20.3071ZM103.913 18.4028C103.735 18.2632 103.479 18.1934 103.145 18.1934C102.709 18.1934 102.345 18.3901 102.053 18.7837C101.761 19.1772 101.615 19.7126 101.615 20.3896V23.5H100.142V17H101.615V18.3394H101.64C101.784 17.8823 102.004 17.5269 102.3 17.2729C102.601 17.0148 102.935 16.8857 103.303 16.8857C103.57 16.8857 103.773 16.9259 103.913 17.0063V18.4028ZM110.749 23.5H109.276V22.3955H109.251C108.777 23.2334 108.047 23.6523 107.061 23.6523C106.261 23.6523 105.62 23.3625 105.138 22.7827C104.66 22.1987 104.42 21.4053 104.42 20.4023C104.42 19.3275 104.685 18.4663 105.214 17.8188C105.747 17.1714 106.456 16.8477 107.34 16.8477C108.216 16.8477 108.853 17.1989 109.251 17.9014H109.276V13.877H110.749V23.5ZM109.295 20.5293V19.6787C109.295 19.2174 109.145 18.826 108.845 18.5044C108.544 18.1828 108.161 18.022 107.696 18.022C107.146 18.022 106.712 18.2272 106.395 18.6377C106.081 19.0482 105.925 19.6174 105.925 20.3452C105.925 21.0054 106.075 21.528 106.375 21.9131C106.68 22.2939 107.089 22.4844 107.601 22.4844C108.104 22.4844 108.513 22.3003 108.826 21.9321C109.139 21.5597 109.295 21.0921 109.295 20.5293ZM117.662 23.5H116.233V22.4844H116.208C115.759 23.263 115.101 23.6523 114.234 23.6523C113.595 23.6523 113.093 23.4788 112.729 23.1318C112.37 22.7848 112.19 22.3257 112.19 21.7544C112.19 20.5272 112.897 19.812 114.31 19.6089L116.24 19.3359C116.24 18.4092 115.8 17.9458 114.919 17.9458C114.145 17.9458 113.447 18.2124 112.825 18.7456V17.457C113.51 17.0508 114.302 16.8477 115.199 16.8477C116.841 16.8477 117.662 17.6559 117.662 19.2725V23.5ZM116.24 20.3071L114.875 20.4976C114.452 20.5526 114.132 20.6562 113.917 20.8086C113.705 20.9567 113.599 21.2191 113.599 21.5957C113.599 21.8708 113.696 22.0972 113.891 22.2749C114.09 22.4484 114.354 22.5352 114.685 22.5352C115.133 22.5352 115.503 22.3786 115.795 22.0654C116.092 21.748 116.24 21.3503 116.24 20.8721V20.3071ZM119.058 23.2969V21.9321C119.608 22.3511 120.215 22.5605 120.88 22.5605C121.769 22.5605 122.213 22.2982 122.213 21.7734C122.213 21.6253 122.175 21.5005 122.099 21.3989C122.022 21.2931 121.919 21.2 121.788 21.1196C121.661 21.0392 121.508 20.9673 121.331 20.9038C121.157 20.8403 120.962 20.7684 120.747 20.688C120.48 20.5822 120.239 20.4701 120.023 20.3516C119.811 20.2331 119.634 20.0998 119.49 19.9517C119.35 19.7993 119.244 19.6279 119.172 19.4375C119.1 19.2471 119.064 19.0249 119.064 18.771C119.064 18.4578 119.139 18.1828 119.287 17.9458C119.435 17.7046 119.634 17.5036 119.883 17.3428C120.133 17.1777 120.417 17.055 120.734 16.9746C121.051 16.89 121.379 16.8477 121.718 16.8477C122.319 16.8477 122.856 16.9386 123.33 17.1206V18.4092C122.873 18.096 122.348 17.9395 121.756 17.9395C121.57 17.9395 121.4 17.9585 121.248 17.9966C121.1 18.0347 120.973 18.0876 120.867 18.1553C120.761 18.223 120.679 18.3055 120.62 18.4028C120.56 18.4959 120.531 18.5996 120.531 18.7139C120.531 18.8535 120.56 18.972 120.62 19.0693C120.679 19.1667 120.766 19.2534 120.88 19.3296C120.998 19.4015 121.138 19.4692 121.299 19.5327C121.464 19.592 121.652 19.6576 121.864 19.7295C122.143 19.8438 122.393 19.9601 122.613 20.0786C122.837 20.1971 123.028 20.3325 123.184 20.4849C123.341 20.633 123.461 20.8065 123.546 21.0054C123.631 21.2 123.673 21.4328 123.673 21.7036C123.673 22.0337 123.597 22.3215 123.444 22.5669C123.292 22.8123 123.089 23.0155 122.835 23.1763C122.581 23.3371 122.287 23.4556 121.953 23.5317C121.623 23.6121 121.273 23.6523 120.905 23.6523C120.194 23.6523 119.579 23.5339 119.058 23.2969ZM130.852 23.5H129.379V19.9453C129.379 18.6589 128.95 18.0156 128.091 18.0156C127.659 18.0156 127.295 18.2018 126.999 18.5742C126.703 18.9466 126.555 19.4227 126.555 20.0024V23.5H125.076V13.877H126.555V18.0791H126.58C127.071 17.2581 127.773 16.8477 128.688 16.8477C130.131 16.8477 130.852 17.73 130.852 19.4946V23.5ZM133.385 15.6353C133.144 15.6353 132.936 15.557 132.763 15.4004C132.593 15.2438 132.509 15.0449 132.509 14.8037C132.509 14.5625 132.593 14.3615 132.763 14.2007C132.936 14.0399 133.144 13.9595 133.385 13.9595C133.634 13.9595 133.846 14.0399 134.02 14.2007C134.193 14.3615 134.28 14.5625 134.28 14.8037C134.28 15.0322 134.193 15.229 134.02 15.394C133.846 15.5549 133.634 15.6353 133.385 15.6353ZM134.115 23.5H132.642V17H134.115V23.5ZM141.034 23.5H139.605V22.4844H139.58C139.132 23.263 138.473 23.6523 137.606 23.6523C136.967 23.6523 136.465 23.4788 136.102 23.1318C135.742 22.7848 135.562 22.3257 135.562 21.7544C135.562 20.5272 136.269 19.812 137.682 19.6089L139.612 19.3359C139.612 18.4092 139.172 17.9458 138.292 17.9458C137.517 17.9458 136.819 18.2124 136.197 18.7456V17.457C136.882 17.0508 137.674 16.8477 138.571 16.8477C140.213 16.8477 141.034 17.6559 141.034 19.2725V23.5ZM139.612 20.3071L138.247 20.4976C137.824 20.5526 137.504 20.6562 137.289 20.8086C137.077 20.9567 136.971 21.2191 136.971 21.5957C136.971 21.8708 137.069 22.0972 137.263 22.2749C137.462 22.4484 137.727 22.5352 138.057 22.5352C138.505 22.5352 138.875 22.3786 139.167 22.0654C139.464 21.748 139.612 21.3503 139.612 20.8721V20.3071ZM148.625 23.5H147.153V19.8374C147.153 18.6229 146.723 18.0156 145.864 18.0156C145.416 18.0156 145.045 18.1849 144.753 18.5234C144.461 18.8577 144.315 19.2809 144.315 19.793V23.5H142.836V17H144.315V18.0791H144.341C144.827 17.2581 145.53 16.8477 146.448 16.8477C147.155 16.8477 147.694 17.0783 148.067 17.5396C148.439 17.9966 148.625 18.6589 148.625 19.5264V23.5ZM153.85 20.4912H150.384V19.4058H153.85V20.4912ZM167.116 14.3975L164.622 23.5H162.914L161.181 17.1333C161.109 16.8625 161.065 16.5662 161.048 16.2446H161.022C161.001 16.5451 160.951 16.8371 160.87 17.1206L159.131 23.5H157.385L154.84 14.3975H156.497L158.147 21.0625C158.215 21.3418 158.257 21.6338 158.274 21.9385H158.306C158.323 21.7227 158.382 21.4307 158.483 21.0625L160.35 14.3975H161.905L163.631 21.1133C163.691 21.3418 163.735 21.6126 163.765 21.9258H163.79C163.803 21.7142 163.851 21.4349 163.936 21.0879L165.555 14.3975H167.116ZM173.388 20.6499H168.957C168.974 21.2508 169.158 21.7142 169.509 22.04C169.865 22.3659 170.351 22.5288 170.969 22.5288C171.663 22.5288 172.3 22.3215 172.88 21.9067V23.0938C172.287 23.4661 171.505 23.6523 170.531 23.6523C169.575 23.6523 168.824 23.3582 168.278 22.77C167.736 22.1776 167.465 21.346 167.465 20.2754C167.465 19.264 167.764 18.4409 168.36 17.8062C168.961 17.1672 169.706 16.8477 170.595 16.8477C171.483 16.8477 172.171 17.1333 172.658 17.7046C173.144 18.2759 173.388 19.0693 173.388 20.085V20.6499ZM171.966 19.6089C171.962 19.0799 171.837 18.6694 171.591 18.3774C171.346 18.0812 171.007 17.9331 170.576 17.9331C170.153 17.9331 169.793 18.0876 169.497 18.3965C169.205 18.7054 169.025 19.1095 168.957 19.6089H171.966ZM174.384 23.2969V21.9321C174.934 22.3511 175.542 22.5605 176.206 22.5605C177.095 22.5605 177.539 22.2982 177.539 21.7734C177.539 21.6253 177.501 21.5005 177.425 21.3989C177.349 21.2931 177.245 21.2 177.114 21.1196C176.987 21.0392 176.834 20.9673 176.657 20.9038C176.483 20.8403 176.289 20.7684 176.073 20.688C175.806 20.5822 175.565 20.4701 175.349 20.3516C175.138 20.2331 174.96 20.0998 174.816 19.9517C174.676 19.7993 174.57 19.6279 174.499 19.4375C174.427 19.2471 174.391 19.0249 174.391 18.771C174.391 18.4578 174.465 18.1828 174.613 17.9458C174.761 17.7046 174.96 17.5036 175.209 17.3428C175.459 17.1777 175.743 17.055 176.06 16.9746C176.377 16.89 176.705 16.8477 177.044 16.8477C177.645 16.8477 178.182 16.9386 178.656 17.1206V18.4092C178.199 18.096 177.674 17.9395 177.082 17.9395C176.896 17.9395 176.727 17.9585 176.574 17.9966C176.426 18.0347 176.299 18.0876 176.193 18.1553C176.088 18.223 176.005 18.3055 175.946 18.4028C175.887 18.4959 175.857 18.5996 175.857 18.7139C175.857 18.8535 175.887 18.972 175.946 19.0693C176.005 19.1667 176.092 19.2534 176.206 19.3296C176.325 19.4015 176.464 19.4692 176.625 19.5327C176.79 19.592 176.978 19.6576 177.19 19.7295C177.469 19.8438 177.719 19.9601 177.939 20.0786C178.163 20.1971 178.354 20.3325 178.51 20.4849C178.667 20.633 178.787 20.8065 178.872 21.0054C178.957 21.2 178.999 21.4328 178.999 21.7036C178.999 22.0337 178.923 22.3215 178.771 22.5669C178.618 22.8123 178.415 23.0155 178.161 23.1763C177.907 23.3371 177.613 23.4556 177.279 23.5317C176.949 23.6121 176.6 23.6523 176.231 23.6523C175.521 23.6523 174.905 23.5339 174.384 23.2969ZM183.83 23.4302C183.542 23.5741 183.163 23.646 182.693 23.646C181.432 23.646 180.802 23.0409 180.802 21.8306V18.1553H179.716V17H180.802V15.4956L182.274 15.0767V17H183.83V18.1553H182.274V21.4053C182.274 21.7904 182.344 22.0654 182.484 22.2305C182.624 22.3955 182.856 22.478 183.182 22.478C183.432 22.478 183.648 22.4061 183.83 22.2622V23.4302ZM62.9316 29.9619C62.8242 30.1475 62.694 30.3786 62.541 30.6553C62.3913 30.932 62.2318 31.2428 62.0625 31.5879C61.8932 31.9329 61.7207 32.304 61.5449 32.7012C61.3691 33.0983 61.2048 33.5085 61.0518 33.9316C60.8988 34.3548 60.7637 34.7845 60.6465 35.2207C60.5326 35.6536 60.4495 36.0801 60.3975 36.5H59.5381C59.5967 36.0833 59.6862 35.6585 59.8066 35.2256C59.9303 34.7894 60.0687 34.363 60.2217 33.9463C60.3779 33.5264 60.5423 33.1227 60.7148 32.7354C60.8874 32.348 61.055 31.9915 61.2178 31.666C61.3805 31.3405 61.5286 31.054 61.6621 30.8066C61.7988 30.556 61.9079 30.3607 61.9893 30.2207H58.4785V29.498H62.9316V29.9619ZM63.8301 34.5469C63.8301 34.3613 63.8594 34.1758 63.918 33.9902C63.9766 33.8014 64.0596 33.6257 64.167 33.4629C64.2777 33.3001 64.4128 33.152 64.5723 33.0186C64.735 32.8851 64.9189 32.7793 65.124 32.7012C64.8213 32.5319 64.5804 32.3154 64.4014 32.0518C64.2223 31.7848 64.1328 31.4902 64.1328 31.168C64.1328 30.9108 64.1816 30.6732 64.2793 30.4551C64.3802 30.237 64.5186 30.0482 64.6943 29.8887C64.8701 29.7292 65.0785 29.6055 65.3193 29.5176C65.5602 29.4264 65.8206 29.3809 66.1006 29.3809C66.3838 29.3809 66.6458 29.4264 66.8867 29.5176C67.1276 29.6087 67.3359 29.734 67.5117 29.8936C67.6875 30.0531 67.8242 30.2419 67.9219 30.46C68.0195 30.6781 68.0684 30.9141 68.0684 31.168C68.0684 31.4902 67.9788 31.7848 67.7998 32.0518C67.6208 32.3154 67.3831 32.5319 67.0869 32.7012C67.2887 32.7793 67.4694 32.8851 67.6289 33.0186C67.7884 33.152 67.9219 33.3001 68.0293 33.4629C68.14 33.6257 68.2246 33.8014 68.2832 33.9902C68.3418 34.1758 68.3711 34.3613 68.3711 34.5469C68.3711 34.8529 68.3158 35.1328 68.2051 35.3867C68.0944 35.6406 67.9382 35.8587 67.7363 36.041C67.5378 36.2201 67.2985 36.36 67.0186 36.4609C66.7419 36.5618 66.4359 36.6123 66.1006 36.6123C65.7686 36.6123 65.4642 36.5618 65.1875 36.4609C64.9108 36.36 64.6715 36.2201 64.4697 36.041C64.2679 35.8587 64.11 35.6406 63.9961 35.3867C63.8854 35.1328 63.8301 34.8529 63.8301 34.5469ZM64.6992 34.4785C64.6992 34.6966 64.7318 34.8936 64.7969 35.0693C64.8652 35.2451 64.9596 35.3949 65.0801 35.5186C65.2038 35.6423 65.3519 35.7383 65.5244 35.8066C65.7002 35.8717 65.8939 35.9043 66.1055 35.9043C66.3105 35.9043 66.4993 35.8701 66.6719 35.8018C66.8444 35.7334 66.9925 35.6374 67.1162 35.5137C67.2432 35.39 67.3408 35.2402 67.4092 35.0645C67.4808 34.8887 67.5166 34.6934 67.5166 34.4785C67.5166 34.2832 67.4824 34.1009 67.4141 33.9316C67.349 33.7591 67.2546 33.6077 67.1309 33.4775C67.0072 33.3473 66.859 33.2448 66.6865 33.1699C66.514 33.0951 66.3203 33.0576 66.1055 33.0576C65.9036 33.0576 65.7165 33.0934 65.5439 33.165C65.3747 33.2334 65.2266 33.3311 65.0996 33.458C64.9759 33.5817 64.8783 33.7314 64.8066 33.9072C64.735 34.0798 64.6992 34.2702 64.6992 34.4785ZM64.9482 31.2314C64.9482 31.3975 64.9775 31.5521 65.0361 31.6953C65.098 31.8353 65.181 31.959 65.2852 32.0664C65.3926 32.1706 65.5163 32.2536 65.6562 32.3154C65.7962 32.374 65.946 32.4033 66.1055 32.4033C66.265 32.4033 66.4147 32.3724 66.5547 32.3105C66.6979 32.2487 66.8216 32.1657 66.9258 32.0615C67.0299 31.9541 67.113 31.8304 67.1748 31.6904C67.2367 31.5472 67.2676 31.3942 67.2676 31.2314C67.2676 31.0622 67.2367 30.9059 67.1748 30.7627C67.1162 30.6195 67.0348 30.4958 66.9307 30.3916C66.8265 30.2874 66.7028 30.2061 66.5596 30.1475C66.4196 30.0856 66.2682 30.0547 66.1055 30.0547C65.9329 30.0547 65.7751 30.0856 65.6318 30.1475C65.4919 30.2093 65.3698 30.2939 65.2656 30.4014C65.1647 30.5055 65.0866 30.6292 65.0312 30.7725C64.9759 30.9157 64.9482 31.0687 64.9482 31.2314ZM73.7129 29.9619C73.6055 30.1475 73.4753 30.3786 73.3223 30.6553C73.1725 30.932 73.013 31.2428 72.8438 31.5879C72.6745 31.9329 72.502 32.304 72.3262 32.7012C72.1504 33.0983 71.986 33.5085 71.833 33.9316C71.68 34.3548 71.5449 34.7845 71.4277 35.2207C71.3138 35.6536 71.2308 36.0801 71.1787 36.5H70.3193C70.3779 36.0833 70.4674 35.6585 70.5879 35.2256C70.7116 34.7894 70.8499 34.363 71.0029 33.9463C71.1592 33.5264 71.3236 33.1227 71.4961 32.7354C71.6686 32.348 71.8363 31.9915 71.999 31.666C72.1618 31.3405 72.3099 31.054 72.4434 30.8066C72.5801 30.556 72.6891 30.3607 72.7705 30.2207H69.2598V29.498H73.7129V29.9619ZM77.541 34.0293H74.875V33.3994H77.541V34.0293ZM81.7109 36.5H80.9102V30.4502C80.8483 30.512 80.7572 30.5837 80.6367 30.665C80.5195 30.7432 80.3861 30.8213 80.2363 30.8994C80.0898 30.9775 79.9336 31.0508 79.7676 31.1191C79.6048 31.1875 79.4453 31.2412 79.2891 31.2803V30.4697C79.4648 30.4209 79.6504 30.3558 79.8457 30.2744C80.0443 30.1898 80.238 30.097 80.4268 29.9961C80.6188 29.8919 80.7995 29.7845 80.9688 29.6738C81.138 29.5599 81.2845 29.4492 81.4082 29.3418H81.7109V36.5ZM88.4688 32.5791C88.4688 33.2204 88.4053 33.7917 88.2783 34.293C88.1514 34.791 87.9658 35.2142 87.7217 35.5625C87.4775 35.9076 87.1797 36.1712 86.8281 36.3535C86.4766 36.5326 86.0762 36.6221 85.627 36.6221C85.1647 36.6221 84.7578 36.5407 84.4062 36.3779V35.6113C84.7936 35.8294 85.207 35.9385 85.6465 35.9385C85.9622 35.9385 86.2438 35.8734 86.4912 35.7432C86.7419 35.613 86.9535 35.4242 87.126 35.1768C87.2985 34.9261 87.4303 34.6185 87.5215 34.2539C87.6126 33.8893 87.6582 33.471 87.6582 32.999H87.6387C87.3392 33.6012 86.8184 33.9023 86.0762 33.9023C85.7767 33.9023 85.5016 33.8503 85.251 33.7461C85.0003 33.6387 84.7839 33.4889 84.6016 33.2969C84.4193 33.1016 84.2777 32.8704 84.1768 32.6035C84.0758 32.3366 84.0254 32.042 84.0254 31.7197C84.0254 31.3747 84.0807 31.0589 84.1914 30.7725C84.3053 30.486 84.4616 30.2402 84.6602 30.0352C84.862 29.8268 85.0996 29.6657 85.373 29.5518C85.6497 29.4378 85.9508 29.3809 86.2764 29.3809C86.6279 29.3809 86.9388 29.4525 87.209 29.5957C87.4824 29.7357 87.7119 29.9424 87.8975 30.2158C88.083 30.486 88.2246 30.8197 88.3223 31.2168C88.4199 31.6139 88.4688 32.068 88.4688 32.5791ZM87.6045 31.8613C87.6045 31.5911 87.5687 31.3454 87.4971 31.124C87.4287 30.9027 87.3327 30.7139 87.209 30.5576C87.0853 30.3981 86.9372 30.276 86.7646 30.1914C86.5954 30.1035 86.4098 30.0596 86.208 30.0596C86.016 30.0596 85.8369 30.0986 85.6709 30.1768C85.5049 30.2516 85.36 30.359 85.2363 30.499C85.1159 30.6357 85.0199 30.8001 84.9482 30.9922C84.8799 31.181 84.8457 31.3877 84.8457 31.6123C84.8457 31.8597 84.8783 32.0811 84.9434 32.2764C85.0117 32.4717 85.1077 32.6377 85.2314 32.7744C85.3551 32.9079 85.5033 33.0104 85.6758 33.082C85.8516 33.1536 86.0452 33.1895 86.2568 33.1895C86.4424 33.1895 86.6165 33.1553 86.7793 33.0869C86.9453 33.0153 87.0885 32.9209 87.209 32.8037C87.3327 32.6833 87.4287 32.5433 87.4971 32.3838C87.5687 32.221 87.6045 32.0469 87.6045 31.8613ZM92.7266 31.334C92.7266 31.1191 92.6924 30.932 92.624 30.7725C92.5589 30.613 92.4678 30.4811 92.3506 30.377C92.2367 30.2695 92.1016 30.1898 91.9453 30.1377C91.7891 30.0856 91.6198 30.0596 91.4375 30.0596C91.2812 30.0596 91.1283 30.0807 90.9785 30.123C90.8288 30.1654 90.6823 30.224 90.5391 30.2988C90.3991 30.3737 90.2624 30.4632 90.1289 30.5674C89.9987 30.6715 89.8766 30.7871 89.7627 30.9141V30.0547C89.9873 29.8366 90.238 29.6706 90.5146 29.5566C90.7946 29.4395 91.1348 29.3809 91.5352 29.3809C91.8216 29.3809 92.0869 29.4232 92.3311 29.5078C92.5752 29.5892 92.7868 29.7096 92.9658 29.8691C93.1449 30.0286 93.2848 30.2256 93.3857 30.46C93.4899 30.6943 93.542 30.9629 93.542 31.2656C93.542 31.5423 93.5094 31.793 93.4443 32.0176C93.3825 32.2422 93.2865 32.4538 93.1562 32.6523C93.0293 32.8509 92.8682 33.0413 92.6729 33.2236C92.4775 33.4059 92.248 33.5915 91.9844 33.7803C91.6556 34.0146 91.3838 34.2148 91.1689 34.3809C90.9574 34.5469 90.7881 34.7031 90.6611 34.8496C90.5374 34.9928 90.4495 35.1377 90.3975 35.2842C90.3486 35.4274 90.3242 35.5934 90.3242 35.7822H93.8105V36.5H89.4893V36.1533C89.4893 35.8538 89.5218 35.5902 89.5869 35.3623C89.652 35.1344 89.7594 34.918 89.9092 34.7129C90.0589 34.5078 90.2542 34.3027 90.4951 34.0977C90.7393 33.8926 91.0371 33.6615 91.3887 33.4043C91.6426 33.222 91.8542 33.0479 92.0234 32.8818C92.196 32.7158 92.3343 32.5498 92.4385 32.3838C92.5426 32.2178 92.6159 32.0501 92.6582 31.8809C92.7038 31.7083 92.7266 31.526 92.7266 31.334ZM97.7168 34.0293H95.0508V33.3994H97.7168V34.0293ZM103.283 29.9619C103.176 30.1475 103.046 30.3786 102.893 30.6553C102.743 30.932 102.583 31.2428 102.414 31.5879C102.245 31.9329 102.072 32.304 101.896 32.7012C101.721 33.0983 101.556 33.5085 101.403 33.9316C101.25 34.3548 101.115 34.7845 100.998 35.2207C100.884 35.6536 100.801 36.0801 100.749 36.5H99.8896C99.9482 36.0833 100.038 35.6585 100.158 35.2256C100.282 34.7894 100.42 34.363 100.573 33.9463C100.729 33.5264 100.894 33.1227 101.066 32.7354C101.239 32.348 101.407 31.9915 101.569 31.666C101.732 31.3405 101.88 31.054 102.014 30.8066C102.15 30.556 102.259 30.3607 102.341 30.2207H98.8301V29.498H103.283V29.9619ZM108.396 34.5176C108.396 34.8333 108.335 35.1214 108.215 35.3818C108.098 35.639 107.93 35.8604 107.712 36.0459C107.497 36.2282 107.238 36.3698 106.936 36.4707C106.633 36.5716 106.299 36.6221 105.935 36.6221C105.267 36.6221 104.737 36.4951 104.343 36.2412V35.3818C104.815 35.7529 105.355 35.9385 105.964 35.9385C106.208 35.9385 106.428 35.9076 106.623 35.8457C106.822 35.7839 106.991 35.6943 107.131 35.5771C107.274 35.46 107.383 35.3184 107.458 35.1523C107.536 34.9863 107.575 34.7992 107.575 34.5908C107.575 33.6761 106.924 33.2188 105.622 33.2188H105.041V32.54H105.593C106.745 32.54 107.321 32.1104 107.321 31.251C107.321 30.4567 106.882 30.0596 106.003 30.0596C105.508 30.0596 105.044 30.2256 104.611 30.5576V29.7812C105.057 29.5143 105.588 29.3809 106.203 29.3809C106.496 29.3809 106.761 29.4215 106.999 29.5029C107.237 29.5843 107.44 29.6982 107.609 29.8447C107.779 29.9912 107.909 30.167 108 30.3721C108.094 30.5771 108.142 30.8034 108.142 31.0508C108.142 31.972 107.676 32.5645 106.745 32.8281V32.8477C106.983 32.8737 107.202 32.9323 107.404 33.0234C107.606 33.1113 107.78 33.2269 107.927 33.3701C108.073 33.5133 108.187 33.6826 108.269 33.8779C108.353 34.07 108.396 34.2832 108.396 34.5176ZM114.123 34.2783C114.123 34.6201 114.068 34.9342 113.957 35.2207C113.846 35.5072 113.693 35.7546 113.498 35.9629C113.303 36.1712 113.07 36.334 112.8 36.4512C112.53 36.5651 112.237 36.6221 111.921 36.6221C111.569 36.6221 111.254 36.5488 110.974 36.4023C110.697 36.2559 110.461 36.0459 110.266 35.7725C110.074 35.4958 109.927 35.1589 109.826 34.7617C109.725 34.3646 109.675 33.917 109.675 33.4189C109.675 32.8102 109.742 32.2585 109.875 31.7637C110.012 31.2656 110.204 30.8408 110.451 30.4893C110.702 30.1344 111.003 29.861 111.354 29.6689C111.706 29.4769 112.098 29.3809 112.531 29.3809C113.013 29.3809 113.4 29.4476 113.693 29.5811V30.3379C113.332 30.1523 112.951 30.0596 112.551 30.0596C112.238 30.0596 111.957 30.1296 111.706 30.2695C111.455 30.4095 111.241 30.6081 111.062 30.8652C110.882 31.1191 110.744 31.4268 110.646 31.7881C110.552 32.1494 110.505 32.5514 110.505 32.9941H110.524C110.847 32.4115 111.379 32.1201 112.121 32.1201C112.427 32.1201 112.702 32.1722 112.946 32.2764C113.194 32.3805 113.404 32.5286 113.576 32.7207C113.752 32.9095 113.887 33.1357 113.981 33.3994C114.076 33.6631 114.123 33.9561 114.123 34.2783ZM113.303 34.3809C113.303 34.1367 113.272 33.917 113.21 33.7217C113.148 33.5264 113.059 33.3604 112.941 33.2236C112.827 33.0869 112.686 32.9827 112.517 32.9111C112.347 32.8363 112.155 32.7988 111.94 32.7988C111.742 32.7988 111.558 32.8363 111.389 32.9111C111.219 32.986 111.073 33.0885 110.949 33.2188C110.826 33.3457 110.728 33.4954 110.656 33.668C110.588 33.8372 110.554 34.0179 110.554 34.21C110.554 34.4508 110.588 34.6771 110.656 34.8887C110.725 35.097 110.821 35.2793 110.944 35.4355C111.068 35.5918 111.215 35.7155 111.384 35.8066C111.556 35.8945 111.747 35.9385 111.955 35.9385C112.157 35.9385 112.341 35.901 112.507 35.8262C112.673 35.748 112.814 35.6406 112.932 35.5039C113.049 35.3672 113.14 35.2044 113.205 35.0156C113.27 34.8236 113.303 34.612 113.303 34.3809ZM118.059 36.5H117.258V30.4502C117.196 30.512 117.105 30.5837 116.984 30.665C116.867 30.7432 116.734 30.8213 116.584 30.8994C116.438 30.9775 116.281 31.0508 116.115 31.1191C115.952 31.1875 115.793 31.2412 115.637 31.2803V30.4697C115.812 30.4209 115.998 30.3558 116.193 30.2744C116.392 30.1898 116.586 30.097 116.774 29.9961C116.966 29.8919 117.147 29.7845 117.316 29.6738C117.486 29.5599 117.632 29.4492 117.756 29.3418H118.059V36.5ZM61.7695 44.334C61.7695 44.1191 61.7354 43.932 61.667 43.7725C61.6019 43.613 61.5107 43.4811 61.3936 43.377C61.2796 43.2695 61.1445 43.1898 60.9883 43.1377C60.832 43.0856 60.6628 43.0596 60.4805 43.0596C60.3242 43.0596 60.1712 43.0807 60.0215 43.123C59.8717 43.1654 59.7253 43.224 59.582 43.2988C59.4421 43.3737 59.3053 43.4632 59.1719 43.5674C59.0417 43.6715 58.9196 43.7871 58.8057 43.9141V43.0547C59.0303 42.8366 59.2809 42.6706 59.5576 42.5566C59.8376 42.4395 60.1777 42.3809 60.5781 42.3809C60.8646 42.3809 61.1299 42.4232 61.374 42.5078C61.6182 42.5892 61.8298 42.7096 62.0088 42.8691C62.1878 43.0286 62.3278 43.2256 62.4287 43.46C62.5329 43.6943 62.585 43.9629 62.585 44.2656C62.585 44.5423 62.5524 44.793 62.4873 45.0176C62.4255 45.2422 62.3294 45.4538 62.1992 45.6523C62.0723 45.8509 61.9111 46.0413 61.7158 46.2236C61.5205 46.4059 61.291 46.5915 61.0273 46.7803C60.6986 47.0146 60.4268 47.2148 60.2119 47.3809C60.0003 47.5469 59.8311 47.7031 59.7041 47.8496C59.5804 47.9928 59.4925 48.1377 59.4404 48.2842C59.3916 48.4274 59.3672 48.5934 59.3672 48.7822H62.8535V49.5H58.5322V49.1533C58.5322 48.8538 58.5648 48.5902 58.6299 48.3623C58.695 48.1344 58.8024 47.918 58.9521 47.7129C59.1019 47.5078 59.2972 47.3027 59.5381 47.0977C59.7822 46.8926 60.0801 46.6615 60.4316 46.4043C60.6855 46.222 60.8971 46.0479 61.0664 45.8818C61.2389 45.7158 61.3773 45.5498 61.4814 45.3838C61.5856 45.2178 61.6589 45.0501 61.7012 44.8809C61.7467 44.7083 61.7695 44.526 61.7695 44.334ZM68.1221 47.3613C68.1221 47.7031 68.0635 48.0124 67.9463 48.2891C67.8291 48.5658 67.6615 48.8034 67.4434 49.002C67.2285 49.2005 66.9681 49.3535 66.6621 49.4609C66.3561 49.5684 66.016 49.6221 65.6416 49.6221C64.9906 49.6221 64.5072 49.5244 64.1914 49.3291V48.4795C64.6667 48.7855 65.1533 48.9385 65.6514 48.9385C65.9053 48.9385 66.1331 48.901 66.335 48.8262C66.54 48.7513 66.7142 48.6471 66.8574 48.5137C67.0007 48.3802 67.1097 48.2191 67.1846 48.0303C67.2627 47.8415 67.3018 47.6348 67.3018 47.4102C67.3018 46.9544 67.1488 46.598 66.8428 46.3408C66.5368 46.0804 66.0924 45.9502 65.5098 45.9502C65.4154 45.9502 65.3161 45.9518 65.2119 45.9551C65.1077 45.9583 65.0036 45.9632 64.8994 45.9697C64.7952 45.973 64.6927 45.9779 64.5918 45.9844C64.4941 45.9909 64.4046 45.999 64.3232 46.0088L64.5625 42.498H67.7998V43.2207H65.2559L65.1143 45.2764C65.2184 45.2699 65.3291 45.265 65.4463 45.2617C65.5635 45.2552 65.6676 45.252 65.7588 45.252C66.1299 45.252 66.4619 45.3008 66.7549 45.3984C67.0479 45.4961 67.2952 45.6361 67.4971 45.8184C67.7021 45.9974 67.8568 46.2188 67.9609 46.4824C68.0684 46.7428 68.1221 47.0358 68.1221 47.3613ZM72.3164 49.5H71.5156V43.4502C71.4538 43.512 71.3626 43.5837 71.2422 43.665C71.125 43.7432 70.9915 43.8213 70.8418 43.8994C70.6953 43.9775 70.5391 44.0508 70.373 44.1191C70.2103 44.1875 70.0508 44.2412 69.8945 44.2803V43.4697C70.0703 43.4209 70.2559 43.3558 70.4512 43.2744C70.6497 43.1898 70.8434 43.097 71.0322 42.9961C71.2243 42.8919 71.4049 42.7845 71.5742 42.6738C71.7435 42.5599 71.89 42.4492 72.0137 42.3418H72.3164V49.5ZM77.707 49.5H76.9062V43.4502C76.8444 43.512 76.7533 43.5837 76.6328 43.665C76.5156 43.7432 76.3822 43.8213 76.2324 43.8994C76.0859 43.9775 75.9297 44.0508 75.7637 44.1191C75.6009 44.1875 75.4414 44.2412 75.2852 44.2803V43.4697C75.4609 43.4209 75.6465 43.3558 75.8418 43.2744C76.0404 43.1898 76.234 43.097 76.4229 42.9961C76.6149 42.8919 76.7956 42.7845 76.9648 42.6738C77.1341 42.5599 77.2806 42.4492 77.4043 42.3418H77.707V49.5ZM84.2939 47.3613C84.2939 47.7031 84.2354 48.0124 84.1182 48.2891C84.001 48.5658 83.8333 48.8034 83.6152 49.002C83.4004 49.2005 83.14 49.3535 82.834 49.4609C82.528 49.5684 82.1878 49.6221 81.8135 49.6221C81.1624 49.6221 80.679 49.5244 80.3633 49.3291V48.4795C80.8385 48.7855 81.3252 48.9385 81.8232 48.9385C82.0771 48.9385 82.305 48.901 82.5068 48.8262C82.7119 48.7513 82.8861 48.6471 83.0293 48.5137C83.1725 48.3802 83.2816 48.2191 83.3564 48.0303C83.4346 47.8415 83.4736 47.6348 83.4736 47.4102C83.4736 46.9544 83.3206 46.598 83.0146 46.3408C82.7087 46.0804 82.2643 45.9502 81.6816 45.9502C81.5872 45.9502 81.488 45.9518 81.3838 45.9551C81.2796 45.9583 81.1755 45.9632 81.0713 45.9697C80.9671 45.973 80.8646 45.9779 80.7637 45.9844C80.666 45.9909 80.5765 45.999 80.4951 46.0088L80.7344 42.498H83.9717V43.2207H81.4277L81.2861 45.2764C81.3903 45.2699 81.501 45.265 81.6182 45.2617C81.7354 45.2552 81.8395 45.252 81.9307 45.252C82.3018 45.252 82.6338 45.3008 82.9268 45.3984C83.2197 45.4961 83.4671 45.6361 83.6689 45.8184C83.874 45.9974 84.0286 46.2188 84.1328 46.4824C84.2402 46.7428 84.2939 47.0358 84.2939 47.3613ZM92.3262 49.5H88.6152V42.498H92.1699V43.2402H89.4355V45.5693H91.9648V46.3066H89.4355V48.7578H92.3262V49.5ZM94.3672 49.5H93.5664V42.0977H94.3672V49.5ZM100.256 49.5H99.4551V48.6504H99.4355C99.0645 49.2949 98.4915 49.6172 97.7168 49.6172C97.0885 49.6172 96.5856 49.3942 96.208 48.9482C95.8337 48.499 95.6465 47.8887 95.6465 47.1172C95.6465 46.2904 95.8548 45.6279 96.2715 45.1299C96.6882 44.6318 97.2432 44.3828 97.9365 44.3828C98.6234 44.3828 99.123 44.653 99.4355 45.1934H99.4551V42.0977H100.256V49.5ZM99.4551 47.2393V46.502C99.4551 46.0983 99.3216 45.7565 99.0547 45.4766C98.7878 45.1966 98.4492 45.0566 98.0391 45.0566C97.5508 45.0566 97.1667 45.2357 96.8867 45.5938C96.6068 45.9518 96.4668 46.4466 96.4668 47.0781C96.4668 47.6543 96.6003 48.11 96.8672 48.4453C97.1374 48.7773 97.4987 48.9434 97.9512 48.9434C98.3971 48.9434 98.7585 48.7822 99.0352 48.46C99.3151 48.1377 99.4551 47.7308 99.4551 47.2393ZM103.967 49.6172C103.228 49.6172 102.637 49.3844 102.194 48.9189C101.755 48.4502 101.535 47.8301 101.535 47.0586C101.535 46.2188 101.765 45.5628 102.224 45.0908C102.683 44.6188 103.303 44.3828 104.084 44.3828C104.829 44.3828 105.41 44.6123 105.827 45.0713C106.247 45.5303 106.457 46.1667 106.457 46.9805C106.457 47.778 106.231 48.4176 105.778 48.8994C105.329 49.3779 104.725 49.6172 103.967 49.6172ZM104.025 45.0566C103.511 45.0566 103.104 45.2324 102.805 45.584C102.505 45.9323 102.355 46.4141 102.355 47.0293C102.355 47.6217 102.507 48.0889 102.81 48.4307C103.112 48.7725 103.518 48.9434 104.025 48.9434C104.543 48.9434 104.94 48.7757 105.217 48.4404C105.497 48.1051 105.637 47.6283 105.637 47.0098C105.637 46.3848 105.497 45.903 105.217 45.5645C104.94 45.2259 104.543 45.0566 104.025 45.0566ZM110.344 45.3105C110.204 45.2031 110.002 45.1494 109.738 45.1494C109.396 45.1494 109.11 45.3105 108.879 45.6328C108.651 45.9551 108.537 46.3945 108.537 46.9512V49.5H107.736V44.5H108.537V45.5303H108.557C108.671 45.1787 108.845 44.9053 109.079 44.71C109.313 44.5114 109.576 44.4121 109.865 44.4121C110.074 44.4121 110.233 44.4349 110.344 44.4805V45.3105ZM114.792 49.5H113.991V48.7188H113.972C113.623 49.3177 113.111 49.6172 112.434 49.6172C111.936 49.6172 111.545 49.4854 111.262 49.2217C110.982 48.958 110.842 48.6081 110.842 48.1719C110.842 47.2376 111.392 46.694 112.492 46.541L113.991 46.3311C113.991 45.4814 113.648 45.0566 112.961 45.0566C112.359 45.0566 111.815 45.2617 111.33 45.6719V44.8516C111.822 44.5391 112.388 44.3828 113.029 44.3828C114.204 44.3828 114.792 45.0046 114.792 46.248V49.5ZM113.991 46.9707L112.785 47.1367C112.414 47.1888 112.134 47.2816 111.945 47.415C111.757 47.5452 111.662 47.778 111.662 48.1133C111.662 48.3574 111.748 48.5576 111.921 48.7139C112.097 48.8669 112.329 48.9434 112.619 48.9434C113.016 48.9434 113.343 48.805 113.601 48.5283C113.861 48.2484 113.991 47.8952 113.991 47.4688V46.9707ZM120.568 49.5H119.768V48.6504H119.748C119.377 49.2949 118.804 49.6172 118.029 49.6172C117.401 49.6172 116.898 49.3942 116.521 48.9482C116.146 48.499 115.959 47.8887 115.959 47.1172C115.959 46.2904 116.167 45.6279 116.584 45.1299C117.001 44.6318 117.556 44.3828 118.249 44.3828C118.936 44.3828 119.436 44.653 119.748 45.1934H119.768V42.0977H120.568V49.5ZM119.768 47.2393V46.502C119.768 46.0983 119.634 45.7565 119.367 45.4766C119.1 45.1966 118.762 45.0566 118.352 45.0566C117.863 45.0566 117.479 45.2357 117.199 45.5938C116.919 45.9518 116.779 46.4466 116.779 47.0781C116.779 47.6543 116.913 48.11 117.18 48.4453C117.45 48.7773 117.811 48.9434 118.264 48.9434C118.71 48.9434 119.071 48.7822 119.348 48.46C119.628 48.1377 119.768 47.7308 119.768 47.2393ZM124.279 49.6172C123.54 49.6172 122.95 49.3844 122.507 48.9189C122.067 48.4502 121.848 47.8301 121.848 47.0586C121.848 46.2188 122.077 45.5628 122.536 45.0908C122.995 44.6188 123.615 44.3828 124.396 44.3828C125.142 44.3828 125.723 44.6123 126.14 45.0713C126.56 45.5303 126.77 46.1667 126.77 46.9805C126.77 47.778 126.543 48.4176 126.091 48.8994C125.642 49.3779 125.038 49.6172 124.279 49.6172ZM124.338 45.0566C123.824 45.0566 123.417 45.2324 123.117 45.584C122.818 45.9323 122.668 46.4141 122.668 47.0293C122.668 47.6217 122.819 48.0889 123.122 48.4307C123.425 48.7725 123.83 48.9434 124.338 48.9434C124.855 48.9434 125.253 48.7757 125.529 48.4404C125.809 48.1051 125.949 47.6283 125.949 47.0098C125.949 46.3848 125.809 45.903 125.529 45.5645C125.253 45.2259 124.855 45.0566 124.338 45.0566ZM139.201 42.498L137.224 49.5H136.262L134.821 44.3828C134.759 44.1647 134.722 43.9271 134.709 43.6699H134.689C134.67 43.9108 134.628 44.1452 134.562 44.373L133.112 49.5H132.16L130.109 42.498H131.013L132.502 47.8691C132.564 48.0938 132.603 48.3281 132.619 48.5723H132.644C132.66 48.3997 132.71 48.1654 132.795 47.8691L134.343 42.498H135.129L136.613 47.9082C136.665 48.0938 136.704 48.3118 136.73 48.5625H136.75C136.763 48.3932 136.807 48.1686 136.882 47.8887L138.312 42.498H139.201ZM143.327 49.5H142.526V48.7188H142.507C142.159 49.3177 141.646 49.6172 140.969 49.6172C140.471 49.6172 140.08 49.4854 139.797 49.2217C139.517 48.958 139.377 48.6081 139.377 48.1719C139.377 47.2376 139.927 46.694 141.027 46.541L142.526 46.3311C142.526 45.4814 142.183 45.0566 141.496 45.0566C140.894 45.0566 140.35 45.2617 139.865 45.6719V44.8516C140.357 44.5391 140.923 44.3828 141.564 44.3828C142.74 44.3828 143.327 45.0046 143.327 46.248V49.5ZM142.526 46.9707L141.32 47.1367C140.949 47.1888 140.669 47.2816 140.48 47.415C140.292 47.5452 140.197 47.778 140.197 48.1133C140.197 48.3574 140.284 48.5576 140.456 48.7139C140.632 48.8669 140.865 48.9434 141.154 48.9434C141.551 48.9434 141.879 48.805 142.136 48.5283C142.396 48.2484 142.526 47.8952 142.526 47.4688V46.9707ZM148.815 44.5L146.516 50.3008C146.105 51.3359 145.529 51.8535 144.787 51.8535C144.579 51.8535 144.405 51.8324 144.265 51.79V51.0723C144.437 51.1309 144.595 51.1602 144.738 51.1602C145.142 51.1602 145.445 50.9193 145.646 50.4375L146.047 49.4902L144.094 44.5H144.982L146.335 48.3477C146.351 48.3965 146.385 48.5234 146.438 48.7285H146.467C146.483 48.6504 146.516 48.5267 146.564 48.3574L147.985 44.5H148.815ZM150.412 48.3867L149.631 50.7891H149.06L149.631 48.3867H150.412ZM159.465 49.207C158.947 49.4805 158.303 49.6172 157.531 49.6172C156.535 49.6172 155.738 49.2965 155.139 48.6553C154.54 48.014 154.24 47.1725 154.24 46.1309C154.24 45.0111 154.577 44.1061 155.251 43.416C155.925 42.7259 156.779 42.3809 157.814 42.3809C158.479 42.3809 159.029 42.4769 159.465 42.6689V43.543C158.964 43.263 158.41 43.123 157.805 43.123C157.001 43.123 156.348 43.3916 155.847 43.9287C155.349 44.4658 155.1 45.1836 155.1 46.082C155.1 46.9349 155.332 47.6152 155.798 48.123C156.267 48.6276 156.88 48.8799 157.639 48.8799C158.342 48.8799 158.951 48.7236 159.465 48.4111V49.207ZM164.362 49.5H163.562V48.7188H163.542C163.194 49.3177 162.681 49.6172 162.004 49.6172C161.506 49.6172 161.115 49.4854 160.832 49.2217C160.552 48.958 160.412 48.6081 160.412 48.1719C160.412 47.2376 160.962 46.694 162.062 46.541L163.562 46.3311C163.562 45.4814 163.218 45.0566 162.531 45.0566C161.929 45.0566 161.385 45.2617 160.9 45.6719V44.8516C161.392 44.5391 161.958 44.3828 162.6 44.3828C163.775 44.3828 164.362 45.0046 164.362 46.248V49.5ZM163.562 46.9707L162.355 47.1367C161.984 47.1888 161.704 47.2816 161.516 47.415C161.327 47.5452 161.232 47.778 161.232 48.1133C161.232 48.3574 161.319 48.5576 161.491 48.7139C161.667 48.8669 161.9 48.9434 162.189 48.9434C162.587 48.9434 162.914 48.805 163.171 48.5283C163.431 48.2484 163.562 47.8952 163.562 47.4688V46.9707ZM166.672 49.5H165.871V42.0977H166.672V49.5ZM171.872 49.5H171.071V48.7188H171.052C170.703 49.3177 170.191 49.6172 169.514 49.6172C169.016 49.6172 168.625 49.4854 168.342 49.2217C168.062 48.958 167.922 48.6081 167.922 48.1719C167.922 47.2376 168.472 46.694 169.572 46.541L171.071 46.3311C171.071 45.4814 170.728 45.0566 170.041 45.0566C169.439 45.0566 168.895 45.2617 168.41 45.6719V44.8516C168.902 44.5391 169.468 44.3828 170.109 44.3828C171.285 44.3828 171.872 45.0046 171.872 46.248V49.5ZM171.071 46.9707L169.865 47.1367C169.494 47.1888 169.214 47.2816 169.025 47.415C168.837 47.5452 168.742 47.778 168.742 48.1133C168.742 48.3574 168.828 48.5576 169.001 48.7139C169.177 48.8669 169.41 48.9434 169.699 48.9434C170.096 48.9434 170.424 48.805 170.681 48.5283C170.941 48.2484 171.071 47.8952 171.071 47.4688V46.9707ZM174.201 48.7773H174.182V49.5H173.381V42.0977H174.182V45.3789H174.201C174.595 44.7148 175.171 44.3828 175.93 44.3828C176.571 44.3828 177.072 44.6074 177.434 45.0566C177.798 45.5026 177.98 46.1016 177.98 46.8535C177.98 47.6901 177.777 48.3607 177.37 48.8652C176.963 49.3665 176.407 49.6172 175.7 49.6172C175.039 49.6172 174.54 49.3372 174.201 48.7773ZM174.182 46.7607V47.459C174.182 47.8724 174.315 48.224 174.582 48.5137C174.852 48.8001 175.194 48.9434 175.607 48.9434C176.092 48.9434 176.472 48.7578 176.745 48.3867C177.022 48.0156 177.16 47.4997 177.16 46.8389C177.16 46.2822 177.032 45.846 176.774 45.5303C176.517 45.2145 176.169 45.0566 175.729 45.0566C175.264 45.0566 174.89 45.2194 174.606 45.5449C174.323 45.8672 174.182 46.2725 174.182 46.7607ZM182.839 49.5H182.038V48.7188H182.019C181.67 49.3177 181.158 49.6172 180.48 49.6172C179.982 49.6172 179.592 49.4854 179.309 49.2217C179.029 48.958 178.889 48.6081 178.889 48.1719C178.889 47.2376 179.439 46.694 180.539 46.541L182.038 46.3311C182.038 45.4814 181.695 45.0566 181.008 45.0566C180.406 45.0566 179.862 45.2617 179.377 45.6719V44.8516C179.868 44.5391 180.435 44.3828 181.076 44.3828C182.251 44.3828 182.839 45.0046 182.839 46.248V49.5ZM182.038 46.9707L180.832 47.1367C180.461 47.1888 180.181 47.2816 179.992 47.415C179.803 47.5452 179.709 47.778 179.709 48.1133C179.709 48.3574 179.795 48.5576 179.968 48.7139C180.144 48.8669 180.376 48.9434 180.666 48.9434C181.063 48.9434 181.39 48.805 181.647 48.5283C181.908 48.2484 182.038 47.8952 182.038 47.4688V46.9707ZM184.045 49.3193V48.46C184.481 48.7822 184.961 48.9434 185.485 48.9434C186.188 48.9434 186.54 48.709 186.54 48.2402C186.54 48.1068 186.509 47.9945 186.447 47.9033C186.389 47.8089 186.307 47.7259 186.203 47.6543C186.102 47.5827 185.982 47.5192 185.842 47.4639C185.705 47.4053 185.557 47.3451 185.397 47.2832C185.176 47.1953 184.981 47.1074 184.812 47.0195C184.646 46.9284 184.506 46.8275 184.392 46.7168C184.281 46.6029 184.196 46.4743 184.138 46.3311C184.082 46.1878 184.055 46.0202 184.055 45.8281C184.055 45.5938 184.108 45.387 184.216 45.208C184.323 45.0257 184.466 44.8743 184.646 44.7539C184.825 44.6302 185.028 44.5374 185.256 44.4756C185.487 44.4137 185.725 44.3828 185.969 44.3828C186.402 44.3828 186.789 44.4577 187.131 44.6074V45.418C186.763 45.1771 186.34 45.0566 185.861 45.0566C185.712 45.0566 185.576 45.0745 185.456 45.1104C185.336 45.1429 185.231 45.1901 185.144 45.252C185.059 45.3138 184.992 45.3887 184.943 45.4766C184.898 45.5612 184.875 45.6556 184.875 45.7598C184.875 45.89 184.898 45.999 184.943 46.0869C184.992 46.1748 185.062 46.2529 185.153 46.3213C185.244 46.3896 185.355 46.4515 185.485 46.5068C185.616 46.5622 185.764 46.6224 185.93 46.6875C186.151 46.7721 186.35 46.86 186.525 46.9512C186.701 47.0391 186.851 47.14 186.975 47.2539C187.098 47.3646 187.193 47.4932 187.258 47.6396C187.326 47.7861 187.36 47.9603 187.36 48.1621C187.36 48.4095 187.305 48.6243 187.194 48.8066C187.087 48.9889 186.942 49.1403 186.76 49.2607C186.577 49.3812 186.368 49.4707 186.13 49.5293C185.892 49.5879 185.643 49.6172 185.383 49.6172C184.868 49.6172 184.423 49.5179 184.045 49.3193ZM192.175 49.5H191.374V48.7188H191.354C191.006 49.3177 190.493 49.6172 189.816 49.6172C189.318 49.6172 188.928 49.4854 188.645 49.2217C188.365 48.958 188.225 48.6081 188.225 48.1719C188.225 47.2376 188.775 46.694 189.875 46.541L191.374 46.3311C191.374 45.4814 191.031 45.0566 190.344 45.0566C189.742 45.0566 189.198 45.2617 188.713 45.6719V44.8516C189.204 44.5391 189.771 44.3828 190.412 44.3828C191.587 44.3828 192.175 45.0046 192.175 46.248V49.5ZM191.374 46.9707L190.168 47.1367C189.797 47.1888 189.517 47.2816 189.328 47.415C189.139 47.5452 189.045 47.778 189.045 48.1133C189.045 48.3574 189.131 48.5576 189.304 48.7139C189.479 48.8669 189.712 48.9434 190.002 48.9434C190.399 48.9434 190.726 48.805 190.983 48.5283C191.244 48.2484 191.374 47.8952 191.374 47.4688V46.9707ZM193.381 49.3193V48.46C193.817 48.7822 194.297 48.9434 194.821 48.9434C195.524 48.9434 195.876 48.709 195.876 48.2402C195.876 48.1068 195.845 47.9945 195.783 47.9033C195.725 47.8089 195.643 47.7259 195.539 47.6543C195.438 47.5827 195.318 47.5192 195.178 47.4639C195.041 47.4053 194.893 47.3451 194.733 47.2832C194.512 47.1953 194.317 47.1074 194.147 47.0195C193.981 46.9284 193.841 46.8275 193.728 46.7168C193.617 46.6029 193.532 46.4743 193.474 46.3311C193.418 46.1878 193.391 46.0202 193.391 45.8281C193.391 45.5938 193.444 45.387 193.552 45.208C193.659 45.0257 193.802 44.8743 193.981 44.7539C194.16 44.6302 194.364 44.5374 194.592 44.4756C194.823 44.4137 195.061 44.3828 195.305 44.3828C195.738 44.3828 196.125 44.4577 196.467 44.6074V45.418C196.099 45.1771 195.676 45.0566 195.197 45.0566C195.048 45.0566 194.912 45.0745 194.792 45.1104C194.672 45.1429 194.567 45.1901 194.479 45.252C194.395 45.3138 194.328 45.3887 194.279 45.4766C194.234 45.5612 194.211 45.6556 194.211 45.7598C194.211 45.89 194.234 45.999 194.279 46.0869C194.328 46.1748 194.398 46.2529 194.489 46.3213C194.58 46.3896 194.691 46.4515 194.821 46.5068C194.951 46.5622 195.1 46.6224 195.266 46.6875C195.487 46.7721 195.686 46.86 195.861 46.9512C196.037 47.0391 196.187 47.14 196.311 47.2539C196.434 47.3646 196.529 47.4932 196.594 47.6396C196.662 47.7861 196.696 47.9603 196.696 48.1621C196.696 48.4095 196.641 48.6243 196.53 48.8066C196.423 48.9889 196.278 49.1403 196.096 49.2607C195.913 49.3812 195.703 49.4707 195.466 49.5293C195.228 49.5879 194.979 49.6172 194.719 49.6172C194.204 49.6172 193.758 49.5179 193.381 49.3193ZM205.549 49.207C205.031 49.4805 204.387 49.6172 203.615 49.6172C202.619 49.6172 201.822 49.2965 201.223 48.6553C200.624 48.014 200.324 47.1725 200.324 46.1309C200.324 45.0111 200.661 44.1061 201.335 43.416C202.009 42.7259 202.863 42.3809 203.898 42.3809C204.562 42.3809 205.113 42.4769 205.549 42.6689V43.543C205.048 43.263 204.494 43.123 203.889 43.123C203.085 43.123 202.432 43.3916 201.931 43.9287C201.433 44.4658 201.184 45.1836 201.184 46.082C201.184 46.9349 201.416 47.6152 201.882 48.123C202.351 48.6276 202.964 48.8799 203.723 48.8799C204.426 48.8799 205.035 48.7236 205.549 48.4111V49.207ZM212.395 49.5H211.486L210.744 47.5371H207.775L207.077 49.5H206.164L208.85 42.498H209.699L212.395 49.5ZM210.476 46.7998L209.377 43.8164C209.341 43.7188 209.305 43.5625 209.27 43.3477H209.25C209.217 43.5462 209.18 43.7025 209.138 43.8164L208.049 46.7998H210.476ZM213.601 49.6074C213.451 49.6074 213.322 49.5537 213.215 49.4463C213.111 49.3389 213.059 49.2103 213.059 49.0605C213.059 48.9108 213.111 48.7822 213.215 48.6748C213.322 48.5641 213.451 48.5088 213.601 48.5088C213.754 48.5088 213.884 48.5641 213.991 48.6748C214.099 48.7822 214.152 48.9108 214.152 49.0605C214.152 49.2103 214.099 49.3389 213.991 49.4463C213.884 49.5537 213.754 49.6074 213.601 49.6074ZM215.769 49.6074C215.619 49.6074 215.49 49.5537 215.383 49.4463C215.279 49.3389 215.227 49.2103 215.227 49.0605C215.227 48.9108 215.279 48.7822 215.383 48.6748C215.49 48.5641 215.619 48.5088 215.769 48.5088C215.922 48.5088 216.052 48.5641 216.159 48.6748C216.267 48.7822 216.32 48.9108 216.32 49.0605C216.32 49.2103 216.267 49.3389 216.159 49.4463C216.052 49.5537 215.922 49.6074 215.769 49.6074ZM217.937 49.6074C217.787 49.6074 217.658 49.5537 217.551 49.4463C217.447 49.3389 217.395 49.2103 217.395 49.0605C217.395 48.9108 217.447 48.7822 217.551 48.6748C217.658 48.5641 217.787 48.5088 217.937 48.5088C218.09 48.5088 218.22 48.5641 218.327 48.6748C218.435 48.7822 218.488 48.9108 218.488 49.0605C218.488 49.2103 218.435 49.3389 218.327 49.4463C218.22 49.5537 218.09 49.6074 217.937 49.6074Z" fill="black"/>
<path fill-rule="evenodd" clip-rule="evenodd" d="M303.091 22.5769H297.565C297.333 22.5769 297.102 22.7211 297.102 22.9519V23.8173C297.102 24.0481 297.304 24.3077 297.565 24.3077H299.851C300.111 24.3077 300.256 24.5961 300.053 24.7692L295.134 29.6731C294.96 29.8461 294.96 30.1057 295.134 30.2788L295.742 30.8846C295.915 31.0577 296.176 31.0577 296.349 30.8846L301.269 25.9808C301.442 25.8077 301.731 25.9231 301.731 26.1827V28.4615C301.731 28.6923 301.963 28.9519 302.194 28.9519H303.034C303.265 28.9519 303.468 28.6923 303.468 28.4615V22.9808C303.468 22.7211 303.323 22.5769 303.091 22.5769ZM299.503 29.3558L298.52 30.3654C298.346 30.5384 298.259 30.7404 298.259 30.9711V34.2596C298.259 34.4904 298.057 34.6923 297.825 34.6923H291.748C291.517 34.6923 291.314 34.4904 291.314 34.2596V28.2019C291.314 27.9711 291.517 27.7692 291.748 27.7692H295.076C295.308 27.7692 295.539 27.6827 295.684 27.5096L296.668 26.5288C296.841 26.3558 296.726 26.0384 296.465 26.0384H290.736C290.099 26.0384 289.578 26.5577 289.578 27.1923V35.2692C289.578 35.9038 290.099 36.4231 290.736 36.4231H298.838C299.474 36.4231 299.995 35.9038 299.995 35.2692V29.5577C299.995 29.2981 299.677 29.1827 299.503 29.3558Z" fill="#706E6B"/>
<rect x="17.9998" y="17.5" width="24" height="24" rx="4" fill="#A094ED"/>
<mask id="mask0_502_1737" style="mask-type:luminance" maskUnits="userSpaceOnUse" x="17" y="17" width="25" height="25">
<rect x="17.9998" y="17.5" width="24" height="24" rx="4" fill="white"/>
</mask>
<g mask="url(#mask0_502_1737)">
<path fill-rule="evenodd" clip-rule="evenodd" d="M23.1998 23.6917H36.7998C37.7348 23.6917 38.4998 24.4567 38.4998 25.3917V33.6083C38.4998 34.5433 37.7348 35.3083 36.7998 35.3083H23.1998C22.2648 35.3083 21.4998 34.5433 21.4998 33.6083V25.3917C21.4998 24.4567 22.2648 23.6917 23.1998 23.6917ZM27.1664 33.325H29.6031C30.1414 33.325 30.5664 32.73 30.5098 32.1633C30.4814 31.3133 29.6031 30.7467 28.6681 30.35C28.0164 30.095 27.9314 29.84 27.9314 29.5567C27.9314 29.2733 28.1014 29.0183 28.3281 28.82C28.7248 28.48 28.9231 27.97 28.9231 27.4033C28.9231 26.3267 28.2714 25.42 27.1381 25.42C26.0048 25.42 25.3531 26.3267 25.3531 27.4033C25.3531 27.97 25.5798 28.48 25.9481 28.82C26.1748 29.0183 26.3448 29.2733 26.3448 29.5567C26.3448 29.84 26.2598 30.095 25.6081 30.3783C24.6731 30.8033 23.7948 31.3133 23.7664 32.1633C23.7664 32.73 24.1914 33.325 24.7298 33.325H27.1664ZM36.2331 31.3417C36.2331 31.6533 35.9781 31.9083 35.6664 31.9083H33.1164C32.8048 31.9083 32.5498 31.6533 32.5498 31.3417V30.4916C32.5498 30.18 32.8048 29.925 33.1164 29.925H35.6664C35.9781 29.925 36.2331 30.18 36.2331 30.4916V31.3417ZM35.6664 28.7916C35.9781 28.7916 36.2331 28.5366 36.2331 28.225V27.375C36.2331 27.0633 35.9781 26.8083 35.6664 26.8083H31.4164C31.1048 26.8083 30.8498 27.0633 30.8498 27.375V28.225C30.8498 28.5366 31.1048 28.7916 31.4164 28.7916H35.6664Z" fill="white"/>
</g>
<rect x="182" y="4.5" width="13" height="13" rx="6.5" fill="#F4B96C"/>
<path d="M189.687 7.8418V15H188.148V9.58008C188.064 9.65495 187.963 9.72656 187.846 9.79492C187.732 9.86003 187.61 9.92025 187.479 9.97559C187.349 10.0277 187.214 10.0732 187.074 10.1123C186.934 10.1481 186.796 10.1742 186.659 10.1904V8.8916C187.06 8.77441 187.437 8.62467 187.792 8.44238C188.147 8.26009 188.467 8.0599 188.754 7.8418H189.687Z" fill="#181818"/>
<rect x="122" y="27" width="13" height="13" rx="6.5" fill="#F4B96C"/>
<path d="M127.719 36.2207H130.688V37.5H126.029V36.9727C126.029 36.6146 126.09 36.2939 126.21 36.0107C126.33 35.7243 126.482 35.4688 126.664 35.2441C126.846 35.0163 127.045 34.8161 127.26 34.6436C127.478 34.4678 127.685 34.3099 127.88 34.1699C128.085 34.0234 128.264 33.8835 128.417 33.75C128.573 33.6165 128.703 33.4847 128.808 33.3545C128.915 33.221 128.995 33.0876 129.047 32.9541C129.099 32.8174 129.125 32.6725 129.125 32.5195C129.125 32.2201 129.04 31.9938 128.871 31.8408C128.702 31.6878 128.443 31.6113 128.095 31.6113C127.493 31.6113 126.916 31.8506 126.366 32.3291V30.9717C126.975 30.5778 127.662 30.3809 128.427 30.3809C128.782 30.3809 129.099 30.4281 129.379 30.5225C129.662 30.6136 129.901 30.7454 130.097 30.918C130.292 31.0905 130.44 31.3005 130.541 31.5479C130.645 31.792 130.697 32.0654 130.697 32.3682C130.697 32.6904 130.647 32.9769 130.546 33.2275C130.448 33.4782 130.316 33.7061 130.15 33.9111C129.988 34.1162 129.799 34.305 129.584 34.4775C129.369 34.6468 129.146 34.8112 128.915 34.9707C128.759 35.0814 128.607 35.1921 128.461 35.3027C128.318 35.4102 128.191 35.5176 128.08 35.625C127.969 35.7292 127.882 35.8317 127.816 35.9326C127.751 36.0335 127.719 36.1296 127.719 36.2207Z" fill="#181818"/>
<rect x="218" y="39.5" width="13" height="13" rx="6.5" fill="#F4B96C"/>
<path d="M222.195 49.7705V48.4277C222.664 48.7695 223.211 48.9404 223.836 48.9404C224.23 48.9404 224.536 48.8558 224.754 48.6865C224.975 48.5173 225.086 48.2812 225.086 47.9785C225.086 47.666 224.949 47.4251 224.676 47.2559C224.406 47.0866 224.033 47.002 223.558 47.002H222.908V45.8203H223.509C224.42 45.8203 224.876 45.5176 224.876 44.9121C224.876 44.3424 224.526 44.0576 223.826 44.0576C223.357 44.0576 222.902 44.209 222.459 44.5117V43.252C222.951 43.0046 223.523 42.8809 224.178 42.8809C224.894 42.8809 225.451 43.042 225.848 43.3643C226.248 43.6865 226.448 44.1048 226.448 44.6191C226.448 45.5339 225.984 46.1068 225.057 46.3379V46.3623C225.551 46.4242 225.942 46.6048 226.229 46.9043C226.515 47.2005 226.658 47.5651 226.658 47.998C226.658 48.6523 226.419 49.1699 225.94 49.5508C225.462 49.9316 224.801 50.1221 223.958 50.1221C223.235 50.1221 222.648 50.0049 222.195 49.7705Z" fill="#181818"/>
</g>
<defs>
<filter id="filter0_d_502_1737" x="0" y="0.5" width="324" height="70" filterUnits="userSpaceOnUse" color-interpolation-filters="sRGB">
<feFlood flood-opacity="0" result="BackgroundImageFix"/>
<feColorMatrix in="SourceAlpha" type="matrix" values="0 0 0 0 0 0 0 0 0 0 0 0 0 0 0 0 0 0 127 0" result="hardAlpha"/>
<feOffset dy="2"/>
<feGaussianBlur stdDeviation="1"/>
<feColorMatrix type="matrix" values="0 0 0 0 0 0 0 0 0 0 0 0 0 0 0 0 0 0 0.1 0"/>
<feBlend mode="normal" in2="BackgroundImageFix" result="effect1_dropShadow_502_1737"/>
<feBlend mode="normal" in="SourceGraphic" in2="effect1_dropShadow_502_1737" result="shape"/>
</filter>
</defs>
</svg>
