<svg id="word" width="26" height="28" viewBox="0 0 26 28" fill="none" xmlns="http://www.w3.org/2000/svg">
<path d="M22.7451 14V15.2451H16.5049V14M22.7451 16.5049V17.75H16.5049V16.5049M22.7451 11.4951V12.7549H16.5049V11.4951M24.8838 6.5C25.1279 6.74414 25.25 7.03711 25.25 7.37891V26.4951C25.25 26.6709 25.2207 26.8369 25.1621 26.9932C25.0938 27.1396 25.0059 27.2715 24.8984 27.3887C24.7812 27.4961 24.6494 27.584 24.5029 27.6523C24.3467 27.7207 24.1807 27.7549 24.0049 27.7549H5.25488C5.0791 27.7549 4.91797 27.7207 4.77148 27.6523C4.61523 27.584 4.4834 27.4961 4.37598 27.3887C4.25879 27.2715 4.16602 27.1396 4.09766 26.9932C4.0293 26.8369 3.99512 26.6709 3.99512 26.4951V21.5H1.63672C1.44141 21.5 1.26074 21.4658 1.09473 21.3975C0.928711 21.3193 0.782227 21.2168 0.655273 21.0898C0.52832 20.9629 0.430664 20.8164 0.362305 20.6504C0.28418 20.4844 0.245117 20.3037 0.245117 20.1084V7.8916C0.245117 7.70605 0.28418 7.53027 0.362305 7.36426C0.430664 7.18848 0.52832 7.03711 0.655273 6.91016C0.782227 6.7832 0.928711 6.68555 1.09473 6.61719C1.26074 6.53906 1.44141 6.5 1.63672 6.5H3.99512V1.50488C3.99512 1.3291 4.0293 1.16797 4.09766 1.02148C4.16602 0.865234 4.25879 0.733398 4.37598 0.625977C4.4834 0.508789 4.61523 0.416016 4.77148 0.347656C4.91797 0.279297 5.0791 0.245117 5.25488 0.245117H18.1162C18.458 0.245117 18.751 0.367188 18.9951 0.611328M18.9951 6.5H23.1113L18.9951 2.38379M24.0049 7.74512H18.9951C18.6533 7.74512 18.3604 7.62305 18.1162 7.37891C17.8721 7.13477 17.75 6.8418 17.75 6.5V1.50488H5.25488V6.5H13.8682C14.0537 6.5 14.2344 6.53906 14.4102 6.61719C14.5762 6.68555 14.7227 6.7832 14.8496 6.91016C14.9668 7.03711 15.0645 7.18848 15.1426 7.36426C15.2109 7.53027 15.2451 7.70605 15.2451 7.8916V20.1084C15.2451 20.3037 15.2109 20.4844 15.1426 20.6504C15.0645 20.8164 14.9668 20.9629 14.8496 21.0898C14.7227 21.2168 14.5762 21.3193 14.4102 21.3975C14.2344 21.4658 14.0537 21.5 13.8682 21.5H5.25488V26.4951H24.0049M5.15234 15.8311L3.89258 9.41504H2.22266L4.25879 18.585H6.20703L7.49609 12.5352C7.50586 12.4766 7.52051 12.3887 7.54004 12.2715C7.55957 12.1445 7.5791 12.0176 7.59863 11.8906C7.61816 11.7539 7.64258 11.6221 7.67188 11.4951C7.69141 11.3682 7.71094 11.2754 7.73047 11.2168C7.73047 11.2656 7.74023 11.3486 7.75977 11.4658C7.7793 11.5732 7.80371 11.6904 7.83301 11.8174C7.85254 11.9443 7.87695 12.0713 7.90625 12.1982C7.92578 12.3252 7.94531 12.4277 7.96484 12.5059L9.3418 18.585H11.2607L13.2822 9.41504H11.6416L10.4844 15.7578C10.3965 16.1973 10.3379 16.583 10.3086 16.915C10.2695 16.4365 10.2109 16.0361 10.1328 15.7139L8.68262 9.41504H6.88086L5.48926 15.8164C5.44043 15.9629 5.40137 16.1484 5.37207 16.373C5.34277 16.5977 5.31348 16.7783 5.28418 16.915L5.15234 15.8311Z" fill="black"/>
<path d="M4.625 26.4951V1.50488C4.625 1.3291 4.68848 1.18262 4.81543 1.06543C4.93262 0.938477 5.0791 0.875 5.25488 0.875H18.1162C18.2725 0.875 18.4189 0.933594 18.5557 1.05078L24.4443 6.93945C24.5615 7.05664 24.6201 7.20312 24.6201 7.37891V26.4951C24.6201 26.6709 24.5615 26.8223 24.4443 26.9492C24.3174 27.0664 24.1709 27.125 24.0049 27.125H5.25488C5.0791 27.125 4.93262 27.0664 4.81543 26.9492C4.68848 26.8223 4.625 26.6709 4.625 26.4951Z" fill="#FAFAFA"/>
<path d="M24.8838 6.5C25.1279 6.74414 25.25 7.03711 25.25 7.37891V26.4951C25.25 26.6709 25.2207 26.8369 25.1621 26.9932C25.0938 27.1396 25.0059 27.2715 24.8984 27.3887C24.7812 27.4961 24.6494 27.584 24.5029 27.6523C24.3467 27.7207 24.1807 27.7549 24.0049 27.7549H5.25488C5.0791 27.7549 4.91797 27.7207 4.77148 27.6523C4.61523 27.584 4.4834 27.4961 4.37598 27.3887C4.25879 27.2715 4.16602 27.1396 4.09766 26.9932C4.0293 26.8369 3.99512 26.6709 3.99512 26.4951V1.50488C3.99512 1.3291 4.0293 1.16797 4.09766 1.02148C4.16602 0.865234 4.25879 0.733398 4.37598 0.625977C4.4834 0.508789 4.61523 0.416016 4.77148 0.347656C4.91797 0.279297 5.0791 0.245117 5.25488 0.245117H18.1162C18.458 0.245117 18.751 0.367188 18.9951 0.611328M18.9951 6.5H23.1113L18.9951 2.38379M24.0049 26.4951V7.74512H18.9951C18.6533 7.74512 18.3604 7.62305 18.1162 7.37891C17.8721 7.13477 17.75 6.8418 17.75 6.5V1.50488H5.25488V26.4951H24.0049Z" fill="#797774"/>
<path d="M22.7451 11.4951V12.7549H16.5049V11.4951H22.7451Z" fill="#41A5EE"/>
<path d="M22.7451 14V15.2451H16.5049V14H22.7451Z" fill="#2B7CD3"/>
<path d="M22.7451 16.5049V17.75H16.5049V16.5049H22.7451Z" fill="#185ABD"/>
<path d="M13.8682 21.5H1.63672C1.44141 21.5 1.26074 21.4658 1.09473 21.3975C0.928711 21.3193 0.782227 21.2168 0.655273 21.0898C0.52832 20.9629 0.430664 20.8164 0.362305 20.6504C0.28418 20.4844 0.245117 20.3037 0.245117 20.1084V7.8916C0.245117 7.70605 0.28418 7.53027 0.362305 7.36426C0.430664 7.18848 0.52832 7.03711 0.655273 6.91016C0.782227 6.7832 0.928711 6.68555 1.09473 6.61719C1.26074 6.53906 1.44141 6.5 1.63672 6.5H13.8682C14.0537 6.5 14.2344 6.53906 14.4102 6.61719C14.5762 6.68555 14.7227 6.7832 14.8496 6.91016C14.9668 7.03711 15.0645 7.18848 15.1426 7.36426C15.2109 7.53027 15.2451 7.70605 15.2451 7.8916V20.1084C15.2451 20.3037 15.2109 20.4844 15.1426 20.6504C15.0645 20.8164 14.9668 20.9629 14.8496 21.0898C14.7227 21.2168 14.5762 21.3193 14.4102 21.3975C14.2344 21.4658 14.0537 21.5 13.8682 21.5Z" fill="#185ABD"/>
<path d="M5.28418 16.915C5.31348 16.7783 5.34277 16.5977 5.37207 16.373C5.40137 16.1484 5.44043 15.9629 5.48926 15.8164L6.88086 9.41504H8.68262L10.1328 15.7139C10.2109 16.0361 10.2695 16.4365 10.3086 16.915C10.3184 16.749 10.3379 16.5732 10.3672 16.3877C10.3965 16.1924 10.4355 15.9824 10.4844 15.7578L11.6416 9.41504H13.2822L11.2607 18.585H9.3418L7.96484 12.5059C7.94531 12.4277 7.92578 12.3252 7.90625 12.1982C7.87695 12.0713 7.85254 11.9443 7.83301 11.8174C7.80371 11.6904 7.7793 11.5732 7.75977 11.4658C7.74023 11.3486 7.73047 11.2656 7.73047 11.2168C7.71094 11.2754 7.69141 11.3682 7.67188 11.4951C7.64258 11.6221 7.61816 11.7539 7.59863 11.8906C7.5791 12.0176 7.55957 12.1445 7.54004 12.2715C7.52051 12.3887 7.50586 12.4766 7.49609 12.5352L6.20703 18.585H4.25879L2.22266 9.41504H3.89258L5.15234 15.8311L5.28418 16.915Z" fill="white"/>
</svg>
