<svg id="unzip" width="16" height="17" viewBox="0 0 16 17" fill="none" xmlns="http://www.w3.org/2000/svg">
<path fill-rule="evenodd" clip-rule="evenodd" d="M14.3639 6.52599H11.263C10.2294 6.52599 9.3945 5.69113 9.3945 4.69725V1.59633C9.43425 1.27829 9.15596 1 8.79816 1H3.8685C2.83486 1 2 1.83486 2 2.82875V14.5168C2 15.5505 2.83486 16.3456 3.8685 16.3456H13.1315C14.1651 16.3456 15 15.5107 15 14.5168V7.16208C15 6.80428 14.7217 6.52599 14.3639 6.52599ZM14.8807 3.9419L12.0183 1.11927C11.9388 1.03976 11.8593 1 11.7401 1C11.5015 1 11.3027 1.19878 11.3027 1.43731V3.46483C11.3027 4.14067 11.8593 4.69725 12.5352 4.69725H14.5627C14.8012 4.69725 15 4.49847 15 4.25994C15 4.14067 14.9602 4.06116 14.8807 3.9419ZM7.03143 1.51235H6.10083V3.68974H5.42761C5.17021 3.68974 4.97221 3.88774 4.97221 4.14514C4.97221 4.40254 5.17021 4.60054 5.42761 4.60054H6.10083V6.32347H5.42761C5.17021 6.32347 4.97221 6.54127 4.97221 6.79867C4.97221 7.03627 5.17021 7.25407 5.42761 7.25407H6.10083V8.97615H5.42761C5.17021 8.97615 4.97221 9.17415 4.97221 9.43155C4.97221 9.68895 5.17021 9.90675 5.42761 9.90675H6.10083V11.1346H5.15045C4.89305 11.1346 4.69505 11.3524 4.69505 11.6098V12.778C4.69505 13.2136 4.87325 13.6294 5.17025 13.9264C5.46725 14.2036 5.88306 14.4016 6.31866 14.4016H6.81366C7.26906 14.4016 7.68486 14.2036 7.98186 13.9264C8.25906 13.6294 8.45706 13.2136 8.45706 12.778V11.6098C8.45706 11.3524 8.23926 11.1346 7.98186 11.1346H7.03143V9.90675H7.70462C7.96202 9.90675 8.17982 9.68895 8.17982 9.43155C8.17982 9.17415 7.96202 8.97615 7.70462 8.97615H7.03143V7.25407H7.70462C7.96202 7.25407 8.17982 7.03627 8.17982 6.79867C8.17982 6.54127 7.96202 6.32347 7.70462 6.32347H7.03143V4.60054H7.70462C7.96202 4.60054 8.17982 4.40254 8.17982 4.14514C8.17982 3.88774 7.96202 3.68974 7.70462 3.68974H7.03143V1.51235ZM5.62565 12.0652H6.5516C6.5597 12.0656 6.56785 12.0658 6.57603 12.0658C6.58422 12.0658 6.59234 12.0656 6.6004 12.0652H7.52646V12.778C7.52646 12.9562 7.44726 13.1344 7.32846 13.273C7.18986 13.3918 7.01166 13.471 6.81366 13.471H6.31866C6.12066 13.471 5.94246 13.3918 5.82366 13.273C5.70485 13.1344 5.62565 12.9562 5.62565 12.778V12.0652Z" fill="currentColor"/>
</svg>
