<?xml version="1.0" encoding="UTF-8"?>
<svg id="other" width="22px" height="28px" viewBox="0 0 22 28" version="1.1" xmlns="http://www.w3.org/2000/svg" xmlns:xlink="http://www.w3.org/1999/xlink">
    <title>Docrio / Icons / File Type / Other</title>
    <g id="Docrio-/-Icons-/-File-Type-/-Other" stroke="none" stroke-width="1" fill="none" fill-rule="evenodd">
        <g id="Base">
            <g id="Group">
                <path d="M2.00357143,0 C0.903571429,0 -2.13162821e-14,1.04137681 -2.13162821e-14,2.09262022 L-2.13162821e-14,20 C-2.13162821e-14,20 22,20 22,20 L22,7.00168762 L15.125,0 L2.00357143,0 Z" id="Shape" fill="#E9E9E9"></path>
                <path d="M15.125,0 L15.125,4.70078554 C15.125,5.82992302 15.8469612,7.0028559 17.1790981,6.99999478 L22,6.99999478 L15.125,0 Z" id="Shape" fill="#FFFFFF" opacity="0.248581659"></path>
            </g>
            <path d="M22,26.1762615 C22,27.1834845 21.1834845,28 20.1762615,28 L1.82373846,28 C0.816515522,28 1.01152765e-15,27.1834845 0,26.1762615 L0,20 L22,20 L22,26.1762615 Z" id="BG" fill="#612E94"></path>
            <path d="M22,7.00168762 L22,7.34983264 L17.3075403,7.34983264 C17.4338355,7.34983264 15.1233047,7.42232176 15.1250009,4.55 C15.1250009,4.55 15.1977522,7.00168762 17.3075403,7.00168762 L22,7.00168762 Z" id="Shape" fill="#CDCACA"></path>
        </g>
        <g id="Group-" transform="translate(6.000000, 7.000000)">
            <circle id="Oval" fill="#612E94" cx="5" cy="5" r="5"></circle>
            <path d="M5.95435685,5.17934783 C5.72199054,5.34239212 5.55325087,5.47826033 5.44813278,5.58695652 C5.34301469,5.69565272 5.29045643,5.82065147 5.29045643,5.96195652 L5.29045643,6.05163043 L4.29460581,6.05163043 L4.29460581,5.79891304 C4.29460581,5.5543466 4.36514452,5.35190298 4.50622407,5.19157609 C4.64730361,5.0312492 4.85615353,4.85597921 5.13278008,4.66576087 C5.38727651,4.48641215 5.57676286,4.32744635 5.70124481,4.1888587 C5.82572676,4.05027105 5.8879668,3.88043579 5.8879668,3.67934783 C5.8879668,3.43478139 5.8063632,3.23913117 5.64315353,3.0923913 C5.47994386,2.94565144 5.26002905,2.87228261 4.98340249,2.87228261 C4.7012434,2.87228261 4.45781568,2.92662989 4.25311203,3.03532609 C4.04840838,3.14402228 3.84647402,3.30978149 3.6473029,3.5326087 L3,2.97826087 C3.26002896,2.65760709 3.55601494,2.414403 3.8879668,2.2486413 C4.21991867,2.08287961 4.61272249,2 5.06639004,2 C5.44813469,2 5.78561402,2.07065147 6.07883817,2.21195652 C6.37206232,2.35326158 6.5988927,2.54755311 6.7593361,2.79483696 C6.9197795,3.0421208 7,3.32336799 7,3.63858696 C7,3.8831534 6.95020797,4.09782516 6.85062241,4.2826087 C6.75103685,4.46739223 6.63347232,4.62228198 6.49792531,4.74728261 C6.3623783,4.87228323 6.18119062,5.01630353 5.95435685,5.17934783 Z M4.16182573,7.38858696 C4.16182573,6.98097622 4.37205876,6.77717391 4.79253112,6.77717391 C5.01383237,6.77717391 5.17289025,6.83287988 5.26970954,6.94429348 C5.36652884,7.05570708 5.41493776,7.20380342 5.41493776,7.38858696 C5.41493776,7.57336957 5.36652884,7.72146683 5.26970954,7.83288043 C5.17289025,7.94429404 5.01383237,8 4.79253112,8 C4.37205876,8 4.16182573,7.79619769 4.16182573,7.38858696 Z" id="?" fill="#E9E9E9" fill-rule="nonzero"></path>
        </g>
        <text id="OTHER" font-family="SalesforceSans-Bold, Salesforce Sans" font-size="5" font-weight="bold" line-spacing="7" fill="#FFFFFF">
            <tspan x="2.6325" y="25.75">OTHER</tspan>
        </text>
    </g>
</svg>