<svg id="edit_check_out" width="26" height="29" viewBox="0 0 26 29" fill="none" xmlns="http://www.w3.org/2000/svg">
<rect width="26" height="29" fill="white" fill-opacity="0"/>
<path d="M3.5 8.99332V8.94312H5.5C5.8 8.94312 6 8.79255 6 8.49141C6.01031 7.81218 6.1601 7.1424 6.44 6.52392C6.85096 5.57207 7.54565 4.77143 8.42849 4.23215C9.31134 3.69287 10.339 3.44145 11.37 3.51247C12.6595 3.63497 13.8556 4.24069 14.72 5.20892C15.5825 6.17555 16.0472 7.43491 16.02 8.73232V8.53156C16.02 8.83271 16.22 8.98328 16.52 8.98328H18.52C18.82 8.98328 19.02 8.83271 19.02 8.53156C19.0291 7.441 18.8111 6.36057 18.38 5.3595C17.9504 4.36096 17.3246 3.45964 16.54 2.70942C15.7498 1.95706 14.8137 1.37616 13.79 1.00293C12.7713 0.621073 11.6862 0.450336 10.6 0.501018C8.55921 0.634653 6.64355 1.53546 5.23497 3.02384C3.82639 4.51222 3.02836 6.47882 3 8.53156C3.01951 8.65176 3.07952 8.76161 3.17 8.84274C3.25943 8.9296 3.376 8.98279 3.5 8.99332V8.99332Z" fill="currentColor"/>
<path d="M13.02 23.5085L14.25 22.2738L20.64 15.8795C20.71 15.7992 20.85 15.6687 21 15.5181V12.9584C21 12.4259 20.7893 11.9153 20.4142 11.5388C20.0391 11.1623 19.5304 10.9508 19 10.9508H3C2.47042 10.953 1.96335 11.166 1.59 11.543C1.21441 11.9178 1.00223 12.4268 1 12.9584V22.4947C1.00223 23.0263 1.21441 23.5353 1.59 23.91C1.96335 24.2871 2.47042 24.5001 3 24.5023H12.44C12.5698 24.1376 12.7666 23.8005 13.02 23.5085ZM8.75 21.2901C8.69882 21.226 8.66444 21.1501 8.65 21.0692C8.63008 20.9936 8.63008 20.914 8.65 20.8384L9.55 17.8269C9.17666 17.5584 8.88531 17.1907 8.70866 16.7651C8.53201 16.3395 8.47707 15.8729 8.55 15.4177C8.60967 14.7522 8.9303 14.1377 9.44133 13.7094C9.69437 13.4973 9.98654 13.3374 10.3012 13.2387C10.6158 13.1399 10.9467 13.1044 11.275 13.1341C11.6033 13.1637 11.9226 13.258 12.2146 13.4115C12.5066 13.565 12.7656 13.7748 12.9769 14.0288C13.1881 14.2828 13.3475 14.5761 13.4458 14.8919C13.5441 15.2077 13.5795 15.5399 13.55 15.8695C13.5648 16.267 13.4756 16.6615 13.2914 17.0137C13.1072 17.3659 12.8344 17.6636 12.5 17.8771L13.4 20.8886H13.35C13.3699 20.9642 13.3699 21.0438 13.35 21.1194C13.3314 21.1989 13.2974 21.274 13.25 21.3403C13.2017 21.4031 13.1403 21.4545 13.07 21.4908C12.9975 21.5229 12.9192 21.54 12.84 21.541H9.15C9.07413 21.5387 8.99943 21.5216 8.93 21.4908C8.85409 21.4402 8.79216 21.3712 8.75 21.2901V21.2901Z" fill="currentColor"/>
<path fill-rule="evenodd" clip-rule="evenodd" d="M15.3728 24.2578L17.6009 26.51L17.7062 26.5898H17.8027H17.8904L17.9781 26.5277L23.5483 20.8706L23.6097 20.7908C23.6131 20.7584 23.6131 20.7257 23.6097 20.6933C23.6146 20.6609 23.6146 20.628 23.6097 20.5957C23.5965 20.5641 23.5753 20.5366 23.5483 20.5159L21.3378 18.2903C21.3189 18.2633 21.2907 18.2443 21.2588 18.2371C21.2273 18.228 21.1938 18.228 21.1623 18.2371H21.0658L20.9869 18.2903L15.3728 23.9297C15.3477 23.9523 15.3268 23.9793 15.3114 24.0095C15.3065 24.0389 15.3065 24.0688 15.3114 24.0982C15.3074 24.1276 15.3074 24.1574 15.3114 24.1869L15.3728 24.2578Z" fill="currentColor"/>
<path fill-rule="evenodd" clip-rule="evenodd" d="M22.0921 17.2351C22.0677 17.2564 22.0495 17.284 22.0395 17.3149C22.0305 17.3468 22.0305 17.3806 22.0395 17.4125C22.0317 17.4445 22.0317 17.478 22.0395 17.51C22.054 17.5386 22.0716 17.5654 22.0921 17.5898L24.2939 19.8066L24.3728 19.8686H24.4693H24.5658C24.5957 19.8531 24.6225 19.832 24.6448 19.8066L25.2764 19.1859C25.3719 19.0972 25.4468 18.9882 25.4957 18.8667C25.5496 18.7471 25.5766 18.6168 25.5746 18.4854C25.5737 18.3542 25.5468 18.2246 25.4957 18.1041C25.4441 17.9867 25.3695 17.8811 25.2764 17.7938L24.0921 16.5967C24.0009 16.5002 23.8902 16.4246 23.7676 16.375C23.6456 16.3224 23.5143 16.2952 23.3816 16.2952C23.2489 16.2952 23.1177 16.3224 22.9957 16.375C22.8742 16.4268 22.7639 16.5021 22.6711 16.5967L22.0921 17.2351V17.2351Z" fill="currentColor"/>
<path fill-rule="evenodd" clip-rule="evenodd" d="M13.5132 27.9731C13.4956 28.0308 13.4956 28.0926 13.5132 28.1504C13.526 28.2087 13.5567 28.2615 13.6009 28.3011C13.6426 28.3447 13.6936 28.378 13.75 28.3987C13.8078 28.4117 13.8677 28.4117 13.9255 28.3987L16.6623 27.7337C16.7488 27.7159 16.8281 27.6727 16.8904 27.6095C16.9284 27.5616 16.9499 27.5024 16.9518 27.441C16.9487 27.3826 16.9271 27.3267 16.8904 27.2814L14.636 24.9938C14.5872 24.959 14.529 24.9404 14.4693 24.9404C14.4097 24.9404 14.3515 24.959 14.3027 24.9938V24.9938C14.2401 25.0567 14.1974 25.1369 14.1799 25.2243L13.522 27.9908L13.5132 27.9731Z" fill="currentColor"/>
</svg>
