<?xml version="1.0" encoding="UTF-8"?>
<svg id="email" width="22px" height="28px" viewBox="0 0 22 28" version="1.1" xmlns="http://www.w3.org/2000/svg" xmlns:xlink="http://www.w3.org/1999/xlink">
    <title>Docrio / Icons / File Type / Email </title>
    <g id="Docrio-/-Icons-/-File-Type-/-Email-" stroke="none" stroke-width="1" fill="none" fill-rule="evenodd">
        <g id="Base">
            <g id="Group">
                <path d="M2.00357143,0 C0.903571429,0 -2.13162821e-14,1.04137681 -2.13162821e-14,2.09262022 L-2.13162821e-14,20 C-2.13162821e-14,20 22,20 22,20 L22,7.00168762 L15.125,0 L2.00357143,0 Z" id="Shape" fill="#E9E9E9"></path>
                <path d="M15.125,0 L15.125,4.70078554 C15.125,5.82992302 15.8469612,7.0028559 17.1790981,6.99999478 L22,6.99999478 L15.125,0 Z" id="Shape" fill="#FFFFFF" opacity="0.248581659"></path>
            </g>
            <path d="M22,26.1762615 C22,27.1834845 21.1834845,28 20.1762615,28 L1.82373846,28 C0.816515522,28 1.01152765e-15,27.1834845 0,26.1762615 L0,20 L22,20 L22,26.1762615 Z" id="BG" fill="#2E5794"></path>
            <path d="M22,7.00168762 L22,7.34983264 L17.3075403,7.34983264 C17.4338355,7.34983264 15.1233047,7.42232176 15.1250009,4.55 C15.1250009,4.55 15.1977522,7.00168762 17.3075403,7.00168762 L22,7.00168762 Z" id="Shape" fill="#CDCACA"></path>
        </g>
        <text id="EMAIL" font-family="SalesforceSans-Bold, Salesforce Sans" font-size="5" font-weight="bold" line-spacing="7" fill="#FFFFFF">
            <tspan x="3.275" y="25.75">EMAIL</tspan>
        </text>
        <g id="Group-5" transform="translate(6.000000, 9.000000)">
            <rect id="Rectangle" fill="#2E5794" x="0" y="1" width="10" height="6" rx="1"></rect>
            <path d="M5.13830177,1.13830177 L9.66611,5.66611 C9.74249195,5.74249195 9.74249195,5.86633158 9.66611,5.94271353 C9.62943009,5.97939344 9.57968145,6 9.52780823,6 L0.47219177,6 C0.364171371,6 0.276603535,5.91243216 0.276603535,5.80441176 C0.276603535,5.75253854 0.297210093,5.70278991 0.333890003,5.66611 L4.86169823,1.13830177 C4.93808019,1.06191981 5.06191981,1.06191981 5.13830177,1.13830177 Z" id="Triangle" fill="#E9E9E9" transform="translate(5.000000, 3.500000) scale(1, -1) translate(-5.000000, -3.500000) "></path>
            <path d="M5.13830177,0.138301767 L9.66611,4.66611 C9.74249195,4.74249195 9.74249195,4.86633158 9.66611,4.94271353 C9.62943009,4.97939344 9.57968145,5 9.52780823,5 L0.47219177,5 C0.364171371,5 0.276603535,4.91243216 0.276603535,4.80441176 C0.276603535,4.75253854 0.297210093,4.70278991 0.333890003,4.66611 L4.86169823,0.138301767 C4.93808019,0.0619198104 5.06191981,0.0619198104 5.13830177,0.138301767 Z" id="Triangle" fill="#2E5794" transform="translate(5.000000, 2.500000) scale(1, -1) translate(-5.000000, -2.500000) "></path>
        </g>
    </g>
</svg>