<?xml version="1.0" encoding="UTF-8"?>
<svg width="250px" height="70px" viewBox="0 0 250 70" version="1.1" xmlns="http://www.w3.org/2000/svg" xmlns:xlink="http://www.w3.org/1999/xlink">
    <title>Group</title>
    <defs>
        <rect id="path-1" x="0" y="0" width="242" height="62"></rect>
        <filter x="-2.9%" y="-8.1%" width="105.8%" height="122.6%" filterUnits="objectBoundingBox" id="filter-3">
            <feOffset dx="0" dy="2" in="SourceAlpha" result="shadowOffsetOuter1"></feOffset>
            <feGaussianBlur stdDeviation="2" in="shadowOffsetOuter1" result="shadowBlurOuter1"></feGaussianBlur>
            <feColorMatrix values="0 0 0 0 0   0 0 0 0 0   0 0 0 0 0  0 0 0 0.5 0" type="matrix" in="shadowBlurOuter1"></feColorMatrix>
        </filter>
    </defs>
    <g id="211007-EM-361:-Litify-Activity-Timeline-Settings" stroke="none" stroke-width="1" fill="none" fill-rule="evenodd">
        <g id="Group" transform="translate(4.000000, 2.000000)">
            <mask id="mask-2" fill="white">
                <use xlink:href="#path-1"></use>
            </mask>
            <g id="Mask">
                <use fill="black" fill-opacity="1" filter="url(#filter-3)" xlink:href="#path-1"></use>
                <use fill="#FFFFFF" fill-rule="evenodd" xlink:href="#path-1"></use>
            </g>
            <g mask="url(#mask-2)">
                <g>
                    <g id="Previews---Display-Field">
                        <rect id="Rectangle" stroke="#F3F2F1" fill="#FFFFFF" x="0.5" y="0.5" width="241" height="61"></rect>
                        <g id="Email-/-Navigation-/-Header-Both-Borders" transform="translate(1.000000, 1.000000)">
                            <rect id="Rectangle-34" fill="#FAFAF9" x="0" y="0" width="240" height="23"></rect>
                            <text id="Activity-Timeline" font-family="Helvetica" font-size="9" font-weight="normal" line-spacing="9" fill="#080707">
                                <tspan x="12" y="16">Activity Timeline</tspan>
                            </text>
                            <polygon id="Rectangle-34" fill="#F3F2F1" points="0 23 240 23 240 24 0 24"></polygon>
                        </g>
                        <g id="Panel-/-Object-/-Saved-Locations-/-Selected-Sent" transform="translate(1.000000, 25.000000)">
                            <g id="Group-5" fill="#FFFFFF">
                                <polygon id="Rectangle-34" points="0 0 240 0 240 36 0 36"></polygon>
                            </g>
                            <g id="Fluent-Icon-/-Outlined-w/Padding-/-Folder-Copy-2-3-Copy-2Email-Copy-2" transform="translate(3.000000, 0.000000)">
                                <g id="Icon-/-Litify-/-Saved-Location-Blue" transform="translate(9.000000, 9.000000)" fill="#95AEC5">
                                    <path d="M1.5,18 L16.5,18 C17.3284271,18 18,17.3284271 18,16.5 L18,1.5 C18,0.671572875 17.3284271,-1.52179594e-16 16.5,0 L1.5,0 C0.671572875,1.52179594e-16 -1.01453063e-16,0.671572875 0,1.5 L0,16.5 C1.01453063e-16,17.3284271 0.671572875,18 1.5,18 Z" id="Fill-1"></path>
                                </g>
                                <g id="email" transform="translate(13.500000, 14.625000)" fill="#FFFFFF" fill-rule="nonzero">
                                    <path d="M4.29214695,4.24454148 C4.41209225,4.34770742 4.57701704,4.34770742 4.69696234,4.24454148 L8.94002735,0.383187773 C9.01499316,0.23580786 9,0 8.70013675,0 L0.303965704,0.0147379913 C0.0790682654,0.0147379913 -0.100849686,0.221069869 0.0640751028,0.397925764 L4.29214695,4.24454148 Z" id="Path"></path>
                                    <path d="M8.98500684,2.03384279 C8.98500684,1.84224891 8.74511624,1.73908297 8.61017777,1.87172489 L5.31168201,4.87827511 C5.08678457,5.08460699 4.80191448,5.18777293 4.50205123,5.18777293 C4.20218797,5.18777293 3.91731789,5.08460699 3.69242045,4.87827511 L0.378931517,1.87172489 C0.228999891,1.73908297 0.00410245252,1.84224891 0.00410245252,2.03384279 C0.00410245252,3.1981441 0.00410245252,5.86572052 0.00410245252,5.86572052 C0.00410245252,6.35207424 0.408917842,6.75 0.903692207,6.75 L8.10041025,6.75 C8.59518461,6.75 9,6.35207424 9,5.86572052 C8.98500684,5.86572052 8.98500684,3.2128821 8.98500684,2.03384279 Z" id="Path"></path>
                                </g>
                            </g>
                            <g id="Group-2" transform="translate(39.000000, 13.000000)" fill="#000000" font-family="Helvetica" font-size="9.75" font-weight="normal" line-spacing="9.75">
                                <text id="Updated-expenses-for">
                                    <tspan x="0" y="10">Updated expenses for 2021</tspan>
                                </text>
                            </g>
                            <g id="Icon-/-Unchecked-Active-New" transform="translate(216.000000, 12.000000)" stroke="#1B1B1B">
                                <rect id="Focus-State" stroke-width="1.05" fill="#FFFFFF" x="0.525" y="0.525" width="10.95" height="10.95" rx="5.475"></rect>
                                <path d="M6.18232201,2.82965676 C6.30823146,2.82471421 6.42863575,2.87561776 6.51530926,2.96229127 C6.59811633,3.04509834 6.6482736,3.15869391 6.6482736,3.27846372 L6.6482736,3.27846372 L6.6482736,5.3517264 L8.72153628,5.3517264 C8.84130609,5.3517264 8.95490166,5.40188367 9.03770873,5.48469074 C9.1205158,5.56749782 9.17067308,5.68109339 9.17067308,5.8008632 L9.17067308,5.8008632 L9.17067308,6.1991368 C9.17067308,6.31890661 9.1205158,6.43250218 9.03770873,6.51530926 C8.95490166,6.59811633 8.84130609,6.6482736 8.72724907,6.64820832 C7.95662926,6.66582249 7.37866199,6.68558975 6.99335172,6.70760748 C6.80727739,6.71824029 6.66770068,6.72921472 6.57466065,6.74091118 L6.648,6.733 L6.6482736,8.72153628 C6.6482736,8.81136364 6.62006014,8.89771798 6.57101917,8.97021518 L6.51530926,9.03770873 C6.43250218,9.1205158 6.31890661,9.17067308 6.1991368,9.17067308 L6.1991368,9.17067308 L5.8008632,9.17067308 C5.68109339,9.17067308 5.56749782,9.1205158 5.48469074,9.03770873 C5.40188367,8.95490166 5.3517264,8.84130609 5.3517264,8.72153628 L5.3517264,8.72153628 L5.3517264,6.6482736 L3.27846372,6.6482736 C3.15869391,6.6482736 3.04509834,6.59811633 2.96229127,6.51530926 C2.8794842,6.43250218 2.82932692,6.31890661 2.82932692,6.1991368 L2.82932692,6.1991368 L2.82932692,5.8008632 C2.82932692,5.68109339 2.8794842,5.56749782 2.96229127,5.48469074 C3.04509834,5.40188367 3.15869391,5.3517264 3.27846372,5.3517264 L3.27846372,5.3517264 L5.3517264,5.3517264 L5.3517264,3.27846372 Z" id="Path" stroke-width="0.5" fill="#1B1B1B"></path>
                            </g>
                        </g>
                    </g>
                    <g id="-Numbers" transform="translate(5.000000, 25.500000)">
                        <g id="Group-2" transform="translate(202.000000, 3.000000)">
                            <circle id="Oval-Copy-4" fill="#FFB75D" cx="8" cy="8" r="8"></circle>
                            <path d="M10.1654666,11.483871 L10.1654666,10.2387673 L7.39962558,10.2387673 L7.39962558,10.2102535 L8.8015553,8.96514977 C9.75518433,8.11607143 10.2319988,7.29392281 10.2319988,6.49870392 C10.2319988,5.9030818 10.0363623,5.43022753 9.64508929,5.08014113 C9.25381624,4.73005472 8.70967742,4.55501152 8.01267281,4.55501152 C7.26814516,4.55501152 6.59965438,4.74668779 6.00720046,5.13004032 L6.00720046,5.13004032 L6.00720046,6.45118088 C6.54262673,5.98545507 7.10339862,5.75259217 7.68951613,5.75259217 C8.36434332,5.75259217 8.70175691,6.06624424 8.70175691,6.69354839 C8.70175691,6.97551843 8.62175979,7.24402362 8.46176555,7.49906394 C8.30177131,7.75410426 8.02534562,8.07013249 7.63248848,8.44714862 L7.63248848,8.44714862 L5.67929147,10.3148041 L5.67929147,11.483871 L10.1654666,11.483871 Z" id="2" fill="#1B1B1B" fill-rule="nonzero"></path>
                        </g>
                        <g id="1">
                            <g id="Group" fill="#FFB75D">
                                <circle id="Oval-Copy-4" cx="8" cy="8" r="8"></circle>
                            </g>
                            <polygon fill="#1B1B1B" fill-rule="nonzero" points="10.2795219 11.3548387 10.2795219 10.1667627 8.87759217 10.1667627 8.87759217 4.42597926 5.93116359 5.02001728 5.93116359 6.23660714 7.38061636 5.92295507 7.38061636 10.1667627 5.96918203 10.1667627 5.96918203 11.3548387"></polygon>
                        </g>
                    </g>
                </g>
            </g>
        </g>
    </g>
</svg>