<?xml version="1.0" encoding="UTF-8"?>
<svg id="ppt" width="22px" height="28px" viewBox="0 0 22 28" version="1.1" xmlns="http://www.w3.org/2000/svg" xmlns:xlink="http://www.w3.org/1999/xlink">
    <title>Docrio / Icons / File Type / PPT  </title>
    <g id="Docrio-/-Icons-/-File-Type-/-PPT--" stroke="none" stroke-width="1" fill="none" fill-rule="evenodd">
        <g id="Base">
            <g id="Group">
                <path d="M2.00357143,0 C0.903571429,0 -2.13162821e-14,1.04137681 -2.13162821e-14,2.09262022 L-2.13162821e-14,20 C-2.13162821e-14,20 22,20 22,20 L22,7.00168762 L15.125,0 L2.00357143,0 Z" id="Shape" fill="#E9E9E9"></path>
                <path d="M15.125,0 L15.125,4.70078554 C15.125,5.82992302 15.8469612,7.0028559 17.1790981,6.99999478 L22,6.99999478 L15.125,0 Z" id="Shape" fill="#FFFFFF" opacity="0.248581659"></path>
            </g>
            <path d="M22,26.1762615 C22,27.1834845 21.1834845,28 20.1762615,28 L1.82373846,28 C0.816515522,28 1.01152765e-15,27.1834845 0,26.1762615 L0,20 L22,20 L22,26.1762615 Z" id="BG" fill="#D26F44"></path>
            <path d="M22,7.00168762 L22,7.34983264 L17.3075403,7.34983264 C17.4338355,7.34983264 15.1233047,7.42232176 15.1250009,4.55 C15.1250009,4.55 15.1977522,7.00168762 17.3075403,7.00168762 L22,7.00168762 Z" id="Shape" fill="#CDCACA"></path>
        </g>
        <text id="PPT" font-family="SalesforceSans-Bold, Salesforce Sans" font-size="5" font-weight="bold" line-spacing="7" fill="#FFFFFF">
            <tspan x="6.4475" y="25.75">PPT</tspan>
        </text>
        <g id="Graph" transform="translate(11.687500, 12.900000)" fill="#D26F44">
            <polygon id="Rectangle" transform="translate(1.375000, 3.500000) rotate(90.000000) translate(-1.375000, -3.500000) " points="0.675 2.8125 2.075 2.8125 2.075 4.1875 0.675 4.1875"></polygon>
            <polygon id="Rectangle" transform="translate(3.437500, 2.100000) rotate(90.000000) translate(-3.437500, -2.100000) " points="1.3375 1.4125 5.5375 1.4125 5.5375 2.7875 1.3375 2.7875"></polygon>
            <polygon id="Rectangle" transform="translate(5.500000, 2.800000) rotate(90.000000) translate(-5.500000, -2.800000) " points="4.1 2.1125 6.9 2.1125 6.9 3.4875 4.1 3.4875"></polygon>
        </g>
        <g id="Pie" transform="translate(4.125000, 5.900000)">
            <ellipse id="Oval" fill="#D26F44" cx="4.41145833" cy="5.30833333" rx="4.41145833" ry="4.49166667"></ellipse>
            <rect id="Rectangle" fill="#E9E9E9" x="4.57973856" y="0.473986928" width="4.57973856" height="4.66300654"></rect>
            <path d="M5.61458333,4.08333333 C7.09117798,4.08333333 8.42798353,4.08333333 9.625,4.08333333 C9.625,2.94384003 9.16658463,1.91336207 8.42728309,1.17265647 C7.70343846,0.447437121 6.71033009,0 5.61458333,0 L5.61458333,4.08333333 Z" id="Oval" fill="#D26F44"></path>
        </g>
    </g>
</svg>