<svg width="58" height="12" viewBox="0 0 58 12" fill="none" xmlns="http://www.w3.org/2000/svg">
<g clip-path="url(#clip0_1607_176935)">
<rect x="0.461548" width="57" height="12" rx="6" fill="#ECEBEA"/>
<circle cx="7.96155" cy="6" r="3.5" fill="#2E844A"/>
<path d="M15.904 9V3.90909H16.9804V8.11257H19.1629V9H15.904ZM21.452 3.90909V9H20.3757V3.90909H21.452ZM23.7574 3.90909L24.9878 7.77699H25.0351L26.268 3.90909H27.4612L25.7062 9H24.3191L22.5617 3.90909H23.7574ZM28.5739 9V3.90909H32.0043V4.79652H29.6503V6.00959H31.8278V6.89702H29.6503V8.11257H32.0143V9H28.5739ZM35.4802 9V3.90909H38.9106V4.79652H36.5565V6.00959H38.7341V6.89702H36.5565V8.11257H38.9205V9H35.4802ZM42.071 9H40.2663V3.90909H42.0859C42.598 3.90909 43.0388 4.01101 43.4084 4.21484C43.7779 4.41702 44.0621 4.70786 44.261 5.08736C44.4615 5.46686 44.5618 5.92093 44.5618 6.44957C44.5618 6.97988 44.4615 7.43561 44.261 7.81676C44.0621 8.19792 43.7763 8.49041 43.4034 8.69425C43.0322 8.89808 42.5881 9 42.071 9ZM41.3427 8.07777H42.0263C42.3444 8.07777 42.6121 8.02143 42.8292 7.90874C43.0479 7.79439 43.212 7.6179 43.3214 7.37926C43.4324 7.13897 43.4879 6.82907 43.4879 6.44957C43.4879 6.07339 43.4324 5.76598 43.3214 5.52734C43.212 5.28871 43.0488 5.11304 42.8317 5.00035C42.6146 4.88767 42.3469 4.83132 42.0288 4.83132H41.3427V8.07777ZM46.9354 3.90909V9H45.8591V3.90909H46.9354ZM48.1271 4.79652V3.90909H52.3082V4.79652H50.7496V9H49.6857V4.79652H48.1271Z" fill="#080707"/>
</g>
<defs>
<clipPath id="clip0_1607_176935">
<rect x="0.461548" width="57" height="12" rx="6" fill="white"/>
</clipPath>
</defs>
</svg>
