<svg id="restore" width="17" height="17" viewBox="0 0 17 17" fill="none" xmlns="http://www.w3.org/2000/svg">
<path fill-rule="evenodd" clip-rule="evenodd" d="M1.84224 1.45313L2.76532 1.45313C3.01147 1.45313 3.22685 1.66851 3.22685 1.91466V4.06851C3.22685 4.34543 3.3807 4.46851 3.59608 4.28389C3.68839 4.16082 3.7807 4.06851 3.90378 3.9762C5.44224 2.43774 7.59608 1.79159 9.81147 2.22236C10.5807 2.3762 11.3192 2.68389 11.9653 3.11466C13.8422 4.34543 14.9192 6.34543 14.9499 8.49928C14.9807 10.1608 14.3345 11.8224 13.1653 13.0224C11.9345 14.3147 10.273 15.0224 8.48839 15.0224C6.91916 15.0224 5.44224 14.4685 4.27301 13.4839C4.05762 13.2993 4.05762 12.9916 4.24224 12.807L4.88839 12.1608C5.04224 12.007 5.31916 11.9762 5.50378 12.13C6.61147 13.0531 8.11916 13.4224 9.62685 13.0531C10.0269 12.9608 10.4269 12.7762 10.7961 12.5608C12.5499 11.4839 13.3807 9.45312 12.8884 7.42236C12.7961 7.02236 12.6115 6.62236 12.3961 6.25312C11.5345 4.74543 10.0269 3.91466 8.42685 3.91466C7.19608 3.91466 6.02685 4.40697 5.16532 5.26851C5.01147 5.39159 4.88839 5.54543 4.79609 5.69928C4.70378 5.94543 4.91916 6.06851 5.19608 6.06851L7.34993 6.06851C7.59608 6.06851 7.81147 6.28389 7.81147 6.53005L7.81147 7.48389C7.81147 7.73005 7.62685 7.91466 7.3807 7.91466L1.74993 7.91466C1.53455 7.91466 1.34993 7.73005 1.34993 7.51466L1.34993 1.91466C1.3807 1.66851 1.59608 1.45312 1.84224 1.45312V1.45313Z" fill="#706E6B"/>
<mask id="mask0_369_56763" style="mask-type:alpha" maskUnits="userSpaceOnUse" x="1" y="1" width="14" height="15">
<path fill-rule="evenodd" clip-rule="evenodd" d="M1.84224 1.45313L2.76532 1.45313C3.01147 1.45313 3.22685 1.66851 3.22685 1.91466V4.06851C3.22685 4.34543 3.3807 4.46851 3.59608 4.28389C3.68839 4.16082 3.7807 4.06851 3.90378 3.9762C5.44224 2.43774 7.59608 1.79159 9.81147 2.22236C10.5807 2.3762 11.3192 2.68389 11.9653 3.11466C13.8422 4.34543 14.9192 6.34543 14.9499 8.49928C14.9807 10.1608 14.3345 11.8224 13.1653 13.0224C11.9345 14.3147 10.273 15.0224 8.48839 15.0224C6.91916 15.0224 5.44224 14.4685 4.27301 13.4839C4.05762 13.2993 4.05762 12.9916 4.24224 12.807L4.88839 12.1608C5.04224 12.007 5.31916 11.9762 5.50378 12.13C6.61147 13.0531 8.11916 13.4224 9.62685 13.0531C10.0269 12.9608 10.4269 12.7762 10.7961 12.5608C12.5499 11.4839 13.3807 9.45312 12.8884 7.42236C12.7961 7.02236 12.6115 6.62236 12.3961 6.25312C11.5345 4.74543 10.0269 3.91466 8.42685 3.91466C7.19608 3.91466 6.02685 4.40697 5.16532 5.26851C5.01147 5.39159 4.88839 5.54543 4.79609 5.69928C4.70378 5.94543 4.91916 6.06851 5.19608 6.06851L7.34993 6.06851C7.59608 6.06851 7.81147 6.28389 7.81147 6.53005L7.81147 7.48389C7.81147 7.73005 7.62685 7.91466 7.3807 7.91466L1.74993 7.91466C1.53455 7.91466 1.34993 7.73005 1.34993 7.51466L1.34993 1.91466C1.3807 1.66851 1.59608 1.45312 1.84224 1.45312V1.45313Z" fill="white"/>
</mask>
<g mask="url(#mask0_369_56763)">
</g>
</svg>
