<svg width="102" height="20" viewBox="0 0 102 20" fill="none" xmlns="http://www.w3.org/2000/svg" id="shared_from_docrio">
<g clip-path="url(#clip0_597_30665)">
<path d="M91.9672 0H10.0328C4.49183 0 0 4.47715 0 10C0 15.5228 4.49183 20 10.0328 20H91.9672C97.5082 20 102 15.5228 102 10C102 4.47715 97.5082 0 91.9672 0Z" fill="#ECEBEA"/>
<path fill-rule="evenodd" clip-rule="evenodd" d="M14.02 13.8141V13.8782C14.02 14.1346 14.213 14.3269 14.4702 14.3269C14.5988 14.3269 14.6953 14.2948 14.7918 14.1987C14.7918 14.1987 18.0396 10.7051 22.027 11.7628V15.2884C22.027 15.5448 22.22 15.7372 22.4771 15.7372C22.5736 15.7372 22.638 15.7051 22.7022 15.6731L29.1656 10.1923C29.2621 10.0961 29.3265 9.96793 29.3265 9.83973C29.3265 9.71151 29.2621 9.58331 29.1978 9.51921L22.7345 4.29484C22.6701 4.26279 22.5736 4.23074 22.4771 4.23074C22.22 4.23074 22.027 4.42306 22.027 4.67946V7.98074C21.9949 7.98074 15.6278 7.01921 14.02 13.8141Z" fill="#706E6B"/>
<path d="M37.5269 15V6.51515H40.8853C41.5309 6.51515 42.0811 6.63807 42.5356 6.88389C42.9899 7.12694 43.3363 7.46529 43.5746 7.89892C43.8157 8.32979 43.9363 8.82694 43.9363 9.39039C43.9363 9.95384 43.8144 10.451 43.5704 10.8819C43.3266 11.3127 42.9733 11.6483 42.5105 11.8886C42.0505 12.1289 41.4935 12.2491 40.8397 12.2491H38.699V10.8114H40.5486C40.895 10.8114 41.1805 10.7521 41.4049 10.6333C41.6321 10.5118 41.8012 10.3447 41.912 10.132C42.0256 9.91655 42.0824 9.66935 42.0824 9.39039C42.0824 9.10867 42.0256 8.86285 41.912 8.65294C41.8012 8.44027 41.6321 8.27592 41.4049 8.15992C41.1776 8.04115 40.8895 7.98177 40.5404 7.98177H39.3266V15H37.5269ZM53.7641 10.7576C53.7641 11.6829 53.588 12.47 53.2362 13.1191C52.8871 13.7682 52.4103 14.2639 51.8064 14.6064C51.2049 14.9461 50.5288 15.116 49.7779 15.116C49.0214 15.116 48.3425 14.9448 47.7411 14.6023C47.1398 14.2598 46.6646 13.764 46.3154 13.1149C45.9663 12.4659 45.7917 11.6801 45.7917 10.7576C45.7917 9.8323 45.9663 9.04514 46.3154 8.39607C46.6646 7.747 47.1398 7.2526 47.7411 6.91289C48.3425 6.57039 49.0214 6.39915 49.7779 6.39915C50.5288 6.39915 51.2049 6.57039 51.8064 6.91289C52.4103 7.2526 52.8871 7.747 53.2362 8.39607C53.588 9.04514 53.7641 9.8323 53.7641 10.7576ZM51.9393 10.7576C51.9393 10.1582 51.8492 9.65279 51.6691 9.24124C51.4918 8.8297 51.241 8.51761 50.9168 8.30492C50.5926 8.09226 50.213 7.98592 49.7779 7.98592C49.3428 7.98592 48.9632 8.09226 48.639 8.30492C48.3148 8.51761 48.0626 8.8297 47.8825 9.24124C47.7051 9.65279 47.6165 10.1582 47.6165 10.7576C47.6165 11.3569 47.7051 11.8624 47.8825 12.2739C48.0626 12.6855 48.3148 12.9976 48.639 13.2102C48.9632 13.4229 49.3428 13.5292 49.7779 13.5292C50.213 13.5292 50.5926 13.4229 50.9168 13.2102C51.241 12.9976 51.4918 12.6855 51.6691 12.2739C51.8492 11.8624 51.9393 11.3569 51.9393 10.7576ZM55.9333 15V6.51515H59.2918C59.9348 6.51515 60.4834 6.62977 60.9379 6.85902C61.395 7.0855 61.7428 7.40729 61.9811 7.82434C62.2222 8.23864 62.3428 8.72614 62.3428 9.28682C62.3428 9.85027 62.2209 10.335 61.9769 10.741C61.7331 11.1443 61.3798 11.4536 60.9171 11.669C60.4571 11.8845 59.9001 11.9922 59.2462 11.9922H56.9973V10.5504H58.9552C59.2987 10.5504 59.5841 10.5035 59.8113 10.4096C60.0386 10.3157 60.2076 10.1748 60.3185 9.98699C60.432 9.79917 60.4889 9.56577 60.4889 9.28682C60.4889 9.00509 60.432 8.76755 60.3185 8.57422C60.2076 8.38089 60.0373 8.2345 59.8072 8.13507C59.5801 8.03287 59.2932 7.98177 58.9469 7.98177H57.7331V15H55.9333ZM60.5305 11.1387L62.6461 15H60.6593L58.5894 11.1387H60.5305ZM64.1265 7.99421V6.51515H71.1178V7.99421H68.5118V15H66.7326V7.99421H64.1265ZM73.5324 15H71.6037L74.5425 6.51515H76.8619L79.7963 15H77.8677L75.7354 8.45407H75.6688L73.5324 15ZM73.4118 11.6649H77.9675V13.0652H73.4118V11.6649ZM81.6571 15V6.51515H83.4568V13.521H87.1064V15H81.6571Z" fill="#080707"/>
</g>
<defs>
<clipPath id="clip0_597_30665">
<rect width="102" height="20" fill="white"/>
</clipPath>
</defs>
</svg>
