<?xml version="1.0" encoding="UTF-8"?>
<svg id="video" width="22px" height="28px" viewBox="0 0 22 28" version="1.1" xmlns="http://www.w3.org/2000/svg" xmlns:xlink="http://www.w3.org/1999/xlink">
    <title>Docrio / Icons / File Type / Video </title>
    <g id="Docrio-/-Icons-/-File-Type-/-Video-" stroke="none" stroke-width="1" fill="none" fill-rule="evenodd">
        <g id="Base">
            <g id="Group">
                <path d="M2.00357143,0 C0.903571429,0 -2.13162821e-14,1.04137681 -2.13162821e-14,2.09262022 L-2.13162821e-14,20 C-2.13162821e-14,20 22,20 22,20 L22,7.00168762 L15.125,0 L2.00357143,0 Z" id="Shape" fill="#E9E9E9"></path>
                <path d="M15.125,0 L15.125,4.70078554 C15.125,5.82992302 15.8469612,7.0028559 17.1790981,6.99999478 L22,6.99999478 L15.125,0 Z" id="Shape" fill="#FFFFFF" opacity="0.248581659"></path>
            </g>
            <path d="M22,26.1762615 C22,27.1834845 21.1834845,28 20.1762615,28 L1.82373846,28 C0.816515522,28 1.01152765e-15,27.1834845 0,26.1762615 L0,20 L22,20 L22,26.1762615 Z" id="BG" fill="#942E89"></path>
            <path d="M22,7.00168762 L22,7.34983264 L17.3075403,7.34983264 C17.4338355,7.34983264 15.1233047,7.42232176 15.1250009,4.55 C15.1250009,4.55 15.1977522,7.00168762 17.3075403,7.00168762 L22,7.00168762 Z" id="Shape" fill="#CDCACA"></path>
        </g>
        <text id="VIDEO" font-family="SalesforceSans-Bold, Salesforce Sans" font-size="5" font-weight="bold" line-spacing="7" fill="#FFFFFF">
            <tspan x="3.085" y="25.75">VIDEO</tspan>
        </text>
        <g id="Group-4" transform="translate(5.000000, 9.000000)">
            <rect id="Rectangle" fill="#942E89" x="0.382352941" y="0" width="9.38888889" height="7" rx="0.782352941"></rect>
            <path d="M5.72356051,2.25686223 L6.87744817,4.74430788 C6.92290444,4.84229836 6.88031705,4.95858493 6.78232657,5.0040412 C6.75653718,5.0160045 6.72844981,5.02220197 6.70002071,5.02220197 L4.3922454,5.02220197 C4.284225,5.02220197 4.19665716,4.93463414 4.19665716,4.82661374 C4.19665716,4.79818464 4.20285463,4.77009727 4.21481794,4.74430788 L5.36870559,2.25686223 C5.41416187,2.15887175 5.53044843,2.11628436 5.62843891,2.16174063 C5.67039559,2.18120368 5.70409746,2.21490555 5.72356051,2.25686223 Z" id="Triangle" fill="#E9E9E9" transform="translate(5.546133, 3.448291) scale(1, -1) rotate(90.000000) translate(-5.546133, -3.448291) "></path>
            <path d="M9.02777778,2.69634453 L10.7193058,1.46124423 C11.0682645,1.20644562 11.5577066,1.28277745 11.8125052,1.63173616 C11.910307,1.76568037 11.9630125,1.92723977 11.9630125,2.09308985 L11.9630125,4.90701087 C11.9630125,5.33909246 11.6127411,5.68936381 11.1806595,5.68936381 C11.0148095,5.68936381 10.8532501,5.63665832 10.7193058,5.53885649 L9.02777778,4.30375619 L9.02777778,4.30375619 L9.02777778,3.53442865 L9.02777778,2.69634453 Z" id="Rectangle" fill="#942E89"></path>
        </g>
    </g>
</svg>