<?xml version="1.0" encoding="UTF-8"?>
<svg width="250px" height="108px" viewBox="0 0 250 108" version="1.1" xmlns="http://www.w3.org/2000/svg" xmlns:xlink="http://www.w3.org/1999/xlink">
    <title>Group 7</title>
    <defs>
        <rect id="path-1" x="0" y="0" width="242" height="100"></rect>
        <filter x="-2.9%" y="-5.0%" width="105.8%" height="114.0%" filterUnits="objectBoundingBox" id="filter-3">
            <feOffset dx="0" dy="2" in="SourceAlpha" result="shadowOffsetOuter1"></feOffset>
            <feGaussianBlur stdDeviation="2" in="shadowOffsetOuter1" result="shadowBlurOuter1"></feGaussianBlur>
            <feColorMatrix values="0 0 0 0 0   0 0 0 0 0   0 0 0 0 0  0 0 0 0.5 0" type="matrix" in="shadowBlurOuter1"></feColorMatrix>
        </filter>
        <path d="M2.95384615,0.923076923 C3.3,0.923076923 3.6,1.10769231 3.76153846,1.38461538 L3.76153846,1.38461538 L4.56923077,2.76923077 C4.75384615,3.04615385 5.05384615,3.23076923 5.37692308,3.23076923 L5.37692308,3.23076923 L10.6153846,3.23076923 C11.1230769,3.23076923 11.5384615,3.64615385 11.5384615,4.15384615 L11.5384615,4.15384615 L11.5384615,10.1538462 C11.5384615,10.6615385 11.1230769,11.0769231 10.6153846,11.0769231 L10.6153846,11.0769231 L1.38461538,11.0769231 C0.876923077,11.0769231 0.461538462,10.6615385 0.461538462,10.1538462 L0.461538462,10.1538462 L0.461538462,1.84615385 C0.461538462,1.33846154 0.876923077,0.923076923 1.38461538,0.923076923 L1.38461538,0.923076923 Z M10.6153846,1.38461538 C11.1230769,1.38461538 11.5384615,1.8 11.5384615,2.30769231 L11.5384615,2.30769231 L11.5318009,2.35411527 C11.5059655,2.44050235 11.4098901,2.48571429 11.3307692,2.44615385 C11.1230769,2.35384615 10.8692308,2.30769231 10.6153846,2.30769231 L10.6153846,2.30769231 L5.53846154,2.30769231 C5.44615385,2.30769231 5.37692308,2.26153846 5.33076923,2.16923077 L5.33076923,2.16923077 L4.96153846,1.54615385 C4.91538462,1.47692308 4.96153846,1.38461538 5.05384615,1.38461538 L5.05384615,1.38461538 Z" id="path-4"></path>
        <path d="M2.95384615,0.923076923 C3.3,0.923076923 3.6,1.10769231 3.76153846,1.38461538 L3.76153846,1.38461538 L4.56923077,2.76923077 C4.75384615,3.04615385 5.05384615,3.23076923 5.37692308,3.23076923 L5.37692308,3.23076923 L10.6153846,3.23076923 C11.1230769,3.23076923 11.5384615,3.64615385 11.5384615,4.15384615 L11.5384615,4.15384615 L11.5384615,10.1538462 C11.5384615,10.6615385 11.1230769,11.0769231 10.6153846,11.0769231 L10.6153846,11.0769231 L1.38461538,11.0769231 C0.876923077,11.0769231 0.461538462,10.6615385 0.461538462,10.1538462 L0.461538462,10.1538462 L0.461538462,1.84615385 C0.461538462,1.33846154 0.876923077,0.923076923 1.38461538,0.923076923 L1.38461538,0.923076923 Z M10.6153846,1.38461538 C11.1230769,1.38461538 11.5384615,1.8 11.5384615,2.30769231 L11.5384615,2.30769231 L11.5318009,2.35411527 C11.5059655,2.44050235 11.4098901,2.48571429 11.3307692,2.44615385 C11.1230769,2.35384615 10.8692308,2.30769231 10.6153846,2.30769231 L10.6153846,2.30769231 L5.53846154,2.30769231 C5.44615385,2.30769231 5.37692308,2.26153846 5.33076923,2.16923077 L5.33076923,2.16923077 L4.96153846,1.54615385 C4.91538462,1.47692308 4.96153846,1.38461538 5.05384615,1.38461538 L5.05384615,1.38461538 Z" id="path-6"></path>
    </defs>
    <g id="211007-EM-224:-Docrio-Settings" stroke="none" stroke-width="1" fill="none" fill-rule="evenodd">
        <g id="211007-EDM-224---02" transform="translate(-997.000000, -262.000000)">
            <g id="5.-Main-Panel" transform="translate(338.000000, 176.000000)">
                <g id="Group-7" transform="translate(663.000000, 88.000000)">
                    <mask id="mask-2" fill="white">
                        <use xlink:href="#path-1"></use>
                    </mask>
                    <g id="Mask">
                        <use fill="black" fill-opacity="1" filter="url(#filter-3)" xlink:href="#path-1"></use>
                        <use fill="#FFFFFF" fill-rule="evenodd" xlink:href="#path-1"></use>
                    </g>
                    <g id="Group" mask="url(#mask-2)">
                        <g>
                            <g id="Previews---Display-Field">
                                <rect id="Rectangle" stroke="#F3F2F1" fill="#FFFFFF" x="0.5" y="0.5" width="241" height="99"></rect>
                                <g id="Panel-/-Contents-/-Email-File-Ready" transform="translate(0.000000, 25.000000)">
                                    <polygon id="Rectangle-4-Copy" fill="#FFFFFF" fill-rule="nonzero" points="1 0 241 0 241 36 1 36"></polygon>
                                    <g id="Group-4" transform="translate(40.000000, 6.000000)" font-family="Helvetica" font-weight="normal">
                                        <g id="Group" transform="translate(0.000000, 14.000000)" fill="#080707" font-size="7.5" line-spacing="12">
                                            <text id="Folder:">
                                                <tspan x="0" y="8">Folder:</tspan>
                                            </text>
                                            <text id="Stored-Emails-Files">
                                                <tspan x="26" y="8">Stored Emails Files</tspan>
                                            </text>
                                        </g>
                                        <text id="Updated-expenses-for" font-size="9.75" line-spacing="15" fill="#000000">
                                            <tspan x="0" y="10">Updated expenses for 2021.eml</tspan>
                                        </text>
                                    </g>
                                    <g id="Utility-Icons-/-open_folder" transform="translate(197.000000, 12.000000)">
                                        <mask id="mask-5" fill="white">
                                            <use xlink:href="#path-4"></use>
                                        </mask>
                                        <use id="🎨-Icon-Color" fill="#1B1B1B" xlink:href="#path-4"></use>
                                    </g>
                                    <polygon id="Rectangle-5-Copy-4" fill="#F4F6F9" points="0 36 241 36 241 37 0 37"></polygon>
                                    <g id="Group" transform="translate(4.000000, 0.000000)">
                                        <g id="Doc-Icon-/-Pane-Row-/-Image" transform="translate(9.000000, 6.750000)">
                                            <g id="Group" transform="translate(0.000000, 0.000000)">
                                                <path d="M1.63928571,0 C0.739285714,0 0,0.83682065 0,1.68156982 L0,16.0714286 C0,16.0714286 18,16.0714286 18,16.0714286 L18,5.62635612 L12.375,0 L1.63928571,0 Z" id="Shape" fill="#E9E9E9"></path>
                                                <path d="M12.375,0 L12.375,3.77741695 C12.375,4.68475957 12.9656955,5.62729492 14.0556257,5.6249958 L18,5.6249958 L12.375,0 Z" id="Shape" fill="#FFFFFF" opacity="0.248581659"></path>
                                            </g>
                                            <path d="M18,21.5052336 C18,22.0546279 17.5546279,22.5 17.0052336,22.5 L0.994766435,22.5 C0.445372103,22.5 -2.65785506e-16,22.0546279 0,21.5052336 L0,16.0714286 L18,16.0714286 L18,21.5052336 Z" id="BG" fill="#2E5794"></path>
                                            <path d="M18,5.62635612 L18,5.90611552 L14.1607148,5.90611552 C14.2640472,5.90611552 12.3736129,5.9643657 12.3750008,3.65625 C12.3750008,3.65625 12.4345246,5.62635612 14.1607148,5.62635612 L18,5.62635612 Z" id="Shape" fill="#CDCACA"></path>
                                            <path d="M4.82318182,20.8963636 L4.82318182,20.4586364 L3.46090909,20.4586364 L3.46090909,19.6159091 L4.56545455,19.6159091 L4.56545455,19.2027273 L3.46090909,19.2027273 L3.46090909,18.4295455 L4.75363636,18.4295455 L4.75363636,18 L2.925,18 L2.925,20.8963636 L4.82318182,20.8963636 Z M5.74772727,20.8963636 L5.73136364,18.6177273 L5.73954545,18.6177273 L6.61909091,20.8963636 L7.02,20.8963636 L7.91181818,18.6177273 L7.92,18.6177273 L7.90772727,20.8963636 L8.43136364,20.8963636 L8.43136364,18 L7.64181818,18 L6.83181818,20.16 L6.82363636,20.16 L6.03409091,18 L5.24863636,18 L5.24863636,20.8963636 L5.74772727,20.8963636 Z M9.30681818,20.8963636 L9.54,20.2704545 L10.7181818,20.2704545 L10.9390909,20.8963636 L11.52,20.8963636 L10.4113636,18 L9.85909091,18 L8.74636364,20.8963636 L9.30681818,20.8963636 Z M10.5790909,19.8613636 L9.68318182,19.8613636 L10.1331818,18.5481818 L10.5790909,19.8613636 Z M12.9109091,20.8963636 L12.9109091,20.4913636 L12.5713636,20.4913636 L12.5713636,18.3927273 L12.9109091,18.3927273 L12.9109091,18 L11.7081818,18 L11.7081818,18.3927273 L12.0477273,18.3927273 L12.0477273,20.4913636 L11.7081818,20.4913636 L11.7081818,20.8963636 L12.9109091,20.8963636 Z M15.2222727,20.8963636 L15.2222727,20.4504545 L13.9704545,20.4504545 L13.9704545,18 L13.4345455,18 L13.4345455,20.8963636 L15.2222727,20.8963636 Z" id="EMAIL" fill="#FFFFFF" fill-rule="nonzero"></path>
                                            <g id="Group-5" transform="translate(4.500000, 6.750000)">
                                                <rect id="Rectangle" fill="#2E5794" x="0" y="0.803571429" width="8.18181818" height="4.82142857" rx="0.545454545"></rect>
                                                <path d="M4.16566377,0.876991202 L7.99569623,4.63863022 C8.03773275,4.67991609 8.03834127,4.74746224 7.9970554,4.78949876 C7.97699576,4.80992312 7.94956923,4.82142857 7.92094155,4.82142857 L0.260876631,4.82142857 C0.201956413,4.82142857 0.154192139,4.7736643 0.154192139,4.71474408 C0.154192139,4.6861164 0.165697589,4.65868987 0.186121953,4.63863022 L4.01615441,0.876991202 C4.05765637,0.836230352 4.12416181,0.836230352 4.16566377,0.876991202 Z" id="Triangle" fill="#E9E9E9" transform="translate(4.090909, 2.812500) scale(1, -1) translate(-4.090909, -2.812500) "></path>
                                                <path d="M4.16566377,0.0734197736 L7.99569623,3.8350588 C8.03773275,3.87634467 8.03834127,3.94389081 7.9970554,3.98592733 C7.97699576,4.00635169 7.94956923,4.01785714 7.92094155,4.01785714 L0.260876631,4.01785714 C0.201956413,4.01785714 0.154192139,3.97009287 0.154192139,3.91117265 C0.154192139,3.88254497 0.165697589,3.85511844 0.186121953,3.8350588 L4.01615441,0.0734197736 C4.05765637,0.0326589237 4.12416181,0.0326589237 4.16566377,0.0734197736 Z" id="Triangle" fill="#2E5794" transform="translate(4.090909, 2.008929) scale(1, -1) translate(-4.090909, -2.008929) "></path>
                                            </g>
                                        </g>
                                    </g>
                                    <g id="Icon-/-Unchecked-Active-New" transform="translate(217.000000, 12.000000)" stroke="#1B1B1B">
                                        <rect id="Focus-State" stroke-width="1.05" fill="#FFFFFF" x="0.525" y="0.525" width="10.95" height="10.95" rx="5.475"></rect>
                                        <path d="M6.18232201,2.82965676 C6.30823146,2.82471421 6.42863575,2.87561776 6.51530926,2.96229127 C6.59811633,3.04509834 6.6482736,3.15869391 6.6482736,3.27846372 L6.6482736,3.27846372 L6.6482736,5.3517264 L8.72153628,5.3517264 C8.84130609,5.3517264 8.95490166,5.40188367 9.03770873,5.48469074 C9.1205158,5.56749782 9.17067308,5.68109339 9.17067308,5.8008632 L9.17067308,5.8008632 L9.17067308,6.1991368 C9.17067308,6.31890661 9.1205158,6.43250218 9.03770873,6.51530926 C8.95490166,6.59811633 8.84130609,6.6482736 8.72724907,6.64820832 C7.95662926,6.66582249 7.37866199,6.68558975 6.99335172,6.70760748 C6.80727739,6.71824029 6.66770068,6.72921472 6.57466065,6.74091118 L6.648,6.733 L6.6482736,8.72153628 C6.6482736,8.81136364 6.62006014,8.89771798 6.57101917,8.97021518 L6.51530926,9.03770873 C6.43250218,9.1205158 6.31890661,9.17067308 6.1991368,9.17067308 L6.1991368,9.17067308 L5.8008632,9.17067308 C5.68109339,9.17067308 5.56749782,9.1205158 5.48469074,9.03770873 C5.40188367,8.95490166 5.3517264,8.84130609 5.3517264,8.72153628 L5.3517264,8.72153628 L5.3517264,6.6482736 L3.27846372,6.6482736 C3.15869391,6.6482736 3.04509834,6.59811633 2.96229127,6.51530926 C2.8794842,6.43250218 2.82932692,6.31890661 2.82932692,6.1991368 L2.82932692,6.1991368 L2.82932692,5.8008632 C2.82932692,5.68109339 2.8794842,5.56749782 2.96229127,5.48469074 C3.04509834,5.40188367 3.15869391,5.3517264 3.27846372,5.3517264 L3.27846372,5.3517264 L5.3517264,5.3517264 L5.3517264,3.27846372 Z" id="Path" stroke-width="0.5" fill="#1B1B1B"></path>
                                    </g>
                                </g>
                                <g id="Panel-/-Contents-/-Email-File-Ready-Copy" transform="translate(0.000000, 62.000000)">
                                    <polygon id="Rectangle-4-Copy" fill="#FFFFFF" fill-rule="nonzero" points="1 0 241 0 241 36 1 36"></polygon>
                                    <g id="Group-4" transform="translate(40.000000, 6.000000)" font-family="Helvetica" font-weight="normal">
                                        <g id="Group" transform="translate(0.000000, 14.000000)" fill="#080707" font-size="7.5" line-spacing="12">
                                            <text id="Folder:">
                                                <tspan x="0" y="8">Folder:</tspan>
                                            </text>
                                            <text id="Case-Costs">
                                                <tspan x="26" y="8">Case Costs</tspan>
                                            </text>
                                        </g>
                                        <text id="Bill-Expenses-2021.x" font-size="9.75" line-spacing="15" fill="#000000">
                                            <tspan x="0" y="10">Bill Expenses 2021.xlsx</tspan>
                                        </text>
                                    </g>
                                    <g id="Utility-Icons-/-open_folder" transform="translate(197.000000, 12.000000)">
                                        <mask id="mask-7" fill="white">
                                            <use xlink:href="#path-6"></use>
                                        </mask>
                                        <use id="🎨-Icon-Color" fill="#1B1B1B" xlink:href="#path-6"></use>
                                    </g>
                                    <polygon id="Rectangle-5-Copy-4" fill="#F4F6F9" points="0 36 241 36 241 37 0 37"></polygon>
                                    <g id="Group" transform="translate(4.000000, 0.000000)">
                                        <g id="Doc-Icon-/-Pane-Row-/-Image" transform="translate(9.000000, 6.750000)">
                                            <g id="Group">
                                                <path d="M1.63928571,0 C0.739285714,0 0,0.83682065 0,1.68156982 L0,16.0714286 C0,16.0714286 18,16.0714286 18,16.0714286 L18,5.62635612 L12.375,0 L1.63928571,0 Z" id="Shape" fill="#E9E9E9"></path>
                                                <path d="M12.375,0 L12.375,3.77741695 C12.375,4.68475957 12.9656955,5.62729492 14.0556257,5.6249958 L18,5.6249958 L12.375,0 Z" id="Shape" fill="#FFFFFF" opacity="0.248581659"></path>
                                            </g>
                                            <path d="M18,21.5052336 C18,22.0546279 17.5546279,22.5 17.0052336,22.5 L0.994766435,22.5 C0.445372103,22.5 -2.65785506e-16,22.0546279 0,21.5052336 L0,16.0714286 L18,16.0714286 L18,21.5052336 Z" id="BG" fill="#28C079"></path>
                                            <path d="M18,5.62635612 L18,5.90611552 L14.1607148,5.90611552 C14.2640472,5.90611552 12.3736129,5.9643657 12.3750008,3.65625 C12.3750008,3.65625 12.4345246,5.62635612 14.1607148,5.62635612 L18,5.62635612 Z" id="Shape" fill="#CDCACA"></path>
                                            <g id="Group-" transform="translate(4.560577, 5.625000)" fill="#28C079">
                                                <rect id="Rectangle-Copy-" transform="translate(4.197115, 2.410714) scale(1, -1) translate(-4.197115, -2.410714) " x="0.0778846154" y="1.92857143" width="8.23846154" height="1"></rect>
                                                <rect id="Rectangle-Copy-4" transform="translate(4.197115, 4.339286) scale(1, -1) translate(-4.197115, -4.339286) " x="0.0778846154" y="3.85714286" width="8.23846154" height="1"></rect>
                                                <rect id="Rectangle-Copy-5" transform="translate(4.197115, 6.267857) scale(1, -1) translate(-4.197115, -6.267857) " x="0.0778846154" y="5.78571429" width="8.23846154" height="1"></rect>
                                                <rect id="Rectangle-Copy-8" transform="translate(1.774038, 0.482143) scale(1, -1) translate(-1.774038, -0.482143) " x="0.0778846154" y="0" width="3.39230769" height="1"></rect>
                                                <polygon id="Rectangle-Copy-6" transform="translate(8.316346, 4.339286) scale(1, -1) rotate(90.000000) translate(-8.316346, -4.339286) " points="5.90563187 3.85467033 10.7270604 3.85467033 10.7270604 4.8239011 5.90563187 4.8239011"></polygon>
                                                <polygon id="Rectangle-1" transform="translate(2.985577, 3.375000) scale(1, -1) rotate(90.000000) translate(-2.985577, -3.375000) " points="-0.389423077 2.89038462 6.36057692 2.89038462 6.36057692 3.85961538 -0.389423077 3.85961538"></polygon>
                                                <polygon id="Rectangle-3" transform="translate(5.893269, 4.339286) scale(1, -1) rotate(90.000000) translate(-5.893269, -4.339286) " points="3.48255495 3.85467033 8.30398352 3.85467033 8.30398352 4.8239011 3.48255495 4.8239011"></polygon>
                                                <polygon id="Rectangle-" transform="translate(0.562500, 3.375000) scale(1, -1) rotate(90.000000) translate(-0.562500, -3.375000) " points="-2.8125 2.89038462 3.9375 2.89038462 3.9375 3.85961538 -2.8125 3.85961538"></polygon>
                                            </g>
                                            <path d="M4.41447823,20.8873709 L4.41447823,20.4039372 L2.86109191,20.4039372 L2.86109191,19.4732143 L4.12059433,19.4732143 L4.12059433,19.016889 L2.86109191,19.016889 L2.86109191,18.1629733 L4.33517623,18.1629733 L4.33517623,17.6885757 L2.25,17.6885757 L2.25,20.8873709 L4.41447823,20.8873709 Z M5.22149274,20.8873709 L6.01917761,19.6132745 L6.82619212,20.8873709 L7.53991016,20.8873709 L6.39236351,19.2021299 L7.41862474,17.6885757 L6.72823082,17.6885757 L6.03317208,18.8226119 L5.33811334,17.6885757 L4.63372495,17.6885757 L5.65998618,19.2021299 L4.50777471,20.8873709 L5.22149274,20.8873709 Z M9.38718037,20.9732143 C9.63597097,20.9732143 9.86532481,20.9310456 10.0752419,20.8467083 C10.2851589,20.7623709 10.4600898,20.6524312 10.6000346,20.516889 L10.6000346,20.516889 L10.2315135,20.1283348 C10.1257775,20.2247203 10.0029371,20.3022806 9.8629924,20.3610155 C9.72304768,20.4197504 9.57066344,20.4491179 9.40583967,20.4491179 C9.05442294,20.4491179 8.79319281,20.3429432 8.62214927,20.1305938 C8.45110574,19.9182444 8.36558397,19.6358649 8.36558397,19.2834552 C8.36558397,18.9250215 8.45110574,18.6396299 8.62214927,18.4272806 C8.79319281,18.2149312 9.05908777,18.1087565 9.41983414,18.1087565 C9.5691085,18.1087565 9.7121631,18.1328528 9.84899793,18.1810456 C9.98583276,18.2292384 10.1071182,18.2970095 10.2128542,18.3843589 L10.2128542,18.3843589 L10.5580511,18.0048408 C10.4243262,17.8783348 10.2548376,17.7789372 10.0495853,17.706648 C9.8443331,17.6343589 9.62664133,17.5982143 9.39651002,17.5982143 C9.0450933,17.5982143 8.74421216,17.6682444 8.49386662,17.8083046 C8.24352108,17.9483649 8.05381824,18.144901 7.92475812,18.3979131 C7.795698,18.6509251 7.73116793,18.9461059 7.73116793,19.2834552 C7.73116793,19.6147806 7.79492053,19.9077022 7.92242571,20.1622203 C8.04993089,20.4167384 8.23807878,20.6155336 8.48686938,20.7586059 C8.73565999,20.9016781 9.03576365,20.9732143 9.38718037,20.9732143 Z M13.2263303,20.8873709 L13.2263303,20.4039372 L11.672944,20.4039372 L11.672944,19.4732143 L12.9324464,19.4732143 L12.9324464,19.016889 L11.672944,19.016889 L11.672944,18.1629733 L13.1470283,18.1629733 L13.1470283,17.6885757 L11.0618521,17.6885757 L11.0618521,20.8873709 L13.2263303,20.8873709 Z M15.75,20.8873709 L15.75,20.394901 L14.3225639,20.394901 L14.3225639,17.6885757 L13.711472,17.6885757 L13.711472,20.8873709 L15.75,20.8873709 Z" id="EXCEL" fill="#FFFFFF" fill-rule="nonzero"></path>
                                        </g>
                                    </g>
                                    <g id="Icon-/-Unchecked-Active-New" transform="translate(217.000000, 12.000000)" stroke="#1B1B1B">
                                        <rect id="Focus-State" stroke-width="1.05" fill="#FFFFFF" x="0.525" y="0.525" width="10.95" height="10.95" rx="5.475"></rect>
                                        <path d="M6.18232201,2.82965676 C6.30823146,2.82471421 6.42863575,2.87561776 6.51530926,2.96229127 C6.59811633,3.04509834 6.6482736,3.15869391 6.6482736,3.27846372 L6.6482736,3.27846372 L6.6482736,5.3517264 L8.72153628,5.3517264 C8.84130609,5.3517264 8.95490166,5.40188367 9.03770873,5.48469074 C9.1205158,5.56749782 9.17067308,5.68109339 9.17067308,5.8008632 L9.17067308,5.8008632 L9.17067308,6.1991368 C9.17067308,6.31890661 9.1205158,6.43250218 9.03770873,6.51530926 C8.95490166,6.59811633 8.84130609,6.6482736 8.72724907,6.64820832 C7.95662926,6.66582249 7.37866199,6.68558975 6.99335172,6.70760748 C6.80727739,6.71824029 6.66770068,6.72921472 6.57466065,6.74091118 L6.648,6.733 L6.6482736,8.72153628 C6.6482736,8.81136364 6.62006014,8.89771798 6.57101917,8.97021518 L6.51530926,9.03770873 C6.43250218,9.1205158 6.31890661,9.17067308 6.1991368,9.17067308 L6.1991368,9.17067308 L5.8008632,9.17067308 C5.68109339,9.17067308 5.56749782,9.1205158 5.48469074,9.03770873 C5.40188367,8.95490166 5.3517264,8.84130609 5.3517264,8.72153628 L5.3517264,8.72153628 L5.3517264,6.6482736 L3.27846372,6.6482736 C3.15869391,6.6482736 3.04509834,6.59811633 2.96229127,6.51530926 C2.8794842,6.43250218 2.82932692,6.31890661 2.82932692,6.1991368 L2.82932692,6.1991368 L2.82932692,5.8008632 C2.82932692,5.68109339 2.8794842,5.56749782 2.96229127,5.48469074 C3.04509834,5.40188367 3.15869391,5.3517264 3.27846372,5.3517264 L3.27846372,5.3517264 L5.3517264,5.3517264 L5.3517264,3.27846372 Z" id="Path" stroke-width="0.5" fill="#1B1B1B"></path>
                                    </g>
                                </g>
                                <g id="Email-/-Navigation-/-Header-Both-Borders" transform="translate(1.000000, 1.000000)">
                                    <rect id="Rectangle-34" fill="#FAFAF9" x="0" y="0" width="240" height="23"></rect>
                                    <text id="Docrio" font-family="Helvetica" font-size="9" font-weight="normal" line-spacing="9" fill="#080707">
                                        <tspan x="12" y="16">Docrio</tspan>
                                    </text>
                                    <polygon id="Rectangle-34" fill="#F3F2F1" points="0 23 240 23 240 24 0 24"></polygon>
                                </g>
                            </g>
                            <g id="-Numbers" transform="translate(5.000000, 25.500000)">
                                <g id="Group-4" transform="translate(202.000000, 2.000000)">
                                    <circle id="Oval-Copy-4" fill="#FFB75D" cx="8" cy="8" r="8"></circle>
                                    <path d="M7.57546083,11.4736463 C8.39602535,11.4736463 9.03917051,11.2883065 9.50489631,10.9176267 C9.97062212,10.546947 10.203485,10.0432028 10.203485,9.40639401 C10.203485,8.98502304 10.0640841,8.62939228 9.78528226,8.33950173 C9.50648041,8.04961118 9.12629608,7.87456797 8.64472926,7.81437212 L8.64472926,7.81437212 L8.64472926,7.7906106 C9.54766705,7.5656682 9.99913594,7.00806452 9.99913594,6.11779954 C9.99913594,5.6172235 9.80508353,5.21010945 9.41697869,4.89645737 C9.02887385,4.5828053 8.48631912,4.42597926 7.78931452,4.42597926 C7.15250576,4.42597926 6.59490207,4.54637097 6.11650346,4.78715438 L6.11650346,4.78715438 L6.11650346,6.01324885 C6.54737903,5.71860599 6.99092742,5.57128456 7.44714862,5.57128456 C8.12831221,5.57128456 8.46889401,5.8485023 8.46889401,6.40293779 C8.46889401,6.9922235 8.02534562,7.28686636 7.13824885,7.28686636 L7.13824885,7.28686636 L6.57272465,7.28686636 L6.57272465,8.43692396 L7.18577189,8.43692396 C7.64832949,8.43692396 8.01188076,8.51929724 8.27642569,8.68404378 C8.54097062,8.84879032 8.67324309,9.08323733 8.67324309,9.38738479 C8.67324309,9.68202765 8.56631624,9.91172235 8.35246256,10.0764689 C8.13860887,10.2412154 7.84000576,10.3235887 7.45665323,10.3235887 C6.84835829,10.3235887 6.31610023,10.1572581 5.85987903,9.82459677 L5.85987903,9.82459677 L5.85987903,11.1314804 C6.30025922,11.359591 6.87211982,11.4736463 7.57546083,11.4736463 Z" id="3" fill="#1B1B1B" fill-rule="nonzero"></path>
                                </g>
                                <g id="1">
                                    <g id="Group" fill="#FFB75D">
                                        <circle id="Oval-Copy-4" cx="8" cy="8" r="8"></circle>
                                    </g>
                                    <polygon fill="#1B1B1B" fill-rule="nonzero" points="10.2795219 11.3548387 10.2795219 10.1667627 8.87759217 10.1667627 8.87759217 4.42597926 5.93116359 5.02001728 5.93116359 6.23660714 7.38061636 5.92295507 7.38061636 10.1667627 5.96918203 10.1667627 5.96918203 11.3548387"></polygon>
                                </g>
                                <g id="Group-2" transform="translate(0.000000, 38.000000)">
                                    <circle id="Oval-Copy-4" fill="#FFB75D" cx="8" cy="8" r="8"></circle>
                                    <path d="M10.1654666,11.483871 L10.1654666,10.2387673 L7.39962558,10.2387673 L7.39962558,10.2102535 L8.8015553,8.96514977 C9.75518433,8.11607143 10.2319988,7.29392281 10.2319988,6.49870392 C10.2319988,5.9030818 10.0363623,5.43022753 9.64508929,5.08014113 C9.25381624,4.73005472 8.70967742,4.55501152 8.01267281,4.55501152 C7.26814516,4.55501152 6.59965438,4.74668779 6.00720046,5.13004032 L6.00720046,5.13004032 L6.00720046,6.45118088 C6.54262673,5.98545507 7.10339862,5.75259217 7.68951613,5.75259217 C8.36434332,5.75259217 8.70175691,6.06624424 8.70175691,6.69354839 C8.70175691,6.97551843 8.62175979,7.24402362 8.46176555,7.49906394 C8.30177131,7.75410426 8.02534562,8.07013249 7.63248848,8.44714862 L7.63248848,8.44714862 L5.67929147,10.3148041 L5.67929147,11.483871 L10.1654666,11.483871 Z" id="2" fill="#1B1B1B" fill-rule="nonzero"></path>
                                </g>
                            </g>
                        </g>
                    </g>
                </g>
            </g>
        </g>
    </g>
</svg>