<?xml version="1.0" encoding="UTF-8"?>
<svg viewBox="0 0 128 128" version="1.1" xmlns="http://www.w3.org/2000/svg" xmlns:xlink="http://www.w3.org/1999/xlink" id="transfer_enabled">
    <title>transfer enabled</title>
    <g id="transfer-enabled" stroke="none" stroke-width="1" fill="none" fill-rule="evenodd">
        <g id="Group-4" fill="#0070D2" fill-rule="nonzero">
            <path d="M67.0999125,-31 C69.0869665,-30.8814976 70.6968176,-27.9041215 70.808365,-24.1413176 L70.808365,35.5292189 C70.7918275,37.3647193 71.3704968,39.0317809 72.2662679,39.7292238 C73.162039,40.4266668 74.1917499,40.0118821 74.8605278,38.6842127 L83.5437337,22.6006026 C84.2244264,21.2809048 85.1569695,20.5369928 86.1306055,20.5369928 C87.1042414,20.5369928 88.0367845,21.2809048 88.7174772,22.6006026 L93.8912208,32.0312909 C94.5971584,33.2406413 95,34.9600498 95,36.7637817 C95,38.5675136 94.5971584,40.2869221 93.8912208,41.4962725 L65.9964217,92.9363902 C65.315729,94.256088 64.3831859,95 63.4095499,95 C62.435914,95 61.5033709,94.256088 60.8226782,92.9363902 L33.1087792,41.4962725 C32.4028416,40.2869221 32,38.5675136 32,36.7637817 C32,34.9600498 32.4028416,33.2406413 33.1087792,32.0312909 L38.1558927,22.6006026 C38.8365854,21.2809048 39.7691285,20.5369928 40.7427644,20.5369928 C41.7164004,20.5369928 42.6489435,21.2809048 43.3296362,22.6006026 L52.0128421,38.6842127 C52.68162,40.0118821 53.7113309,40.4266668 54.607102,39.7292238 C55.5028731,39.0317809 56.0815424,37.3647193 56.0650049,35.5292189 L56.0650049,-24.1413176 C56.2370525,-27.9171296 57.8661213,-30.8583121 59.8639075,-31 L67.0999125,-31 Z" id="Path" transform="translate(63.500000, 32.000000) rotate(-90.000000) translate(-63.500000, -32.000000) "></path>
            <path d="M67.0999125,33 C69.0869665,33.1185024 70.6968176,36.0958785 70.808365,39.8586824 L70.808365,39.8586824 L70.808365,99.5292189 C70.7918275,101.364719 71.3704968,103.031781 72.2662679,103.729224 C73.162039,104.426667 74.1917499,104.011882 74.8605278,102.684213 L74.8605278,102.684213 L83.5437337,86.6006026 C84.2244264,85.2809048 85.1569695,84.5369928 86.1306055,84.5369928 C87.1042414,84.5369928 88.0367845,85.2809048 88.7174772,86.6006026 L88.7174772,86.6006026 L93.8912208,96.0312909 C94.5971584,97.2406413 95,98.9600498 95,100.763782 C95,102.567514 94.5971584,104.286922 93.8912208,105.496273 L93.8912208,105.496273 L65.9964217,156.93639 C65.315729,158.256088 64.3831859,159 63.4095499,159 C62.435914,159 61.5033709,158.256088 60.8226782,156.93639 L60.8226782,156.93639 L33.1087792,105.496273 C32.4028416,104.286922 32,102.567514 32,100.763782 C32,98.9600498 32.4028416,97.2406413 33.1087792,96.0312909 L33.1087792,96.0312909 L38.1558927,86.6006026 C38.8365854,85.2809048 39.7691285,84.5369928 40.7427644,84.5369928 C41.7164004,84.5369928 42.6489435,85.2809048 43.3296362,86.6006026 L43.3296362,86.6006026 L52.0128421,102.684213 C52.68162,104.011882 53.7113309,104.426667 54.607102,103.729224 C55.5028731,103.031781 56.0815424,101.364719 56.0650049,99.5292189 L56.0650049,99.5292189 L56.0650049,39.8586824 C56.2370525,36.0828704 57.8661213,33.1416879 59.8639075,33 L67.0999125,33 Z" id="Path" transform="translate(63.500000, 96.000000) scale(1, -1) rotate(90.000000) translate(-63.500000, -96.000000) "></path>
        </g>
    </g>
</svg>