<?xml version="1.0" encoding="UTF-8"?>
<svg id="folder" width="30px" height="28px" viewBox="0 0 30 28" version="1.1" xmlns="http://www.w3.org/2000/svg" xmlns:xlink="http://www.w3.org/1999/xlink">
    <title>Docrio / Icon / Docrio Folder / v5 Final / Empty 4</title>
    <g id="Docrio-/-Icon-/-Docrio-Folder-/-v5-Final-/-Empty-4" stroke="none" stroke-width="1" fill="none" fill-rule="evenodd">
        <g id="Group" transform="translate(0.000000, 3.000000)">
            <g id="Group-2" fill="#F2CA65">
                <path d="M0,0.5 C-3.38176876e-17,0.223857625 0.223857625,5.07265313e-17 0.5,0 L6,0 C6.27614237,-5.07265313e-17 6.5,0.223857625 6.5,0.5 L6.5,2 L27.37,2 C27.7179394,2 28,2.28206061 28,2.63 L28,22 L0,22 L0,0.5 Z" id="Combined-Shape"></path>
            </g>
            <path d="M28,22 L1,22 L1,7 L7.5,7 L7.5,4.5 C7.5,4.22385763 7.72385763,4 8,4 L27.5,4 C27.7761424,4 28,4.22385763 28,4.5 L28,22 Z" id="Combined-Shape" fill="#DCA721"></path>
            <path d="M1.5,6 L8,6 L8,6 L8,7.26 L1,7.26 L1,6.5 C1,6.22385763 1.22385763,6 1.5,6 Z" id="Rectangle" fill="#DCA721"></path>
        </g>
    </g>
</svg>