<svg id="convert_to_pdf" width="18" height="18" viewBox="0 0 18 18" fill="none" xmlns="http://www.w3.org/2000/svg">
<path d="M17 12.0764H17.05V12.0264V11.1409V11.0909H17H13.0599H13.0099V11.1409V17.0001V17.0501H13.0599H14.2146H14.2646V17.0001V14.5922H16.6386H16.6886V14.5422V13.6567V13.6067H16.6386H14.2646V12.0764H17Z" fill="currentColor" stroke="currentColor" stroke-width="0.1"/>
<path d="M10.4517 16.7146L10.4519 16.7145C10.9541 16.4844 11.341 16.144 11.6109 15.6936C11.8869 15.2429 12.0236 14.6983 12.0236 14.0622C12.0236 13.0648 11.7324 12.3148 11.1418 11.8225C10.5538 11.3324 9.72401 11.0909 8.6593 11.0909H6.53497H6.48497V11.1409V17.0001V17.0501H6.53497H8.70337C9.37285 17.0501 9.95607 16.9389 10.4517 16.7146ZM10.2032 12.5597L10.2032 12.5597L10.2038 12.5602C10.5536 12.8727 10.7336 13.3694 10.7336 14.0622C10.7336 14.7547 10.5508 15.2543 10.195 15.5725C9.83734 15.8923 9.30479 16.0563 8.58878 16.0563H7.73088V12.0764H8.61523C9.33139 12.0764 9.85756 12.2405 10.2032 12.5597Z" fill="currentColor" stroke="currentColor" stroke-width="0.1"/>
<path d="M4.4301 14.9361L4.43045 14.936C4.79715 14.7836 5.09266 14.5516 5.31574 14.2403C5.54023 13.927 5.65124 13.5467 5.65124 13.1022C5.65124 12.4284 5.42928 11.9207 4.97888 11.5891C4.53889 11.2553 3.96028 11.0909 3.24773 11.0909H1H0.95V11.1409V17.0001V17.0501H1H2.15472H2.20472V17.0001V15.155H3.24773C3.67657 15.155 4.0709 15.0822 4.4301 14.9361ZM3.14195 14.1777H2.1959V12.0598H3.15077C3.51326 12.0598 3.808 12.1435 4.03855 12.3071C4.26217 12.4659 4.37889 12.7292 4.37889 13.1105C4.37889 13.4736 4.26023 13.7385 4.0287 13.9146C3.79207 14.0891 3.49753 14.1777 3.14195 14.1777Z" fill="currentColor" stroke="currentColor" stroke-width="0.1"/>
<path fill-rule="evenodd" clip-rule="evenodd" d="M9.17357 4.32748C6.81157 4.32748 4.66216 6.30114 4.4732 8.62962C4.44958 8.80703 4.61492 8.98444 4.8275 8.98444H5.5361C5.72505 8.98444 5.86677 8.85138 5.89039 8.69615C6.05573 7.03295 7.56741 5.65804 9.40977 5.65804H9.78769C10.0003 5.65804 10.0947 5.90197 9.95303 6.03503L8.65393 7.27689C8.51221 7.40994 8.51221 7.60953 8.65393 7.74258L9.14995 8.20828C9.29167 8.34133 9.50425 8.34133 9.64597 8.20828L12.8583 5.21452C13 5.08146 13 4.88188 12.8583 4.74882L9.66959 1.75507C9.52787 1.62201 9.31529 1.62201 9.17357 1.75507L8.67755 2.22076C8.53583 2.35382 8.51221 2.5534 8.65393 2.68646L9.97665 3.92831C10.1184 4.06137 10.0239 4.3053 9.81131 4.3053L9.17357 4.32748V4.32748Z" fill="currentColor" stroke="currentColor"/>
</svg>
